<svg width="34" height="35" viewBox="0 0 34 35" fill="none" xmlns="http://www.w3.org/2000/svg">
<path d="M29.75 21.2688C29.8012 21.1951 29.8503 21.1187 29.9008 21.047C31.1851 19.1382 31.8724 16.8903 31.875 14.5896C31.8963 7.99551 26.3328 2.64648 19.4531 2.64648C13.4526 2.64648 8.4469 6.7298 7.27417 12.1505C7.09825 12.9539 7.00919 13.7739 7.00854 14.5963C7.00854 21.1971 12.3582 26.6895 19.2379 26.6895C20.3316 26.6895 21.8052 26.3608 22.6133 26.139C23.4215 25.9172 24.2224 25.6244 24.4296 25.5453C24.6367 25.4663 24.9608 25.3853 25.2191 25.4597L30.3603 26.9459C30.4055 26.9592 30.4534 26.9603 30.4992 26.949C30.545 26.9377 30.5869 26.9144 30.6207 26.8816C30.6545 26.8487 30.6789 26.8075 30.6915 26.7621C30.7041 26.7166 30.7044 26.6687 30.6923 26.6231L29.5156 22.1414C29.4339 21.8093 29.4233 21.7469 29.75 21.2688Z" fill="#ECFDF5"/>
<path d="M20.7547 28.1053C20.2437 28.187 19.7275 28.2325 19.2101 28.2414C16.3925 28.2414 13.7316 27.4977 11.5734 26.1032C10.1928 25.2558 8.99442 24.1425 8.04785 22.828C6.31597 20.5323 5.37168 17.6144 5.37168 14.5611C5.37168 14.3532 5.37898 14.1534 5.38629 13.9528C5.38892 13.8937 5.37327 13.8351 5.34147 13.7852C5.30967 13.7353 5.26327 13.6963 5.20856 13.6737C5.15386 13.6511 5.09351 13.6458 5.03572 13.6587C4.97793 13.6716 4.92551 13.7019 4.88558 13.7456C3.29551 15.4854 2.33429 17.7078 2.15542 20.058C1.97654 22.4081 2.59034 24.7504 3.89879 26.7108C4.06281 26.9611 4.15578 27.1544 4.12722 27.2832L3.19156 32.0817C3.18293 32.1273 3.18641 32.1744 3.20165 32.2183C3.2169 32.2622 3.24338 32.3013 3.27846 32.3317C3.31353 32.3621 3.35597 32.3829 3.40155 32.3918C3.44712 32.4007 3.49424 32.3975 3.5382 32.3825L8.05382 30.7728C8.19076 30.7187 8.33704 30.6921 8.48426 30.6946C8.63149 30.6971 8.77678 30.7287 8.91179 30.7875C10.2632 31.3187 11.758 31.6454 13.2528 31.6454C16.13 31.6548 18.9016 30.5617 20.9977 28.5907C21.041 28.5485 21.0697 28.4937 21.0798 28.4341C21.0898 28.3745 21.0807 28.3132 21.0536 28.2592C21.0266 28.2052 20.983 28.1611 20.9293 28.1335C20.8755 28.1058 20.8144 28.0959 20.7547 28.1053Z" fill="#ECFDF5"/>
</svg>
