<svg width="16" height="16" viewBox="0 0 16 16" fill="none" xmlns="http://www.w3.org/2000/svg">
<g clip-path="url(#clip0_4_506)">
<path d="M8 10.5C9.38071 10.5 10.5 9.38071 10.5 8C10.5 6.61929 9.38071 5.5 8 5.5C6.61929 5.5 5.5 6.61929 5.5 8C5.5 9.38071 6.61929 10.5 8 10.5Z" stroke="#374151" stroke-linecap="round" stroke-linejoin="round"/>
<path d="M8.12802 12.8819C8.04427 12.8819 7.95989 12.8819 7.87802 12.8819L5.87489 14C5.0951 13.7377 4.37181 13.3306 3.74302 12.8L3.73552 10.55C3.69114 10.48 3.64927 10.4094 3.61052 10.3369L1.61864 9.2025C1.46175 8.40893 1.46175 7.59232 1.61864 6.79875L3.60864 5.6675C3.64927 5.59563 3.69114 5.52437 3.73364 5.45437L3.74364 3.20438C4.37187 2.67228 5.09497 2.26365 5.87489 2L7.87489 3.11812C7.95864 3.11812 8.04302 3.11812 8.12489 3.11812L10.1249 2C10.9047 2.2623 11.628 2.66943 12.2568 3.2L12.2643 5.45C12.3086 5.52 12.3505 5.59063 12.3893 5.66313L14.3799 6.79688C14.5368 7.59044 14.5368 8.40706 14.3799 9.20063L12.3899 10.3319C12.3493 10.4037 12.3074 10.475 12.2649 10.545L12.2549 12.795C11.6271 13.3272 10.9044 13.736 10.1249 14L8.12802 12.8819Z" stroke="#374151" stroke-linecap="round" stroke-linejoin="round"/>
</g>
<defs>
<clipPath id="clip0_4_506">
<rect width="16" height="16" fill="white"/>
</clipPath>
</defs>
</svg>
