<svg width="16" height="16" viewBox="0 0 16 16" fill="none" xmlns="http://www.w3.org/2000/svg">
<g clip-path="url(#clip0_4_743)">
<path d="M8 10.5C9.38071 10.5 10.5 9.38071 10.5 8C10.5 6.61929 9.38071 5.5 8 5.5C6.61929 5.5 5.5 6.61929 5.5 8C5.5 9.38071 6.61929 10.5 8 10.5Z" stroke="#374151" stroke-miterlimit="10"/>
<path d="M11 2H5C3.34315 2 2 3.34315 2 5V11C2 12.6569 3.34315 14 5 14H11C12.6569 14 14 12.6569 14 11V5C14 3.34315 12.6569 2 11 2Z" stroke="#374151" stroke-linecap="round" stroke-linejoin="round"/>
<path d="M11.25 5.5C11.6642 5.5 12 5.16421 12 4.75C12 4.33579 11.6642 4 11.25 4C10.8358 4 10.5 4.33579 10.5 4.75C10.5 5.16421 10.8358 5.5 11.25 5.5Z" fill="#374151"/>
</g>
<defs>
<clipPath id="clip0_4_743">
<rect width="16" height="16" fill="white"/>
</clipPath>
</defs>
</svg>
