<svg width="66" height="63" viewBox="0 0 66 63" fill="none" xmlns="http://www.w3.org/2000/svg">
<path d="M19.5697 6.11657C19.1708 6.35719 18.8473 6.76824 18.9551 6.92865C18.9982 6.9888 18.9875 7.00886 18.912 6.96875C18.7179 6.85847 16.9927 9.71579 17.1005 9.98649C17.1329 10.0667 17.1221 10.0968 17.0574 10.0667C17.0035 10.0366 16.9064 10.1068 16.8417 10.2171C16.7447 10.3875 16.6153 10.4176 15.8929 10.4176C13.7256 10.4176 11.3642 11.1795 10.0272 12.3024C9.70373 12.5731 9.63904 12.6734 9.74686 12.7536C9.85469 12.8238 9.84391 12.8338 9.71452 12.7937C9.60669 12.7636 9.42339 12.8438 9.26165 13.0042C8.90583 13.3651 8.21575 14.3477 8.21575 14.498C8.21575 14.6484 8.14027 14.6685 6.23177 14.9793C4.24779 15.3001 3.73023 15.5106 3.44988 16.0921C3.2558 16.5032 3.2558 16.5633 3.41754 17.1549C3.51458 17.5058 3.65475 18.1273 3.74101 18.5484C3.94588 19.6412 4.16153 20.2428 4.61439 21.0448C5.29369 22.2479 6.24255 22.8595 8.22653 23.4009C9.33713 23.7016 9.80078 23.8821 10.1566 24.1628C10.4154 24.3633 10.4262 24.4235 10.4154 25.396C10.4046 26.559 10.2429 27.0101 9.40182 28.2032C8.8627 28.9651 8.4314 29.8674 8.14027 30.8901C7.90306 31.6821 7.88149 34.6096 8.08636 35.5319C8.49609 37.2764 9.61747 39.7929 9.85469 39.4821C9.94095 39.3718 9.95173 39.3818 9.89782 39.5222C9.82234 39.7327 10.0811 40.1337 10.2105 40.0134C10.2644 39.9733 10.2644 39.9934 10.2321 40.0535C10.1889 40.1137 10.3291 40.5247 10.534 40.9558C11.1378 42.2692 11.1809 42.7003 11.1702 47.2119C11.1702 49.4476 11.1378 51.4327 11.0947 51.6232C11.03 51.9039 10.9114 52.0342 10.4693 52.2749C9.69295 52.6959 9.17539 53.2874 8.87348 54.0694C8.65783 54.6409 8.62548 54.8715 8.66861 55.7638C8.70096 56.636 8.74409 56.8566 8.98131 57.2376C9.13226 57.4882 9.31556 57.6787 9.38026 57.6687C9.45574 57.6486 9.49887 57.6987 9.4773 57.7589C9.46652 57.8291 9.70373 57.9995 9.99486 58.1399C10.5124 58.3805 10.6095 58.3905 12.6366 58.3905C14.6529 58.3905 14.7715 58.3705 15.591 58.1098C17.8877 57.3579 19.0198 55.9443 19.8069 52.8463C19.9579 52.2749 20.0765 51.7134 20.0765 51.6031C20.0765 51.3124 20.3568 51.543 20.4539 51.9039C20.5725 52.3551 21.5645 53.9491 22.0281 54.4304C22.2761 54.681 22.4379 54.8013 22.4055 54.7011C22.3624 54.5908 22.384 54.5407 22.4594 54.5808C22.5133 54.6209 22.5349 54.7311 22.5026 54.8214C22.384 55.1823 24.3464 56.6661 25.899 57.388C28.7888 58.7314 32.4332 59.0823 35.7543 58.3504C36.4551 58.19 36.6169 58.19 36.9727 58.3003C37.2746 58.4005 38.1264 58.4407 40.1427 58.4407C42.806 58.4407 42.9354 58.4306 43.7333 58.19C44.6606 57.9093 45.286 57.4982 45.5879 56.9869C45.7712 56.6561 45.7928 56.6461 46.03 56.7964C46.1702 56.8766 46.3427 56.9167 46.4074 56.8766C46.4828 56.8365 46.4936 56.8466 46.4505 56.9167C46.3427 57.0872 47.4101 57.6687 48.3806 57.9594C49.4804 58.2903 51.1301 58.4908 52.2191 58.4106C54.1815 58.2702 55.2167 57.2275 55.2274 55.3928C55.2274 54.1898 54.8501 53.2874 54.0198 52.5656C53.6532 52.2548 53.4376 52.1245 53.3082 52.1746C53.2111 52.2047 53.168 52.2047 53.2111 52.1646C53.3082 52.0743 52.9308 51.8939 52.2838 51.7335C51.6692 51.5731 51.583 51.4427 51.1948 50.1594C50.4616 47.6831 50.3106 44.4949 50.8498 42.4497C51.2271 41.0361 51.8525 39.7628 52.6289 38.8906C54.6775 36.5546 55.3784 35.2512 55.7342 33.1057C55.8636 32.2936 55.8852 31.8726 55.8097 31.2209L55.7127 30.3787L56.0361 30.2584C58.1495 29.5266 59.3787 28.6543 60.2197 27.2908C60.6403 26.6191 61.05 25.5063 61.05 25.0651C61.0392 24.7042 60.705 24.0525 60.3599 23.7618C60.1335 23.5713 60.0796 23.4209 60.0796 23.07C60.0796 22.4584 59.7022 21.3255 59.2493 20.5636C58.8719 19.942 57.2869 18.3379 57.0389 18.3379C56.9742 18.3379 56.7478 18.2176 56.5537 18.0772C56.3488 17.9369 56.0685 17.8065 55.9283 17.7965C55.7881 17.7965 55.6911 17.7664 55.7234 17.7464C55.745 17.7263 55.6911 17.6561 55.5941 17.586C55.4323 17.4857 55.4323 17.4255 55.6048 16.9142C55.7127 16.6135 55.7666 16.2525 55.7342 16.1122C55.6372 15.7613 55.2706 15.3502 54.8824 15.1698C54.1815 14.8289 53.5022 15.1998 52.4671 16.4932L51.8957 17.225L50.7851 17.2551C49.5559 17.2952 49.6529 17.3253 48.5207 16.5232C47.5934 15.8615 46.3427 15.1698 45.9222 15.0795C45.4693 14.9693 44.9302 15.1096 44.5743 15.4104C43.55 16.3027 41.6523 20.0824 40.9406 22.6489C40.9083 22.7893 40.8112 23.1201 40.725 23.4009C40.6495 23.6716 40.4554 24.4636 40.2937 25.1554C40.1427 25.8471 39.9702 26.4487 39.9163 26.4988C39.7653 26.6392 33.1665 26.3985 32.0774 26.2081C30.7512 25.9775 29.4896 25.5764 28.7456 25.1453C28.379 24.9248 28.0124 24.7644 27.9369 24.7744C27.8615 24.7944 27.7968 24.7343 27.786 24.644C27.786 24.4435 27.1498 23.9322 27.0312 24.0325C26.9773 24.0726 26.9773 24.0525 27.0204 23.9824C27.0636 23.9122 26.9234 23.6415 26.7185 23.3808C25.7373 22.1075 25.3923 20.8042 25.2521 17.7865C25.1982 16.6836 25.1011 15.3302 25.0257 14.7788C24.9178 13.8364 24.4542 11.8914 24.2817 11.6708C24.2493 11.6106 24.1523 11.37 24.0768 11.1194C23.7533 10.0366 22.1036 7.30963 21.2734 6.47749C20.6911 5.88598 20.1412 5.7757 19.5697 6.11657ZM21.0793 6.5577C21.0038 6.76824 20.9499 6.74819 20.9714 6.5176C20.9714 6.40731 21.0254 6.33713 21.0685 6.36721C21.1116 6.39729 21.1224 6.47749 21.0793 6.5577ZM21.0469 11.0993C21.8987 12.8939 22.1899 14.3376 22.3408 17.5358C22.4271 19.6111 22.578 21.0749 22.7398 21.4459C22.7721 21.5261 22.826 21.6865 22.8476 21.7968C22.9123 22.1677 23.5053 23.6114 23.7425 24.0124C24.3464 25.005 24.8747 25.6566 25.0257 25.6065C25.1227 25.5764 25.1551 25.5764 25.1227 25.6165C25.0041 25.7168 25.2521 26.0677 25.3815 25.9975C25.4462 25.9574 25.4677 25.9674 25.4354 26.0276C25.3491 26.1579 25.7157 26.4787 25.9098 26.4386C25.9853 26.4186 26.05 26.4587 26.0608 26.5289C26.0608 26.7093 26.9773 27.3209 27.8507 27.7219C29.6729 28.5741 31.7108 28.9852 34.7838 29.1255C36.3689 29.1957 36.7355 29.2859 35.9268 29.4062C34.7407 29.5767 30.1905 31.2209 29.3602 31.7623C29.1877 31.8826 29.0044 31.9728 28.9613 31.9728C28.7672 31.9728 27.7429 32.7147 27.8076 32.805C27.8399 32.8651 27.8183 32.8751 27.7429 32.835C27.5488 32.7248 25.7804 34.0381 24.9825 34.8803C24.81 35.0708 24.5836 35.2913 24.4973 35.3816C23.8504 36.0032 23.3005 36.6949 23.3759 36.7952C23.4191 36.8654 23.4083 36.8854 23.3436 36.8553C23.2466 36.7952 22.3408 37.9782 22.3408 38.1587C22.3408 38.1888 22.2761 38.299 22.1899 38.3792C21.8987 38.69 20.8205 41.0461 20.4539 42.189C20.0334 43.5124 19.6452 45.7782 19.6452 46.9612C19.6452 47.4024 19.5913 47.8335 19.5374 47.9137C19.4727 48.0139 19.4295 48.024 19.4295 47.9337C19.4295 47.7633 18.7395 47.7733 18.3621 47.9638C17.9847 48.1443 17.769 48.5653 17.6181 49.4175C17.5534 49.7785 17.4132 50.5204 17.3162 51.0718C16.8633 53.6584 16.1625 55.0419 15.0519 55.5432C14.599 55.7437 14.3186 55.7838 12.9816 55.8139L11.4397 55.864L11.4828 55.2224C11.5152 54.7712 11.5691 54.5908 11.6661 54.6108C11.7416 54.6209 11.8495 54.5707 11.9249 54.4905C11.9896 54.4003 12.3562 54.2299 12.7336 54.1096C13.6825 53.7988 13.8226 53.5581 13.9413 52.0944C14.2 48.6656 14.1461 42.1088 13.8442 41.8983C13.8011 41.8682 13.7687 41.6977 13.758 41.5173C13.7472 41.1163 13.3806 40.0936 13.2512 40.0936C13.208 40.0936 13.1973 40.0435 13.2296 39.9934C13.2727 39.9332 13.208 39.7427 13.0894 39.5623C12.8738 39.2415 12.5287 38.66 11.9681 37.7175C11.2133 36.4543 10.8467 35.0006 10.8143 33.1759C10.7928 32.1032 10.8251 31.7723 11.0192 31.1507C11.1486 30.7497 11.3103 30.3687 11.3642 30.2985C11.6769 29.9376 12.1945 29.0253 12.1298 28.935C12.0974 28.8749 12.119 28.8649 12.1837 28.905C12.3562 29.0052 13.1326 27.4412 13.0032 27.2507C12.9816 27.2106 13.0032 27.1505 13.0571 27.1204C13.2404 27.0101 13.4237 25.6165 13.359 24.7243C13.3159 24.0525 13.2296 23.7217 12.9924 23.2806C12.7336 22.7793 12.1406 22.1276 11.6554 21.7968C11.2456 21.516 9.93017 21.0448 8.87348 20.7942C8.03244 20.5937 7.40706 20.3129 7.31002 20.0924C7.27767 20.0022 7.20219 19.962 7.1375 19.9921C7.0728 20.0322 7.06202 19.9821 7.10515 19.8818C7.15906 19.7515 7.1375 19.7315 7.02967 19.7916C6.94341 19.8417 6.91107 19.8317 6.96498 19.7615C6.99733 19.7014 6.94341 19.3906 6.83559 19.0698C6.71698 18.7489 6.59837 18.2777 6.56603 18.0171L6.50133 17.5459L7.06202 17.4055C9.24009 16.8441 9.63904 16.7338 9.94095 16.5834C10.1243 16.4932 10.3076 16.3428 10.3399 16.2525C10.383 16.1623 10.4369 16.0621 10.4801 16.032C10.5124 16.0019 10.6849 15.7613 10.8467 15.4906C11.0731 15.1297 11.1162 14.9893 11.0192 14.9292C10.9222 14.879 10.9222 14.8389 11.0084 14.7888C11.0731 14.7487 11.127 14.7687 11.127 14.8389C11.127 14.9191 11.2025 14.889 11.3427 14.7788C11.4613 14.6785 11.526 14.5582 11.4936 14.5081C11.4613 14.468 11.4721 14.4379 11.526 14.4479C11.5799 14.468 11.8387 14.3176 12.0974 14.1171C13.2835 13.2248 14.2755 12.9942 16.68 13.0443L18.4052 13.0744L19.3217 11.4001C20.3892 9.45512 20.2598 9.47518 21.0469 11.0993ZM18.7071 12.2723C18.6748 12.3626 18.6209 12.4127 18.5993 12.3826C18.5669 12.3525 18.5777 12.2924 18.6209 12.2322C18.7179 12.0718 18.7826 12.1019 18.7071 12.2723ZM22.5241 14.8489C22.4918 14.9292 22.4594 14.8991 22.4594 14.7888C22.4486 14.6785 22.481 14.6184 22.5133 14.6585C22.5457 14.6885 22.5565 14.7788 22.5241 14.8489ZM10.782 15.3302C10.7065 15.4405 10.6202 15.4806 10.5987 15.4204C10.5771 15.3603 10.631 15.27 10.7065 15.2199C10.9222 15.0996 10.9329 15.1096 10.782 15.3302ZM3.65475 17.3554C3.6224 17.4356 3.59006 17.4055 3.59006 17.2952C3.57927 17.1849 3.61162 17.1248 3.64397 17.1649C3.67632 17.195 3.6871 17.2852 3.65475 17.3554ZM49.4157 17.5659C49.3079 17.6561 49.2971 17.6461 49.3618 17.5058C49.3941 17.4055 49.4588 17.3554 49.4912 17.3854C49.5235 17.4155 49.4912 17.4957 49.4157 17.5659ZM46.774 18.5585C47.1729 18.8492 47.5827 19.16 47.6797 19.2402C47.7767 19.3304 48.0355 19.5309 48.2512 19.6813L48.6609 19.9721L50.192 19.8818C52.3809 19.7515 54.6236 19.7816 54.5266 19.942C54.505 19.9721 54.6883 20.0824 54.9363 20.1926C55.5617 20.4734 56.5753 21.3757 56.834 21.877C57.2222 22.6389 57.2222 22.7993 56.8556 23.1101C56.6723 23.2605 56.4674 23.5512 56.392 23.7618C56.2949 24.0926 56.3057 24.2029 56.5321 24.624C56.7262 24.9949 56.9203 25.1654 57.33 25.3759C57.6319 25.5263 57.9123 25.6667 57.9662 25.6867C58.0309 25.7068 58.0309 25.7769 57.9662 25.8672C57.9123 25.9474 57.8692 26.0877 57.8692 26.178C57.8692 26.2782 57.8368 26.3484 57.8045 26.3284C57.7721 26.3183 57.5349 26.4787 57.2977 26.6793C56.7693 27.1204 55.896 27.5415 54.8501 27.8723C53.8257 28.1831 53.3297 28.4839 53.0709 28.9651C52.8661 29.3361 52.8553 29.4764 52.92 30.8901C53.0063 32.6847 52.8769 33.6672 52.4563 34.4792C52.2946 34.78 52.1652 35.0908 52.176 35.151C52.176 35.2212 52.1437 35.2613 52.1005 35.2312C52.0574 35.2011 51.8849 35.3715 51.7231 35.6122C51.5614 35.8427 51.3026 36.1535 51.1624 36.3039C51.0007 36.4643 50.9252 36.6147 50.9684 36.6949C51.0223 36.7651 51.0115 36.7952 50.9468 36.7551C50.7743 36.6548 50.1489 37.4368 50.2244 37.6574C50.2675 37.7877 50.2567 37.7978 50.1812 37.7075C50.1058 37.6073 49.9979 37.6975 49.7499 38.0584C48.4776 39.9132 47.7875 42.169 47.6258 45.0062C47.5503 46.3497 47.7013 48.3949 47.9493 49.3173C48.0247 49.618 48.1973 50.2697 48.3374 50.771C48.6933 52.1245 49.1461 53.127 49.5559 53.488C49.9656 53.8489 50.9684 54.1597 51.4212 54.0795C51.6584 54.0394 51.68 54.0494 51.5075 54.1096C51.3026 54.1998 51.3026 54.1998 51.5291 54.27C51.6692 54.3101 51.831 54.3101 51.8957 54.27C51.9711 54.2299 51.9927 54.2399 51.9496 54.3101C51.9172 54.3702 51.9496 54.4504 52.0358 54.5006C52.1976 54.5908 52.3809 55.1422 52.3809 55.5332C52.3701 55.7838 52.3593 55.7838 51.4536 55.7638C49.7823 55.7237 48.4021 55.2425 47.5611 54.4103C47.119 53.9792 45.9545 52.325 45.9545 52.1345C45.9545 52.0543 45.9222 52.0242 45.8898 52.0543C45.8467 52.0944 45.7389 51.9741 45.631 51.7936C45.4154 51.3926 44.6822 51.0417 43.9274 50.9515C43.5392 50.9114 43.3883 50.8612 43.453 50.781C43.6686 50.5204 43.8519 49.1869 43.8411 47.9638C43.8411 46.9612 43.7764 46.4599 43.5931 45.7882C43.1726 44.2643 42.3639 42.6502 42.1591 42.9209C42.0836 43.0111 42.0728 43.0011 42.1159 42.8708C42.2022 42.6301 41.814 42.1389 40.8652 41.2666C40.0673 40.5448 39.6144 40.244 38.5038 39.7227C37.3932 39.2114 36.5953 39.051 35.1181 39.051C33.9967 39.051 33.7056 39.0911 32.9832 39.3217C31.7755 39.7127 31.0423 40.1337 30.212 40.9157C28.2065 42.8106 27.7429 45.5777 29.026 47.9137C29.3494 48.5052 30.6973 49.7584 30.9237 49.6782C31.01 49.6481 31.0639 49.6581 31.0315 49.7083C30.9992 49.7584 31.1717 49.8887 31.4305 49.999C32.3254 50.38 33.0694 50.5504 33.8458 50.5504C34.525 50.5504 34.6652 50.5204 34.9995 50.2797C35.2151 50.1294 35.3877 49.9288 35.3877 49.8286C35.3877 49.7384 35.4416 49.608 35.517 49.5378C35.7003 49.3674 35.4631 48.7157 35.0965 48.3949C34.7515 48.1042 34.2124 47.9137 33.7271 47.9137C33.3282 47.9137 32.6165 47.6229 32.1098 47.262C31.7971 47.0414 31.6461 46.8309 31.1717 45.8985C31.01 45.5877 31.1393 44.3746 31.3981 43.763C31.6785 43.0913 32.4009 42.3394 33.0802 42.0186C34.3957 41.397 36.4228 41.5273 37.8137 42.3294C38.9567 42.981 40.0673 44.2443 40.5093 45.4073C41.1994 47.2019 41.1239 49.8186 40.326 51.3826C40.1966 51.6432 40.0996 51.9139 40.0996 51.9841C40.0996 52.0643 40.078 52.1044 40.0457 52.0743C40.0133 52.0543 39.8947 52.1946 39.7761 52.4052C39.3556 53.1471 38.3852 54.1296 37.4255 54.7813C35.1289 56.3553 30.762 56.5558 27.6782 55.2324C26.0931 54.5507 25.1443 53.8389 24.1415 52.6057C22.9986 51.1921 22.33 48.7558 22.4918 46.6605C22.5996 45.3471 22.9554 43.4623 23.2681 42.6301C23.4191 42.2291 23.5053 41.8481 23.4622 41.778C23.4191 41.7078 23.4299 41.6977 23.5053 41.7378C23.5808 41.778 23.6347 41.7479 23.6347 41.6777C23.6347 41.4672 24.6591 39.5522 25.1119 38.9206C25.6942 38.0785 26.2549 37.4669 27.3547 36.4343C28.53 35.3415 28.6162 35.2813 29.8131 34.5494C30.859 33.9178 31.6353 33.5368 32.692 33.1358C33.0802 32.9854 33.4899 32.825 33.6085 32.7749C33.7271 32.7248 34.3094 32.5443 34.9024 32.3638C37.0266 31.7422 38.148 31.3312 39.0537 30.8499C40.4662 30.108 41.5984 29.0353 42.2669 27.8122C42.5904 27.2407 43.3128 24.9649 43.205 24.8646C43.1726 24.8446 43.1942 24.7744 43.2481 24.7142C43.302 24.6541 43.399 24.3333 43.4745 24.0024C43.5392 23.6716 43.7657 22.9196 43.9705 22.3381C44.1754 21.7466 44.3263 21.2052 44.3048 21.1351C44.2832 21.0548 44.2832 21.0348 44.3156 21.0849C44.391 21.2253 44.7792 20.2127 44.7145 20.0423C44.6714 19.962 44.6822 19.932 44.7253 19.9721C44.8008 20.0423 45.7389 18.3379 45.7389 18.1273C45.7389 17.9268 46.0731 18.0672 46.774 18.5585ZM57.5457 19.0397C57.5133 19.0898 57.4163 19.1399 57.3516 19.1399C57.2761 19.1399 57.2869 19.0998 57.3839 19.0397C57.5888 18.9194 57.6319 18.9194 57.5457 19.0397ZM6.6415 19.2201C6.67385 19.2703 6.63072 19.3104 6.54446 19.3104C6.4582 19.3104 6.41507 19.2703 6.44742 19.2201C6.47977 19.18 6.5229 19.1399 6.54446 19.1399C6.56603 19.1399 6.60916 19.18 6.6415 19.2201ZM45.0596 19.3605C45.0272 19.4407 44.9949 19.4106 44.9949 19.3004C44.9841 19.1901 45.0164 19.1299 45.0488 19.17C45.0811 19.2001 45.0919 19.2903 45.0596 19.3605ZM55.4431 20.1425C55.3568 20.1926 55.3784 20.2327 55.5078 20.2829C55.6048 20.3129 55.6587 20.3731 55.6372 20.4032C55.6048 20.4333 55.4215 20.3731 55.2382 20.2628L54.904 20.0723H55.2274C55.4108 20.0723 55.5078 20.1024 55.4431 20.1425ZM41.3935 22.0674C41.3612 22.1476 41.3288 22.1176 41.3288 22.0073C41.318 21.897 41.3504 21.8369 41.3827 21.877C41.4151 21.907 41.4259 21.9973 41.3935 22.0674ZM43.6578 22.1677C43.6255 22.2479 43.5931 22.2178 43.5931 22.1075C43.5824 21.9973 43.6147 21.9371 43.647 21.9772C43.6794 22.0073 43.6902 22.0975 43.6578 22.1677ZM43.5931 22.8093C43.5392 22.9698 43.4853 23.0199 43.4853 22.9297C43.4745 22.7492 43.5931 22.4183 43.647 22.4785C43.6686 22.4885 43.6363 22.6389 43.5931 22.8093ZM7.02967 22.7492C7.11593 22.7993 7.14828 22.8494 7.08359 22.8494C7.02967 22.8494 6.90028 22.7993 6.81402 22.7492C6.72776 22.6991 6.7062 22.6489 6.76011 22.6489C6.82481 22.6489 6.94341 22.6991 7.02967 22.7492ZM10.0488 23.7919C10.0488 23.8119 9.95173 23.8119 9.83312 23.7818C9.71452 23.7518 9.61747 23.6916 9.61747 23.6315C9.61747 23.5813 9.71452 23.5913 9.83312 23.6515C9.95173 23.7117 10.0488 23.7718 10.0488 23.7919ZM60.1982 23.8219C60.3384 23.9924 60.3384 23.9924 60.1335 23.852C60.0149 23.7718 59.8963 23.6916 59.8747 23.6816C59.8531 23.6615 59.8747 23.6515 59.9394 23.6515C60.0041 23.6515 60.1227 23.7317 60.1982 23.8219ZM27.4086 24.4034C27.5488 24.5438 27.635 24.6541 27.6027 24.6541C27.5811 24.6541 27.4409 24.5438 27.3008 24.4034C27.1606 24.2631 27.0743 24.1528 27.1067 24.1528C27.1283 24.1528 27.2684 24.2631 27.4086 24.4034ZM57.233 25.0451C57.1899 25.0952 57.2222 25.1654 57.2761 25.1854C57.3408 25.2155 57.33 25.2255 57.2546 25.2155C57.0928 25.1854 57.0066 24.9548 57.1683 24.9548C57.233 24.9548 57.2653 24.9949 57.233 25.0451ZM57.9231 25.0551C57.8368 25.1052 57.7182 25.1554 57.6535 25.1554C57.5996 25.1554 57.6212 25.1052 57.7074 25.0551C57.7937 25.005 57.9231 24.9548 57.977 24.9548C58.0417 24.9548 58.0093 25.005 57.9231 25.0551ZM42.8491 25.6767C42.7629 25.7569 42.7521 25.7168 42.7952 25.5464C42.8384 25.416 42.8815 25.3659 42.9138 25.4461C42.9354 25.5163 42.9031 25.6266 42.8491 25.6767ZM25.899 25.9975C25.899 26.0176 25.8236 26.0677 25.7265 26.0978C25.6403 26.1278 25.5971 26.1178 25.6295 26.0577C25.6942 25.9574 25.899 25.9173 25.899 25.9975ZM10.5124 26.8597C10.4801 26.98 10.4262 27.0502 10.3938 27.0201C10.3399 26.96 10.4477 26.6592 10.5232 26.6592C10.5448 26.6592 10.5448 26.7494 10.5124 26.8597ZM26.5999 26.7595C26.6323 26.8096 26.6107 26.8597 26.5568 26.8597C26.4921 26.8597 26.4382 26.8096 26.4382 26.7595C26.4382 26.6993 26.4597 26.6592 26.4813 26.6592C26.5137 26.6592 26.5676 26.6993 26.5999 26.7595ZM27.8076 27.3911C27.883 27.3911 27.9154 27.4312 27.883 27.4813C27.8507 27.5214 27.9154 27.5615 28.0232 27.5715C28.131 27.5715 28.1634 27.6016 28.0987 27.6217C28.0232 27.6518 27.8076 27.5715 27.6135 27.4512C27.4086 27.341 27.3439 27.2708 27.4625 27.3109C27.5811 27.351 27.7321 27.3911 27.8076 27.3911ZM41.7817 28.3736C41.6846 28.4638 41.6523 28.4438 41.6738 28.2834C41.6846 28.143 41.7278 28.1029 41.7925 28.1631C41.8679 28.2332 41.8572 28.3034 41.7817 28.3736ZM9.41261 28.4939C9.30478 28.5841 9.294 28.5741 9.35869 28.4338C9.39104 28.3335 9.45574 28.2834 9.48808 28.3134C9.52043 28.3435 9.48808 28.4237 9.41261 28.4939ZM9.52043 28.7947C9.41261 28.8849 9.40182 28.8749 9.46652 28.7345C9.49887 28.6343 9.56356 28.5841 9.59591 28.6142C9.62826 28.6443 9.59591 28.7245 9.52043 28.7947ZM8.6147 30.1883C8.58235 30.2685 8.55001 30.2384 8.55001 30.1281C8.53922 30.0178 8.57157 29.9577 8.60392 29.9978C8.63627 30.0278 8.64705 30.1181 8.6147 30.1883ZM11.2348 30.108C11.2348 30.1381 11.1917 30.1883 11.127 30.2183C11.0731 30.2484 11.0192 30.2284 11.0192 30.1782C11.0192 30.1181 11.0731 30.0679 11.127 30.0679C11.1917 30.0679 11.2348 30.088 11.2348 30.108ZM27.3008 33.2762C27.3008 33.3263 27.2469 33.3764 27.1822 33.3764C27.1283 33.3764 27.1067 33.3263 27.139 33.2762C27.1714 33.216 27.2253 33.1759 27.2576 33.1759C27.2792 33.1759 27.3008 33.216 27.3008 33.2762ZM54.8069 35.5119C54.6991 35.6021 54.6883 35.5921 54.753 35.4517C54.7854 35.3515 54.8501 35.3014 54.8824 35.3314C54.9148 35.3615 54.8824 35.4417 54.8069 35.5119ZM53.9982 37.0057C53.9012 37.126 53.8257 37.1762 53.8257 37.106C53.8257 36.9155 53.8689 36.8353 53.9659 36.8654C54.0198 36.8754 54.0306 36.7852 53.9875 36.6649C53.9335 36.4643 53.9443 36.4543 54.0414 36.6147C54.1276 36.7451 54.1169 36.8353 53.9982 37.0057ZM24.5297 39.442C24.4973 39.5322 24.4434 39.5823 24.4218 39.5522C24.3895 39.5222 24.4003 39.462 24.4434 39.4019C24.5405 39.2415 24.6051 39.2715 24.5297 39.442ZM32.3146 39.9733C32.2823 40.0034 32.196 39.9733 32.1206 39.9031C32.0235 39.8029 32.0343 39.7929 32.1852 39.853C32.2931 39.8831 32.347 39.9433 32.3146 39.9733ZM51.3565 40.1237C51.2487 40.2139 51.2379 40.2039 51.3026 40.0636C51.335 39.9633 51.3997 39.9132 51.432 39.9433C51.4644 39.9733 51.432 40.0535 51.3565 40.1237ZM11.6661 40.1337C11.6661 40.1638 11.623 40.2139 11.5583 40.244C11.5044 40.2741 11.4505 40.254 11.4505 40.2039C11.4505 40.1438 11.5044 40.0936 11.5583 40.0936C11.623 40.0936 11.6661 40.1137 11.6661 40.1337ZM24.0445 40.4846C23.969 40.5749 23.9043 40.6551 23.8935 40.6751C23.8827 40.6852 23.8827 40.5648 23.8935 40.4044C23.9043 40.1839 23.9366 40.1337 24.0445 40.2139C24.1523 40.2941 24.1523 40.3543 24.0445 40.4846ZM13.359 40.8155C13.3267 40.8957 13.2943 40.8656 13.2943 40.7553C13.2835 40.645 13.3159 40.5849 13.3482 40.625C13.3806 40.6551 13.3913 40.7453 13.359 40.8155ZM50.4508 42.2191C50.4185 42.2993 50.3861 42.2692 50.3861 42.1589C50.3753 42.0486 50.4077 41.9885 50.44 42.0286C50.4724 42.0587 50.4831 42.1489 50.4508 42.2191ZM20.5401 42.5499C20.5078 42.6402 20.4539 42.6903 20.4323 42.6602C20.4 42.6301 20.4108 42.57 20.4539 42.5098C20.5509 42.3494 20.6156 42.3795 20.5401 42.5499ZM50.5047 42.8507C50.5371 42.981 50.5155 43.0713 50.4724 43.0412C50.3753 42.9911 50.3322 42.6001 50.4185 42.6001C50.44 42.6001 50.4831 42.7103 50.5047 42.8507ZM30.9345 44.6252C30.9021 44.6954 30.8806 44.6453 30.8806 44.5049C30.8806 44.3646 30.9021 44.3145 30.9345 44.3746C30.956 44.4448 30.956 44.5651 30.9345 44.6252ZM49.6205 46.5502C49.6205 46.5803 49.5774 46.6304 49.5127 46.6605C49.4588 46.6905 49.4049 46.6705 49.4049 46.6204C49.4049 46.5602 49.4588 46.5101 49.5127 46.5101C49.5774 46.5101 49.6205 46.5301 49.6205 46.5502ZM29.5004 48.1743C29.5328 48.2545 29.522 48.2947 29.4573 48.2646C29.3926 48.2345 29.3494 48.1643 29.3494 48.1042C29.3494 47.9638 29.4249 47.9939 29.5004 48.1743ZM34.8593 48.6456C34.7515 48.7358 34.7407 48.7258 34.8054 48.5854C34.8377 48.4851 34.9024 48.435 34.9348 48.4651C34.9671 48.4952 34.9348 48.5754 34.8593 48.6456ZM32.7675 49.979C32.7352 50.009 32.6381 50.0191 32.5626 49.989C32.4764 49.9589 32.5087 49.9288 32.6273 49.9288C32.7459 49.9188 32.8106 49.9489 32.7675 49.979ZM40.574 51.3525C40.4662 51.4427 40.4554 51.4327 40.5201 51.2923C40.5525 51.1921 40.6172 51.1419 40.6495 51.172C40.6819 51.2021 40.6495 51.2823 40.574 51.3525ZM53.8365 52.5957C53.9767 52.7561 53.9659 52.7661 53.8042 52.6358C53.6963 52.5656 53.6101 52.4854 53.6101 52.4653C53.6101 52.3851 53.6963 52.4353 53.8365 52.5957ZM13.2943 53.7587C13.1865 53.8489 13.1757 53.8389 13.2404 53.6985C13.2727 53.5982 13.3374 53.5481 13.3698 53.5782C13.4021 53.6083 13.3698 53.6885 13.2943 53.7587ZM43.1834 53.8689C44.2401 54.27 44.0244 55.4229 42.8491 55.7237C42.6335 55.7838 41.9434 55.834 41.318 55.834H40.1859L40.5633 55.5031C41.1132 55.0219 41.5552 54.5306 41.8464 54.0995C42.0512 53.7887 42.1483 53.7286 42.461 53.7286C42.6658 53.7286 42.9893 53.7887 43.1834 53.8689ZM37.8137 54.8314C37.7814 54.8815 37.6843 54.9317 37.6196 54.9317C37.5442 54.9317 37.5549 54.8916 37.652 54.8314C37.8568 54.7111 37.9 54.7111 37.8137 54.8314ZM23.0417 55.0319C23.074 55.0921 23.0309 55.1021 22.9446 55.072C22.7506 55.0018 22.7182 54.9317 22.8692 54.9317C22.9339 54.9317 23.0093 54.9718 23.0417 55.0319ZM18.5454 55.6435C18.513 55.7237 18.4699 55.6736 18.4268 55.5432C18.3836 55.3728 18.3944 55.3327 18.4807 55.4129C18.5346 55.463 18.5669 55.5733 18.5454 55.6435ZM23.9043 55.9443C24.0445 56.1448 23.9043 56.0946 23.6347 55.854C23.3867 55.6335 23.3867 55.6134 23.6024 55.7237C23.7318 55.7838 23.8719 55.8841 23.9043 55.9443ZM43.2589 55.834C43.1726 55.8841 43.0217 55.9242 42.9354 55.9242C42.8276 55.9242 42.8491 55.8941 42.9893 55.834C43.2804 55.7137 43.453 55.7137 43.2589 55.834ZM14.1138 55.9944C14.0814 56.0245 13.9844 56.0345 13.9089 56.0044C13.8226 55.9743 13.855 55.9443 13.9736 55.9443C14.0922 55.9342 14.1569 55.9643 14.1138 55.9944ZM35.3553 55.9944C35.323 56.0245 35.2259 56.0345 35.1504 56.0044C35.0642 55.9743 35.0965 55.9443 35.2151 55.9443C35.3337 55.9342 35.3984 55.9643 35.3553 55.9944ZM9.64982 57.3077C9.61747 57.3779 9.55278 57.408 9.49887 57.3779C9.34791 57.2977 9.38026 57.1674 9.55278 57.1674C9.63904 57.1674 9.68217 57.2275 9.64982 57.3077ZM50.1273 57.8993C50.095 57.9293 49.9979 57.9394 49.9225 57.9093C49.8362 57.8792 49.8685 57.8491 49.9872 57.8491C50.1058 57.8391 50.1705 57.8692 50.1273 57.8993ZM40.3799 58.0095C40.1212 58.0296 39.7114 58.0296 39.4634 58.0095C39.2047 57.9895 39.4095 57.9694 39.9163 57.9694C40.4231 57.9694 40.6279 57.9895 40.3799 58.0095ZM52.4995 57.9995C52.4671 58.0296 52.3701 58.0396 52.2946 58.0095C52.2083 57.9795 52.2407 57.9494 52.3593 57.9494C52.4779 57.9394 52.5426 57.9694 52.4995 57.9995ZM38.0078 58.2101C37.8676 58.2301 37.652 58.2301 37.5226 58.2101C37.3824 58.19 37.4902 58.17 37.7598 58.17C38.0294 58.17 38.1372 58.19 38.0078 58.2101Z" fill="#65A30D"/>
<path d="M12.4085 17.5849C12.0011 17.6928 11.55 18.0883 11.55 18.34C11.55 18.5846 11.9574 18.901 12.423 19.0232C12.9323 19.1527 13.2088 19.1599 13.0633 19.0376C12.9905 18.9729 13.0051 18.9729 13.1506 19.0376C13.5143 19.203 14.4601 18.901 14.7366 18.5198C14.9112 18.2753 14.8966 18.225 14.6056 17.9445C14.14 17.4914 13.267 17.3548 12.4085 17.5849Z" fill="#65A30D"/>
<path d="M53.3824 22.5606C52.7915 22.8914 52.6096 24.2435 53.0263 25.1928C53.2157 25.6387 53.3066 25.725 53.5415 25.725C53.8824 25.725 54.1702 25.351 54.3369 24.6894C54.496 24.0996 54.4884 23.8839 54.3066 23.3085C54.1854 22.9346 53.7309 22.3592 53.6096 22.4311C53.5945 22.4311 53.496 22.4887 53.3824 22.5606ZM54.2309 23.4236C54.2309 23.4955 54.2157 23.5675 54.2006 23.5675C54.1778 23.5675 54.1399 23.4955 54.1172 23.4236C54.0945 23.3373 54.1096 23.2798 54.1475 23.2798C54.193 23.2798 54.2309 23.3373 54.2309 23.4236ZM54.1248 24.977C53.996 25.2072 53.9884 25.2072 54.0869 24.9051C54.1399 24.7325 54.2006 24.6175 54.2233 24.6606C54.246 24.6894 54.2006 24.8332 54.1248 24.977ZM53.2536 25.2503C53.3521 25.4805 53.3445 25.4949 53.2308 25.3079C53.1551 25.2072 53.0945 25.0921 53.0945 25.0634C53.0945 24.9483 53.1551 25.0202 53.2536 25.2503ZM53.6475 25.538C53.5945 25.5668 53.5036 25.5668 53.4581 25.538C53.4051 25.4949 53.443 25.4661 53.549 25.4661C53.6551 25.4661 53.693 25.4949 53.6475 25.538Z" fill="#65A30D"/>
<path d="M55.1263 40.7237C54.9265 40.8267 54.7552 41.0555 54.622 41.4102C54.4032 41.9365 54.4032 41.9365 54.565 43.1149C54.8123 44.8882 54.8409 45.7463 54.7077 47.348C54.603 48.5493 54.603 48.8583 54.7077 49.0871C54.7743 49.2358 54.8789 49.3388 54.9265 49.293C54.9836 49.2587 54.9931 49.2816 54.955 49.3617C54.8504 49.5676 55.288 49.9337 55.64 49.9451C56.6485 49.9566 57.2003 48.6638 57.2003 46.3184C57.2003 45.6777 57.1717 45.0942 57.1337 45.0255C57.1051 44.9683 57.1242 44.9111 57.1812 44.9111C57.2383 44.9111 57.3144 45.0026 57.343 45.1056C57.381 45.22 57.4381 45.3344 57.4762 45.3688C57.5428 45.426 57.8567 46.0667 58.0945 46.6273C58.6083 47.8171 58.6463 50.0481 58.1897 51.2837C57.8757 52.1075 57.7711 52.2333 57.1622 52.5079C56.6485 52.7367 56.3535 53.1143 56.2679 53.6749C56.1918 54.1554 56.2679 54.5215 56.4867 54.819C57.0195 55.5283 57.5332 55.6084 58.38 55.0936C59.9402 54.144 60.825 52.2677 61.0343 49.4303C61.158 47.737 60.5396 45.3116 59.6072 43.8128C58.8652 42.6229 57.4191 41.1356 57.1812 41.3072C57.1242 41.353 57.0956 41.3187 57.1051 41.2386C57.1432 41.0441 56.1823 40.575 55.7542 40.575C55.5734 40.575 55.288 40.6436 55.1263 40.7237ZM59.6167 44.2933C59.6263 44.4535 59.6167 44.5564 59.5882 44.5221C59.5501 44.4878 59.5121 44.3162 59.5026 44.156C59.4835 43.9958 59.5026 43.8814 59.5311 43.9272C59.5597 43.9615 59.5977 44.1217 59.6167 44.2933ZM59.7785 53.0914C59.7499 53.1944 59.7024 53.2516 59.6833 53.2173C59.6548 53.1829 59.6643 53.1143 59.7024 53.0456C59.788 52.8626 59.8451 52.8969 59.7785 53.0914Z" fill="#65A30D"/>
</svg>
