<svg width="66" height="62" viewBox="0 0 66 62" fill="none" xmlns="http://www.w3.org/2000/svg">
<path d="M19.5698 5.61657C19.1708 5.85719 18.8473 6.26824 18.9552 6.42865C18.9983 6.4888 18.9875 6.50885 18.912 6.46875C18.718 6.35847 16.9928 9.21579 17.1006 9.48648C17.1329 9.56669 17.1221 9.59677 17.0574 9.56669C17.0035 9.53661 16.9065 9.60679 16.8418 9.71708C16.7448 9.88751 16.6154 9.91759 15.8929 9.91759C13.7257 9.91759 11.3643 10.6795 10.0273 11.8024C9.70378 12.0731 9.63909 12.1734 9.74691 12.2536C9.85474 12.3238 9.84395 12.3338 9.71456 12.2937C9.60674 12.2636 9.42344 12.3438 9.2617 12.5042C8.90588 12.8651 8.2158 13.8477 8.2158 13.998C8.2158 14.1484 8.14032 14.1685 6.23182 14.4793C4.24784 14.8001 3.73028 15.0106 3.44993 15.5921C3.25585 16.0032 3.25585 16.0633 3.41758 16.6549C3.51463 17.0058 3.6548 17.6273 3.74106 18.0484C3.94593 19.1412 4.16158 19.7428 4.61444 20.5448C5.29374 21.7479 6.2426 22.3595 8.22658 22.9009C9.33718 23.2016 9.80082 23.3821 10.1566 23.6628C10.4154 23.8633 10.4262 23.9235 10.4154 24.896C10.4046 26.059 10.2429 26.5101 9.40187 27.7032C8.86275 28.4651 8.43145 29.3674 8.14032 30.3901C7.9031 31.1821 7.88154 34.1096 8.08641 35.0319C8.49614 36.7764 9.61752 39.2929 9.85474 38.9821C9.941 38.8718 9.95178 38.8818 9.89787 39.0222C9.82239 39.2327 10.0812 39.6337 10.2106 39.5134C10.2645 39.4733 10.2645 39.4934 10.2321 39.5535C10.189 39.6137 10.3292 40.0247 10.534 40.4558C11.1379 41.7692 11.181 42.2003 11.1702 46.7119C11.1702 48.9476 11.1379 50.9327 11.0947 51.1232C11.03 51.4039 10.9114 51.5342 10.4693 51.7749C9.693 52.1959 9.17544 52.7874 8.87353 53.5694C8.65788 54.1409 8.62553 54.3715 8.66866 55.2638C8.70101 56.136 8.74414 56.3566 8.98135 56.7376C9.13231 56.9882 9.31561 57.1787 9.38031 57.1687C9.45578 57.1486 9.49891 57.1987 9.47735 57.2589C9.46657 57.3291 9.70378 57.4995 9.99491 57.6399C10.5125 57.8805 10.6095 57.8905 12.6366 57.8905C14.653 57.8905 14.7716 57.8705 15.591 57.6098C17.8877 56.8579 19.0199 55.4443 19.807 52.3463C19.9579 51.7749 20.0765 51.2134 20.0765 51.1031C20.0765 50.8124 20.3569 51.043 20.4539 51.4039C20.5725 51.8551 21.5645 53.4491 22.0282 53.9304C22.2762 54.181 22.4379 54.3013 22.4056 54.2011C22.3624 54.0908 22.384 54.0407 22.4595 54.0808C22.5134 54.1209 22.535 54.2311 22.5026 54.3214C22.384 54.6823 24.3464 56.1661 25.8991 56.888C28.7888 58.2314 32.4333 58.5823 35.7543 57.8504C36.4552 57.69 36.6169 57.69 36.9727 57.8003C37.2746 57.9005 38.1265 57.9407 40.1428 57.9407C42.8061 57.9407 42.9355 57.9306 43.7334 57.69C44.6606 57.4093 45.286 56.9982 45.5879 56.4869C45.7712 56.1561 45.7928 56.1461 46.03 56.2964C46.1702 56.3766 46.3427 56.4167 46.4074 56.3766C46.4829 56.3365 46.4937 56.3466 46.4505 56.4167C46.3427 56.5872 47.4102 57.1687 48.3806 57.4594C49.4804 57.7903 51.1301 57.9908 52.2192 57.9106C54.1816 57.7702 55.2167 56.7275 55.2275 54.8928C55.2275 53.6898 54.8501 52.7874 54.0199 52.0656C53.6533 51.7548 53.4376 51.6245 53.3082 51.6746C53.2112 51.7047 53.168 51.7047 53.2112 51.6646C53.3082 51.5743 52.9308 51.3939 52.2839 51.2335C51.6693 51.0731 51.583 50.9427 51.1948 49.6594C50.4616 47.1831 50.3107 43.9949 50.8498 41.9497C51.2272 40.5361 51.8526 39.2628 52.6289 38.3906C54.6776 36.0546 55.3785 34.7512 55.7343 32.6057C55.8637 31.7936 55.8852 31.3726 55.8098 30.7209L55.7127 29.8787L56.0362 29.7584C58.1496 29.0266 59.3788 28.1543 60.2198 26.7908C60.6403 26.1191 61.05 25.0063 61.05 24.5651C61.0393 24.2042 60.705 23.5525 60.36 23.2618C60.1335 23.0713 60.0796 22.9209 60.0796 22.57C60.0796 21.9584 59.7022 20.8255 59.2494 20.0636C58.872 19.442 57.287 17.8379 57.039 17.8379C56.9743 17.8379 56.7478 17.7176 56.5537 17.5772C56.3489 17.4369 56.0685 17.3065 55.9284 17.2965C55.7882 17.2965 55.6911 17.2664 55.7235 17.2464C55.7451 17.2263 55.6911 17.1561 55.5941 17.086C55.4324 16.9857 55.4324 16.9255 55.6049 16.4142C55.7127 16.1135 55.7666 15.7525 55.7343 15.6122C55.6372 15.2613 55.2706 14.8502 54.8825 14.6698C54.1816 14.3289 53.5023 14.6998 52.4672 15.9932L51.8957 16.725L50.7851 16.7551C49.5559 16.7952 49.6529 16.8253 48.5208 16.0232C47.5935 15.3615 46.3427 14.6698 45.9222 14.5795C45.4693 14.4693 44.9302 14.6096 44.5744 14.9104C43.5501 15.8027 41.6523 19.5824 40.9407 22.1489C40.9083 22.2893 40.8113 22.6201 40.725 22.9009C40.6496 23.1716 40.4555 23.9636 40.2937 24.6554C40.1428 25.3471 39.9703 25.9487 39.9164 25.9988C39.7654 26.1392 33.1665 25.8985 32.0775 25.7081C30.7512 25.4775 29.4897 25.0764 28.7457 24.6453C28.3791 24.4248 28.0125 24.2644 27.937 24.2744C27.8615 24.2944 27.7968 24.2343 27.786 24.144C27.786 23.9435 27.1499 23.4322 27.0313 23.5325C26.9773 23.5726 26.9773 23.5525 27.0205 23.4823C27.0636 23.4122 26.9234 23.1415 26.7186 22.8808C25.7374 21.6075 25.3923 20.3042 25.2521 17.2865C25.1982 16.1836 25.1012 14.8302 25.0257 14.2788C24.9179 13.3363 24.4542 11.3914 24.2817 11.1708C24.2494 11.1106 24.1523 10.87 24.0769 10.6194C23.7534 9.53661 22.1037 6.80963 21.2734 5.97749C20.6912 5.38598 20.1412 5.2757 19.5698 5.61657ZM21.0793 6.0577C21.0038 6.26824 20.9499 6.24819 20.9715 6.0176C20.9715 5.90731 21.0254 5.83714 21.0685 5.86721C21.1117 5.89729 21.1225 5.97749 21.0793 6.0577ZM21.047 10.5993C21.8988 12.3939 22.1899 13.8376 22.3409 17.0358C22.4271 19.1111 22.5781 20.5749 22.7398 20.9459C22.7722 21.0261 22.8261 21.1865 22.8477 21.2967C22.9123 21.6677 23.5054 23.1114 23.7426 23.5124C24.3464 24.505 24.8748 25.1566 25.0257 25.1065C25.1228 25.0764 25.1551 25.0764 25.1228 25.1165C25.0042 25.2168 25.2521 25.5677 25.3815 25.4975C25.4462 25.4574 25.4678 25.4674 25.4355 25.5276C25.3492 25.6579 25.7158 25.9787 25.9099 25.9386C25.9854 25.9186 26.0501 25.9587 26.0608 26.0289C26.0608 26.2093 26.9773 26.8209 27.8507 27.2219C29.673 28.0741 31.7109 28.4852 34.7839 28.6255C36.3689 28.6957 36.7355 28.7859 35.9268 28.9062C34.7407 29.0767 30.1905 30.7209 29.3603 31.2623C29.1878 31.3826 29.0045 31.4728 28.9613 31.4728C28.7672 31.4728 27.7429 32.2147 27.8076 32.305C27.8399 32.3651 27.8184 32.3751 27.7429 32.335C27.5488 32.2248 25.7805 33.5381 24.9826 34.3803C24.8101 34.5708 24.5836 34.7913 24.4974 34.8816C23.8504 35.5032 23.3005 36.1949 23.376 36.2952C23.4191 36.3654 23.4083 36.3854 23.3436 36.3553C23.2466 36.2952 22.3409 37.4782 22.3409 37.6587C22.3409 37.6888 22.2762 37.799 22.1899 37.8792C21.8988 38.19 20.8205 40.5461 20.4539 41.689C20.0334 43.0124 19.6452 45.2782 19.6452 46.4612C19.6452 46.9024 19.5913 47.3335 19.5374 47.4137C19.4727 47.5139 19.4296 47.524 19.4296 47.4337C19.4296 47.2633 18.7395 47.2733 18.3621 47.4638C17.9847 47.6443 17.7691 48.0653 17.6181 48.9175C17.5534 49.2785 17.4133 50.0204 17.3162 50.5718C16.8634 53.1584 16.1625 54.5419 15.0519 55.0432C14.599 55.2437 14.3187 55.2838 12.9817 55.3139L11.4398 55.364L11.4829 54.7224C11.5152 54.2712 11.5692 54.0908 11.6662 54.1108C11.7417 54.1209 11.8495 54.0707 11.925 53.9905C11.9897 53.9003 12.3563 53.7299 12.7337 53.6096C13.6825 53.2988 13.8227 53.0581 13.9413 51.5944C14.2001 48.1656 14.1462 41.6088 13.8443 41.3983C13.8011 41.3682 13.7688 41.1977 13.758 41.0173C13.7472 40.6163 13.3806 39.5936 13.2512 39.5936C13.2081 39.5936 13.1973 39.5435 13.2297 39.4934C13.2728 39.4332 13.2081 39.2427 13.0895 39.0623C12.8738 38.7415 12.5288 38.16 11.9681 37.2175C11.2133 35.9543 10.8467 34.5006 10.8144 32.6759C10.7928 31.6032 10.8252 31.2723 11.0192 30.6507C11.1486 30.2497 11.3104 29.8687 11.3643 29.7985C11.677 29.4376 12.1945 28.5253 12.1298 28.435C12.0975 28.3749 12.1191 28.3649 12.1838 28.405C12.3563 28.5052 13.1326 26.9412 13.0032 26.7507C12.9817 26.7106 13.0032 26.6505 13.0571 26.6204C13.2404 26.5101 13.4237 25.1165 13.359 24.2243C13.3159 23.5525 13.2297 23.2217 12.9924 22.7806C12.7337 22.2793 12.1406 21.6276 11.6554 21.2967C11.2457 21.016 9.93021 20.5448 8.87353 20.2942C8.03249 20.0937 7.40711 19.8129 7.31007 19.5924C7.27772 19.5022 7.20224 19.462 7.13755 19.4921C7.07285 19.5322 7.06207 19.4821 7.1052 19.3818C7.15911 19.2515 7.13755 19.2315 7.02972 19.2916C6.94346 19.3417 6.91111 19.3317 6.96503 19.2615C6.99737 19.2014 6.94346 18.8906 6.83564 18.5698C6.71703 18.2489 6.59842 17.7777 6.56607 17.5171L6.50138 17.0459L7.06207 16.9055C9.24014 16.3441 9.63909 16.2338 9.941 16.0834C10.1243 15.9932 10.3076 15.8428 10.3399 15.7525C10.3831 15.6623 10.437 15.5621 10.4801 15.532C10.5125 15.5019 10.685 15.2613 10.8467 14.9906C11.0732 14.6297 11.1163 14.4893 11.0192 14.4292C10.9222 14.379 10.9222 14.3389 11.0085 14.2888C11.0732 14.2487 11.1271 14.2687 11.1271 14.3389C11.1271 14.4191 11.2025 14.389 11.3427 14.2788C11.4613 14.1785 11.526 14.0582 11.4937 14.0081C11.4613 13.968 11.4721 13.9379 11.526 13.9479C11.5799 13.968 11.8387 13.8176 12.0975 13.6171C13.2836 12.7248 14.2756 12.4942 16.6801 12.5443L18.4053 12.5744L19.3218 10.9001C20.3892 8.95512 20.2599 8.97517 21.047 10.5993ZM18.7072 11.7723C18.6748 11.8626 18.6209 11.9127 18.5993 11.8826C18.567 11.8526 18.5778 11.7924 18.6209 11.7322C18.718 11.5718 18.7826 11.6019 18.7072 11.7723ZM22.5242 14.3489C22.4918 14.4292 22.4595 14.3991 22.4595 14.2888C22.4487 14.1785 22.481 14.1184 22.5134 14.1585C22.5457 14.1885 22.5565 14.2788 22.5242 14.3489ZM10.782 14.8302C10.7066 14.9405 10.6203 14.9806 10.5987 14.9204C10.5772 14.8603 10.6311 14.77 10.7066 14.7199C10.9222 14.5996 10.933 14.6096 10.782 14.8302ZM3.6548 16.8554C3.62245 16.9356 3.5901 16.9055 3.5901 16.7952C3.57932 16.6849 3.61167 16.6248 3.64402 16.6649C3.67636 16.695 3.68715 16.7852 3.6548 16.8554ZM49.4157 17.0659C49.3079 17.1561 49.2971 17.1461 49.3618 17.0058C49.3942 16.9055 49.4589 16.8554 49.4912 16.8854C49.5236 16.9155 49.4912 16.9957 49.4157 17.0659ZM46.774 18.0585C47.173 18.3492 47.5827 18.66 47.6797 18.7402C47.7768 18.8304 48.0356 19.0309 48.2512 19.1813L48.661 19.4721L50.1921 19.3818C52.3809 19.2515 54.6237 19.2816 54.5266 19.442C54.5051 19.4721 54.6884 19.5824 54.9364 19.6926C55.5618 19.9734 56.5753 20.8757 56.8341 21.377C57.2223 22.1389 57.2223 22.2993 56.8557 22.6101C56.6724 22.7605 56.4675 23.0512 56.392 23.2618C56.295 23.5926 56.3057 23.7029 56.5322 24.124C56.7263 24.4949 56.9203 24.6654 57.3301 24.8759C57.632 25.0263 57.9123 25.1667 57.9663 25.1867C58.0309 25.2068 58.0309 25.277 57.9663 25.3672C57.9123 25.4474 57.8692 25.5877 57.8692 25.678C57.8692 25.7782 57.8369 25.8484 57.8045 25.8284C57.7722 25.8183 57.535 25.9787 57.2977 26.1793C56.7694 26.6204 55.896 27.0415 54.8501 27.3723C53.8258 27.6831 53.3298 27.9839 53.071 28.4651C52.8661 28.8361 52.8553 28.9764 52.92 30.3901C53.0063 32.1847 52.8769 33.1672 52.4564 33.9792C52.2947 34.28 52.1653 34.5908 52.1761 34.651C52.1761 34.7212 52.1437 34.7613 52.1006 34.7312C52.0574 34.7011 51.8849 34.8715 51.7232 35.1122C51.5614 35.3427 51.3027 35.6535 51.1625 35.8039C51.0008 35.9643 50.9253 36.1147 50.9684 36.1949C51.0223 36.2651 51.0115 36.2952 50.9468 36.2551C50.7743 36.1548 50.1489 36.9368 50.2244 37.1574C50.2675 37.2877 50.2568 37.2978 50.1813 37.2075C50.1058 37.1073 49.998 37.1975 49.75 37.5584C48.4777 39.4132 47.7876 41.669 47.6258 44.5062C47.5504 45.8497 47.7013 47.8949 47.9493 48.8173C48.0248 49.118 48.1973 49.7697 48.3375 50.271C48.6933 51.6245 49.1462 52.627 49.5559 52.988C49.9656 53.3489 50.9684 53.6597 51.4213 53.5795C51.6585 53.5394 51.6801 53.5494 51.5075 53.6096C51.3027 53.6998 51.3027 53.6998 51.5291 53.77C51.6693 53.8101 51.831 53.8101 51.8957 53.77C51.9712 53.7299 51.9927 53.7399 51.9496 53.8101C51.9173 53.8702 51.9496 53.9504 52.0359 54.0006C52.1976 54.0908 52.3809 54.6422 52.3809 55.0332C52.3701 55.2838 52.3594 55.2838 51.4536 55.2638C49.7823 55.2237 48.4022 54.7425 47.5611 53.9103C47.1191 53.4792 45.9546 51.825 45.9546 51.6345C45.9546 51.5543 45.9222 51.5242 45.8899 51.5543C45.8467 51.5944 45.7389 51.4741 45.6311 51.2936C45.4154 50.8926 44.6822 50.5417 43.9274 50.4515C43.5393 50.4114 43.3883 50.3612 43.453 50.281C43.6687 50.0204 43.852 48.6869 43.8412 47.4638C43.8412 46.4612 43.7765 45.9599 43.5932 45.2882C43.1727 43.7643 42.364 42.1502 42.1591 42.4209C42.0836 42.5111 42.0728 42.5011 42.116 42.3708C42.2022 42.1301 41.8141 41.6389 40.8652 40.7666C40.0673 40.0448 39.6144 39.744 38.5038 39.2227C37.3932 38.7114 36.5953 38.551 35.1181 38.551C33.9968 38.551 33.7056 38.5911 32.9832 38.8217C31.7756 39.2127 31.0424 39.6337 30.2121 40.4157C28.2066 42.3106 27.7429 45.0777 29.026 47.4137C29.3495 48.0052 30.6973 49.2584 30.9237 49.1782C31.01 49.1481 31.0639 49.1581 31.0316 49.2083C30.9992 49.2584 31.1717 49.3887 31.4305 49.499C32.3255 49.88 33.0695 50.0504 33.8458 50.0504C34.5251 50.0504 34.6653 50.0204 34.9995 49.7797C35.2152 49.6294 35.3877 49.4288 35.3877 49.3286C35.3877 49.2384 35.4416 49.108 35.5171 49.0378C35.7004 48.8674 35.4632 48.2157 35.0966 47.8949C34.7515 47.6042 34.2124 47.4137 33.7272 47.4137C33.3282 47.4137 32.6166 47.1229 32.1098 46.762C31.7971 46.5414 31.6462 46.3309 31.1717 45.3985C31.01 45.0877 31.1394 43.8746 31.3982 43.263C31.6785 42.5913 32.4009 41.8394 33.0802 41.5186C34.3957 40.897 36.4228 41.0273 37.8138 41.8294C38.9567 42.481 40.0673 43.7443 40.5094 44.9073C41.1995 46.7019 41.124 49.3186 40.3261 50.8826C40.1967 51.1432 40.0997 51.4139 40.0997 51.4841C40.0997 51.5643 40.0781 51.6044 40.0457 51.5743C40.0134 51.5543 39.8948 51.6946 39.7762 51.9052C39.3557 52.6471 38.3852 53.6296 37.4256 54.2813C35.1289 55.8553 30.762 56.0558 27.6782 54.7324C26.0932 54.0507 25.1443 53.3389 24.1416 52.1057C22.9986 50.6921 22.3301 48.2558 22.4918 46.1605C22.5997 44.8471 22.9555 42.9623 23.2682 42.1301C23.4191 41.7291 23.5054 41.3481 23.4623 41.278C23.4191 41.2078 23.4299 41.1977 23.5054 41.2378C23.5809 41.278 23.6348 41.2479 23.6348 41.1777C23.6348 40.9672 24.6591 39.0522 25.112 38.4206C25.6942 37.5785 26.2549 36.9669 27.3547 35.9343C28.53 34.8415 28.6163 34.7813 29.8131 34.0494C30.859 33.4178 31.6354 33.0368 32.6921 32.6358C33.0802 32.4854 33.49 32.325 33.6086 32.2749C33.7272 32.2248 34.3095 32.0443 34.9025 31.8638C37.0266 31.2422 38.148 30.8312 39.0537 30.3499C40.4663 29.608 41.5984 28.5353 42.2669 27.3122C42.5904 26.7407 43.3128 24.4649 43.205 24.3646C43.1727 24.3446 43.1942 24.2744 43.2481 24.2142C43.3021 24.1541 43.3991 23.8333 43.4746 23.5024C43.5393 23.1716 43.7657 22.4196 43.9706 21.8381C44.1754 21.2466 44.3264 20.7052 44.3048 20.6351C44.2833 20.5548 44.2833 20.5348 44.3156 20.5849C44.3911 20.7253 44.7793 19.7127 44.7146 19.5423C44.6714 19.462 44.6822 19.432 44.7253 19.4721C44.8008 19.5423 45.7389 17.8379 45.7389 17.6273C45.7389 17.4268 46.0732 17.5672 46.774 18.0585ZM57.5457 18.5397C57.5134 18.5898 57.4163 18.6399 57.3517 18.6399C57.2762 18.6399 57.287 18.5998 57.384 18.5397C57.5889 18.4194 57.632 18.4194 57.5457 18.5397ZM6.64155 18.7201C6.6739 18.7703 6.63077 18.8104 6.54451 18.8104C6.45825 18.8104 6.41512 18.7703 6.44747 18.7201C6.47981 18.68 6.52294 18.6399 6.54451 18.6399C6.56607 18.6399 6.6092 18.68 6.64155 18.7201ZM45.0596 18.8605C45.0273 18.9407 44.9949 18.9106 44.9949 18.8004C44.9841 18.6901 45.0165 18.6299 45.0488 18.67C45.0812 18.7001 45.0919 18.7903 45.0596 18.8605ZM55.4431 19.6425C55.3569 19.6926 55.3785 19.7327 55.5078 19.7829C55.6049 19.8129 55.6588 19.8731 55.6372 19.9032C55.6049 19.9333 55.4216 19.8731 55.2383 19.7628L54.904 19.5723H55.2275C55.4108 19.5723 55.5078 19.6024 55.4431 19.6425ZM41.3936 21.5674C41.3612 21.6476 41.3289 21.6176 41.3289 21.5073C41.3181 21.397 41.3504 21.3369 41.3828 21.377C41.4151 21.407 41.4259 21.4973 41.3936 21.5674ZM43.6579 21.6677C43.6255 21.7479 43.5932 21.7178 43.5932 21.6075C43.5824 21.4973 43.6147 21.4371 43.6471 21.4772C43.6794 21.5073 43.6902 21.5975 43.6579 21.6677ZM43.5932 22.3093C43.5393 22.4698 43.4854 22.5199 43.4854 22.4297C43.4746 22.2492 43.5932 21.9183 43.6471 21.9785C43.6687 21.9885 43.6363 22.1389 43.5932 22.3093ZM7.02972 22.2492C7.11598 22.2993 7.14833 22.3494 7.08363 22.3494C7.02972 22.3494 6.90033 22.2993 6.81407 22.2492C6.72781 22.1991 6.70625 22.1489 6.76016 22.1489C6.82485 22.1489 6.94346 22.1991 7.02972 22.2492ZM10.0488 23.2919C10.0488 23.3119 9.95178 23.3119 9.83317 23.2818C9.71456 23.2518 9.61752 23.1916 9.61752 23.1315C9.61752 23.0813 9.71456 23.0914 9.83317 23.1515C9.95178 23.2117 10.0488 23.2718 10.0488 23.2919ZM60.1982 23.3219C60.3384 23.4924 60.3384 23.4924 60.1335 23.352C60.0149 23.2718 59.8963 23.1916 59.8748 23.1816C59.8532 23.1615 59.8748 23.1515 59.9394 23.1515C60.0041 23.1515 60.1228 23.2317 60.1982 23.3219ZM27.4086 23.9034C27.5488 24.0438 27.6351 24.1541 27.6027 24.1541C27.5812 24.1541 27.441 24.0438 27.3008 23.9034C27.1607 23.7631 27.0744 23.6528 27.1067 23.6528C27.1283 23.6528 27.2685 23.7631 27.4086 23.9034ZM57.233 24.5451C57.1899 24.5952 57.2223 24.6654 57.2762 24.6854C57.3409 24.7155 57.3301 24.7255 57.2546 24.7155C57.0929 24.6854 57.0066 24.4548 57.1684 24.4548C57.233 24.4548 57.2654 24.4949 57.233 24.5451ZM57.9231 24.5551C57.8369 24.6052 57.7183 24.6554 57.6536 24.6554C57.5996 24.6554 57.6212 24.6052 57.7075 24.5551C57.7937 24.505 57.9231 24.4548 57.977 24.4548C58.0417 24.4548 58.0094 24.505 57.9231 24.5551ZM42.8492 25.1767C42.7629 25.2569 42.7521 25.2168 42.7953 25.0464C42.8384 24.916 42.8815 24.8659 42.9139 24.9461C42.9355 25.0163 42.9031 25.1266 42.8492 25.1767ZM25.8991 25.4975C25.8991 25.5176 25.8236 25.5677 25.7266 25.5978C25.6403 25.6278 25.5972 25.6178 25.6295 25.5577C25.6942 25.4574 25.8991 25.4173 25.8991 25.4975ZM10.5125 26.3597C10.4801 26.48 10.4262 26.5502 10.3939 26.5201C10.3399 26.46 10.4478 26.1592 10.5233 26.1592C10.5448 26.1592 10.5448 26.2494 10.5125 26.3597ZM26.6 26.2595C26.6323 26.3096 26.6107 26.3597 26.5568 26.3597C26.4921 26.3597 26.4382 26.3096 26.4382 26.2595C26.4382 26.1993 26.4598 26.1592 26.4814 26.1592C26.5137 26.1592 26.5676 26.1993 26.6 26.2595ZM27.8076 26.8911C27.8831 26.8911 27.9154 26.9312 27.8831 26.9813C27.8507 27.0214 27.9154 27.0615 28.0233 27.0715C28.1311 27.0715 28.1634 27.1016 28.0987 27.1217C28.0233 27.1518 27.8076 27.0715 27.6135 26.9512C27.4086 26.841 27.344 26.7708 27.4626 26.8109C27.5812 26.851 27.7321 26.8911 27.8076 26.8911ZM41.7817 27.8736C41.6847 27.9638 41.6523 27.9438 41.6739 27.7834C41.6847 27.643 41.7278 27.6029 41.7925 27.6631C41.868 27.7332 41.8572 27.8034 41.7817 27.8736ZM9.41265 27.9939C9.30483 28.0841 9.29405 28.0741 9.35874 27.9338C9.39109 27.8335 9.45578 27.7834 9.48813 27.8134C9.52048 27.8435 9.48813 27.9237 9.41265 27.9939ZM9.52048 28.2947C9.41265 28.3849 9.40187 28.3749 9.46657 28.2345C9.49891 28.1343 9.56361 28.0841 9.59596 28.1142C9.6283 28.1443 9.59596 28.2245 9.52048 28.2947ZM8.61475 29.6883C8.5824 29.7685 8.55006 29.7384 8.55006 29.6281C8.53927 29.5178 8.57162 29.4577 8.60397 29.4978C8.63631 29.5278 8.6471 29.6181 8.61475 29.6883ZM11.2349 29.608C11.2349 29.6381 11.1918 29.6883 11.1271 29.7183C11.0732 29.7484 11.0192 29.7284 11.0192 29.6782C11.0192 29.6181 11.0732 29.5679 11.1271 29.5679C11.1918 29.5679 11.2349 29.588 11.2349 29.608ZM27.3008 32.7762C27.3008 32.8263 27.2469 32.8764 27.1822 32.8764C27.1283 32.8764 27.1067 32.8263 27.1391 32.7762C27.1714 32.716 27.2253 32.6759 27.2577 32.6759C27.2793 32.6759 27.3008 32.716 27.3008 32.7762ZM54.807 35.0119C54.6992 35.1021 54.6884 35.0921 54.7531 34.9517C54.7854 34.8515 54.8501 34.8014 54.8825 34.8314C54.9148 34.8615 54.8825 34.9417 54.807 35.0119ZM53.9983 36.5057C53.9012 36.626 53.8258 36.6762 53.8258 36.606C53.8258 36.4155 53.8689 36.3353 53.9659 36.3654C54.0199 36.3754 54.0306 36.2852 53.9875 36.1649C53.9336 35.9643 53.9444 35.9543 54.0414 36.1147C54.1277 36.2451 54.1169 36.3353 53.9983 36.5057ZM24.5297 38.942C24.4974 39.0322 24.4435 39.0823 24.4219 39.0522C24.3895 39.0222 24.4003 38.962 24.4435 38.9019C24.5405 38.7415 24.6052 38.7715 24.5297 38.942ZM32.3147 39.4733C32.2823 39.5034 32.1961 39.4733 32.1206 39.4031C32.0236 39.3029 32.0343 39.2929 32.1853 39.353C32.2931 39.3831 32.347 39.4433 32.3147 39.4733ZM51.3566 39.6237C51.2488 39.7139 51.238 39.7039 51.3027 39.5636C51.335 39.4633 51.3997 39.4132 51.4321 39.4433C51.4644 39.4733 51.4321 39.5535 51.3566 39.6237ZM11.6662 39.6337C11.6662 39.6638 11.6231 39.7139 11.5584 39.744C11.5045 39.7741 11.4505 39.754 11.4505 39.7039C11.4505 39.6438 11.5045 39.5936 11.5584 39.5936C11.6231 39.5936 11.6662 39.6137 11.6662 39.6337ZM24.0445 39.9846C23.969 40.0749 23.9043 40.1551 23.8936 40.1751C23.8828 40.1852 23.8828 40.0648 23.8936 39.9044C23.9043 39.6839 23.9367 39.6337 24.0445 39.7139C24.1523 39.7941 24.1523 39.8543 24.0445 39.9846ZM13.359 40.3155C13.3267 40.3957 13.2944 40.3656 13.2944 40.2553C13.2836 40.145 13.3159 40.0849 13.3483 40.125C13.3806 40.1551 13.3914 40.2453 13.359 40.3155ZM50.4509 41.7191C50.4185 41.7993 50.3862 41.7692 50.3862 41.6589C50.3754 41.5486 50.4077 41.4885 50.4401 41.5286C50.4724 41.5587 50.4832 41.6489 50.4509 41.7191ZM20.5402 42.0499C20.5078 42.1402 20.4539 42.1903 20.4324 42.1602C20.4 42.1301 20.4108 42.07 20.4539 42.0098C20.551 41.8494 20.6157 41.8795 20.5402 42.0499ZM50.5048 42.3507C50.5371 42.481 50.5155 42.5713 50.4724 42.5412C50.3754 42.4911 50.3322 42.1001 50.4185 42.1001C50.4401 42.1001 50.4832 42.2103 50.5048 42.3507ZM30.9345 44.1252C30.9022 44.1954 30.8806 44.1453 30.8806 44.0049C30.8806 43.8646 30.9022 43.8145 30.9345 43.8746C30.9561 43.9448 30.9561 44.0651 30.9345 44.1252ZM49.6206 46.0502C49.6206 46.0803 49.5775 46.1304 49.5128 46.1605C49.4589 46.1905 49.4049 46.1705 49.4049 46.1204C49.4049 46.0602 49.4589 46.0101 49.5128 46.0101C49.5775 46.0101 49.6206 46.0301 49.6206 46.0502ZM29.5005 47.6743C29.5328 47.7545 29.522 47.7947 29.4573 47.7646C29.3926 47.7345 29.3495 47.6643 29.3495 47.6042C29.3495 47.4638 29.425 47.4939 29.5005 47.6743ZM34.8594 48.1455C34.7515 48.2358 34.7407 48.2258 34.8054 48.0854C34.8378 47.9851 34.9025 47.935 34.9348 47.9651C34.9672 47.9952 34.9348 48.0754 34.8594 48.1455ZM32.7676 49.479C32.7352 49.509 32.6382 49.5191 32.5627 49.489C32.4764 49.4589 32.5088 49.4288 32.6274 49.4288C32.746 49.4188 32.8107 49.4489 32.7676 49.479ZM40.5741 50.8525C40.4663 50.9427 40.4555 50.9327 40.5202 50.7923C40.5525 50.6921 40.6172 50.6419 40.6496 50.672C40.6819 50.7021 40.6496 50.7823 40.5741 50.8525ZM53.8366 52.0957C53.9767 52.2561 53.9659 52.2661 53.8042 52.1358C53.6964 52.0656 53.6101 51.9854 53.6101 51.9653C53.6101 51.8851 53.6964 51.9353 53.8366 52.0957ZM13.2944 53.2587C13.1865 53.3489 13.1757 53.3389 13.2404 53.1985C13.2728 53.0982 13.3375 53.0481 13.3698 53.0782C13.4022 53.1083 13.3698 53.1885 13.2944 53.2587ZM43.1834 53.3689C44.2401 53.77 44.0245 54.9229 42.8492 55.2237C42.6335 55.2838 41.9435 55.334 41.3181 55.334H40.1859L40.5633 55.0031C41.1132 54.5219 41.5553 54.0306 41.8464 53.5995C42.0513 53.2887 42.1483 53.2286 42.461 53.2286C42.6659 53.2286 42.9894 53.2887 43.1834 53.3689ZM37.8138 54.3314C37.7814 54.3815 37.6844 54.4317 37.6197 54.4317C37.5442 54.4317 37.555 54.3916 37.652 54.3314C37.8569 54.2111 37.9 54.2111 37.8138 54.3314ZM23.0417 54.5319C23.0741 54.5921 23.031 54.6021 22.9447 54.572C22.7506 54.5018 22.7183 54.4317 22.8692 54.4317C22.9339 54.4317 23.0094 54.4718 23.0417 54.5319ZM18.5454 55.1435C18.5131 55.2237 18.47 55.1736 18.4268 55.0432C18.3837 54.8728 18.3945 54.8327 18.4807 54.9129C18.5347 54.963 18.567 55.0733 18.5454 55.1435ZM23.9043 55.4443C24.0445 55.6448 23.9043 55.5946 23.6348 55.354C23.3868 55.1335 23.3868 55.1134 23.6024 55.2237C23.7318 55.2838 23.872 55.3841 23.9043 55.4443ZM43.2589 55.334C43.1727 55.3841 43.0217 55.4242 42.9355 55.4242C42.8276 55.4242 42.8492 55.3941 42.9894 55.334C43.2805 55.2137 43.453 55.2137 43.2589 55.334ZM14.1138 55.4944C14.0815 55.5245 13.9844 55.5345 13.909 55.5044C13.8227 55.4743 13.855 55.4443 13.9737 55.4443C14.0923 55.4342 14.157 55.4643 14.1138 55.4944ZM35.3554 55.4944C35.323 55.5245 35.226 55.5345 35.1505 55.5044C35.0642 55.4743 35.0966 55.4443 35.2152 55.4443C35.3338 55.4342 35.3985 55.4643 35.3554 55.4944ZM9.64987 56.8077C9.61752 56.8779 9.55283 56.908 9.49891 56.8779C9.34796 56.7977 9.38031 56.6674 9.55283 56.6674C9.63909 56.6674 9.68222 56.7275 9.64987 56.8077ZM50.1274 57.3993C50.095 57.4293 49.998 57.4394 49.9225 57.4093C49.8362 57.3792 49.8686 57.3491 49.9872 57.3491C50.1058 57.3391 50.1705 57.3692 50.1274 57.3993ZM40.38 57.5095C40.1212 57.5296 39.7115 57.5296 39.4635 57.5095C39.2047 57.4895 39.4096 57.4694 39.9164 57.4694C40.4231 57.4694 40.628 57.4895 40.38 57.5095ZM52.4995 57.4995C52.4672 57.5296 52.3701 57.5396 52.2947 57.5095C52.2084 57.4795 52.2407 57.4494 52.3594 57.4494C52.478 57.4394 52.5427 57.4694 52.4995 57.4995ZM38.0078 57.7101C37.8677 57.7301 37.652 57.7301 37.5226 57.7101C37.3825 57.69 37.4903 57.67 37.7598 57.67C38.0294 57.67 38.1372 57.69 38.0078 57.7101Z" fill="#65A30D"/>
<path d="M12.4085 17.0849C12.0011 17.1928 11.55 17.5883 11.55 17.84C11.55 18.0846 11.9575 18.401 12.4231 18.5232C12.9323 18.6527 13.2088 18.6599 13.0633 18.5376C12.9906 18.4729 13.0051 18.4729 13.1506 18.5376C13.5144 18.703 14.4602 18.401 14.7366 18.0198C14.9112 17.7753 14.8967 17.725 14.6057 17.4445C14.14 16.9914 13.267 16.8548 12.4085 17.0849Z" fill="#65A30D"/>
<path d="M53.3824 22.0606C52.7915 22.3914 52.6097 23.7435 53.0263 24.6928C53.2157 25.1387 53.3067 25.225 53.5415 25.225C53.8824 25.225 54.1703 24.851 54.337 24.1894C54.4961 23.5996 54.4885 23.3839 54.3067 22.8085C54.1854 22.4346 53.7309 21.8592 53.6097 21.9311C53.5945 21.9311 53.496 21.9887 53.3824 22.0606ZM54.2309 22.9236C54.2309 22.9955 54.2158 23.0675 54.2006 23.0675C54.1779 23.0675 54.14 22.9955 54.1173 22.9236C54.0945 22.8373 54.1097 22.7798 54.1476 22.7798C54.193 22.7798 54.2309 22.8373 54.2309 22.9236ZM54.1248 24.477C53.9961 24.7072 53.9885 24.7072 54.087 24.4051C54.14 24.2325 54.2006 24.1175 54.2233 24.1606C54.2461 24.1894 54.2006 24.3332 54.1248 24.477ZM53.2536 24.7503C53.3521 24.9805 53.3445 24.9949 53.2309 24.8079C53.1551 24.7072 53.0945 24.5921 53.0945 24.5634C53.0945 24.4483 53.1551 24.5202 53.2536 24.7503ZM53.6476 25.038C53.5945 25.0668 53.5036 25.0668 53.4582 25.038C53.4051 24.9949 53.443 24.9661 53.5491 24.9661C53.6551 24.9661 53.693 24.9949 53.6476 25.038Z" fill="#65A30D"/>
<path d="M55.1262 40.2237C54.9264 40.3267 54.7552 40.5555 54.622 40.9102C54.4032 41.4365 54.4032 41.4365 54.5649 42.6149C54.8123 44.3882 54.8408 45.2463 54.7076 46.848C54.603 48.0493 54.603 48.3583 54.7076 48.5871C54.7742 48.7358 54.8789 48.8388 54.9264 48.793C54.9835 48.7587 54.993 48.7816 54.955 48.8617C54.8503 49.0676 55.288 49.4337 55.64 49.4451C56.6484 49.4566 57.2002 48.1638 57.2002 45.8184C57.2002 45.1777 57.1717 44.5942 57.1336 44.5255C57.1051 44.4683 57.1241 44.4111 57.1812 44.4111C57.2383 44.4111 57.3144 44.5026 57.3429 44.6056C57.381 44.72 57.4381 44.8344 57.4761 44.8688C57.5427 44.926 57.8567 45.5667 58.0945 46.1273C58.6082 47.3171 58.6463 49.5481 58.1896 50.7837C57.8757 51.6075 57.771 51.7333 57.1622 52.0079C56.6484 52.2367 56.3535 52.6143 56.2679 53.1749C56.1918 53.6554 56.2679 54.0215 56.4867 54.319C57.0195 55.0283 57.5332 55.1084 58.3799 54.5936C59.9402 53.644 60.8249 51.7677 61.0342 48.9303C61.1579 47.237 60.5395 44.8116 59.6072 43.3128C58.8651 42.1229 57.419 40.6356 57.1812 40.8072C57.1241 40.853 57.0956 40.8187 57.1051 40.7386C57.1431 40.5441 56.1822 40.075 55.7541 40.075C55.5734 40.075 55.288 40.1436 55.1262 40.2237ZM59.6167 43.7933C59.6262 43.9535 59.6167 44.0564 59.5882 44.0221C59.5501 43.9878 59.512 43.8162 59.5025 43.656C59.4835 43.4958 59.5025 43.3814 59.5311 43.4272C59.5596 43.4615 59.5977 43.6217 59.6167 43.7933ZM59.7784 52.5914C59.7499 52.6944 59.7023 52.7516 59.6833 52.7173C59.6547 52.6829 59.6643 52.6143 59.7023 52.5456C59.7879 52.3626 59.845 52.3969 59.7784 52.5914Z" fill="#65A30D"/>
</svg>
