<svg width="30" height="38" viewBox="0 0 30 38" fill="none" xmlns="http://www.w3.org/2000/svg">
<g clip-path="url(#clip0_224_207)">
<path d="M17.9671 18.75C18.0218 18.7501 18.0753 18.7315 18.1209 18.6968C18.1665 18.662 18.2022 18.6125 18.2234 18.5545C18.2446 18.4966 18.2505 18.4327 18.2402 18.3709C18.2299 18.3091 18.204 18.2522 18.1657 18.2073L12.7208 11.8452C12.6822 11.8001 12.6326 11.7692 12.5786 11.7565C12.5246 11.7438 12.4685 11.7498 12.4175 11.7739C12.3665 11.7979 12.3228 11.8389 12.2921 11.8915C12.2614 11.9442 12.2451 12.0061 12.2451 12.0695V17.7923C12.2451 18.0463 12.3329 18.2899 12.4892 18.4695C12.6455 18.6491 12.8575 18.75 13.0785 18.75H17.9671Z" fill="#65A30D"/>
<path d="M10.4652 19.9595C10.1559 19.6623 9.91013 19.3085 9.7421 18.9184C9.57408 18.5282 9.48712 18.1095 9.48625 17.6865V10.9409H4.06447C2.78746 10.9446 1.56383 11.4402 0.660844 12.3194C-0.242144 13.1987 -0.751108 14.3901 -0.754883 15.6335V32.0574C-0.754883 33.302 -0.247131 34.4956 0.656674 35.3756C1.56048 36.2556 2.7863 36.75 4.06447 36.75H14.908C16.1862 36.75 17.412 36.2556 18.3158 35.3756C19.2196 34.4956 19.7274 33.302 19.7274 32.0574V20.9126H12.7996C12.365 20.912 11.935 20.8275 11.5343 20.6638C11.1335 20.5002 10.7702 20.2608 10.4652 19.9595ZM23.6431 9.18124H28.9436C29.003 9.18129 29.061 9.16427 29.1105 9.13233C29.1599 9.10038 29.1986 9.05492 29.2216 9.00166C29.2446 8.9484 29.2509 8.88971 29.2398 8.83296C29.2286 8.77621 29.2006 8.72392 29.159 8.68266L23.2553 2.8375C23.2133 2.79601 23.1597 2.76763 23.1011 2.75596C23.0425 2.74428 22.9817 2.74985 22.9264 2.77194C22.8711 2.79404 22.8237 2.83166 22.7905 2.88003C22.7572 2.92839 22.7394 2.98531 22.7395 3.04353V8.30139C22.7395 8.53474 22.8347 8.75853 23.0041 8.92354C23.1736 9.08854 23.4035 9.18124 23.6431 9.18124Z" fill="#65A30D"/>
<path d="M23.5877 11.6667C22.7452 11.6602 21.939 11.3201 21.3432 10.7198C20.7474 10.1195 20.4098 9.30723 20.4034 8.45833V1.75H12.5874C11.4361 1.75135 10.3325 2.21272 9.51841 3.0329C8.70437 3.85308 8.24646 4.96509 8.24512 6.125V8.75H11.2934C11.6825 8.75157 12.0674 8.83058 12.4261 8.98249C12.7848 9.1344 13.1101 9.35622 13.3834 9.63521L21.2834 17.729C21.8346 18.2924 22.1423 19.0525 22.1396 19.8435V29.75H25.9789C28.3316 29.75 30.2451 27.7871 30.2451 25.375V11.6667H23.5877Z" fill="#65A30D"/>
</g>
<defs>
<clipPath id="clip0_224_207">
<rect width="29" height="38" fill="white" transform="translate(0.5)"/>
</clipPath>
</defs>
</svg>
