<svg width="19" height="18" viewBox="0 0 19 18" fill="none" xmlns="http://www.w3.org/2000/svg">
<g clip-path="url(#clip0_222_160)">
<path d="M12.3125 9C12.3125 9.74592 12.0162 10.4613 11.4887 10.9887C10.9613 11.5162 10.2459 11.8125 9.5 11.8125C8.75408 11.8125 8.03871 11.5162 7.51126 10.9887C6.98382 10.4613 6.6875 9.74592 6.6875 9C6.6875 8.25408 6.98382 7.53871 7.51126 7.01126C8.03871 6.48382 8.75408 6.1875 9.5 6.1875C10.2459 6.1875 10.9613 6.48382 11.4887 7.01126C12.0162 7.53871 12.3125 8.25408 12.3125 9V9Z" fill="url(#paint0_linear_222_160)"/>
<path d="M0.5 9C0.5 9 3.875 2.8125 9.5 2.8125C15.125 2.8125 18.5 9 18.5 9C18.5 9 15.125 15.1875 9.5 15.1875C3.875 15.1875 0.5 9 0.5 9ZM9.5 12.9375C10.5443 12.9375 11.5458 12.5227 12.2842 11.7842C13.0227 11.0458 13.4375 10.0443 13.4375 9C13.4375 7.95571 13.0227 6.95419 12.2842 6.21577C11.5458 5.47734 10.5443 5.0625 9.5 5.0625C8.45571 5.0625 7.45419 5.47734 6.71577 6.21577C5.97734 6.95419 5.5625 7.95571 5.5625 9C5.5625 10.0443 5.97734 11.0458 6.71577 11.7842C7.45419 12.5227 8.45571 12.9375 9.5 12.9375Z" fill="url(#paint1_linear_222_160)"/>
</g>
<defs>
<linearGradient id="paint0_linear_222_160" x1="9.5" y1="6.1875" x2="9.5" y2="11.8125" gradientUnits="userSpaceOnUse">
<stop stop-color="#292739"/>
<stop offset="1"/>
</linearGradient>
<linearGradient id="paint1_linear_222_160" x1="9.5" y1="2.8125" x2="9.5" y2="15.1875" gradientUnits="userSpaceOnUse">
<stop stop-color="#292739"/>
<stop offset="1"/>
</linearGradient>
<clipPath id="clip0_222_160">
<rect width="18" height="18" fill="white" transform="translate(0.5)"/>
</clipPath>
</defs>
</svg>
