<svg width="17" height="16" viewBox="0 0 17 16" fill="none" xmlns="http://www.w3.org/2000/svg">
<g clip-path="url(#clip0_4_490)">
<path d="M5.5625 9H12.5625C12.8277 9 13.0821 8.89464 13.2696 8.70711C13.4571 8.51957 13.5625 8.26522 13.5625 8C13.5625 7.73478 13.4571 7.48043 13.2696 7.29289C13.0821 7.10536 12.8277 7 12.5625 7H3.5625C3.03207 7 2.52336 7.21071 2.14829 7.58579C1.77321 7.96086 1.5625 8.46957 1.5625 9C1.5625 9.53043 1.77321 10.0391 2.14829 10.4142C2.52336 10.7893 3.03207 11 3.5625 11H12.5625C13.3581 11 14.1212 10.6839 14.6838 10.1213C15.2464 9.55871 15.5625 8.79565 15.5625 8C15.5625 7.20435 15.2464 6.44129 14.6838 5.87868C14.1212 5.31607 13.3581 5 12.5625 5H5.5625" stroke="#374151" stroke-linecap="round" stroke-linejoin="round"/>
</g>
<defs>
<clipPath id="clip0_4_490">
<rect width="16" height="16" fill="white" transform="translate(0.5625)"/>
</clipPath>
</defs>
</svg>
