<svg width="17" height="16" viewBox="0 0 17 16" fill="none" xmlns="http://www.w3.org/2000/svg">
<g clip-path="url(#clip0_4_462)">
<path d="M7.23438 13.5V9.5H10.2344V13.5H14.2344V7.5C14.2344 7.43432 14.2215 7.36927 14.1964 7.30858C14.1713 7.24788 14.1345 7.19272 14.0881 7.14625L9.08813 2.14625C9.04169 2.09976 8.98654 2.06288 8.92585 2.03772C8.86515 2.01256 8.80008 1.99961 8.73438 1.99961C8.66867 1.99961 8.6036 2.01256 8.5429 2.03772C8.48221 2.06288 8.42706 2.09976 8.38062 2.14625L3.38063 7.14625C3.33421 7.19272 3.2974 7.24788 3.27231 7.30858C3.24721 7.36927 3.23432 7.43432 3.23438 7.5V13.5H7.23438Z" stroke="white" stroke-linecap="round" stroke-linejoin="round"/>
</g>
<defs>
<clipPath id="clip0_4_462">
<rect width="16" height="16" fill="white" transform="translate(0.734375)"/>
</clipPath>
</defs>
</svg>
