<svg width="16" height="16" viewBox="0 0 16 16" fill="none" xmlns="http://www.w3.org/2000/svg">
<g clip-path="url(#clip0_4_523)">
<path d="M6.5 13.5V9.5H9.5V13.5H13.5V7.5C13.5001 7.43432 13.4872 7.36927 13.4621 7.30857C13.437 7.24787 13.4002 7.19272 13.3538 7.14625L8.35375 2.14625C8.30731 2.09976 8.25217 2.06288 8.19147 2.03772C8.13077 2.01255 8.06571 1.9996 8 1.9996C7.93429 1.9996 7.86923 2.01255 7.80853 2.03772C7.74783 2.06288 7.69269 2.09976 7.64625 2.14625L2.64625 7.14625C2.59983 7.19272 2.56303 7.24787 2.53793 7.30857C2.51284 7.36927 2.49995 7.43432 2.5 7.5V13.5H6.5Z" stroke="#374151" stroke-linecap="round" stroke-linejoin="round"/>
</g>
<defs>
<clipPath id="clip0_4_523">
<rect width="16" height="16" fill="white"/>
</clipPath>
</defs>
</svg>
