<svg width="24" height="25" viewBox="0 0 24 25" fill="none" xmlns="http://www.w3.org/2000/svg">
<path d="M20.5153 10.2284L13.0153 3.15219C13.0116 3.14899 13.0082 3.14554 13.005 3.14188C12.7289 2.89075 12.369 2.75159 11.9958 2.75159C11.6225 2.75159 11.2627 2.89075 10.9866 3.14188L10.9763 3.15219L3.48469 10.2284C3.33187 10.369 3.20989 10.5397 3.12646 10.7298C3.04303 10.9199 2.99997 11.1252 3 11.3328V20C3 20.3978 3.15804 20.7794 3.43934 21.0607C3.72064 21.342 4.10218 21.5 4.5 21.5H9C9.39782 21.5 9.77936 21.342 10.0607 21.0607C10.342 20.7794 10.5 20.3978 10.5 20V15.5H13.5V20C13.5 20.3978 13.658 20.7794 13.9393 21.0607C14.2206 21.342 14.6022 21.5 15 21.5H19.5C19.8978 21.5 20.2794 21.342 20.5607 21.0607C20.842 20.7794 21 20.3978 21 20V11.3328C21 11.1252 20.957 10.9199 20.8735 10.7298C20.7901 10.5397 20.6681 10.369 20.5153 10.2284ZM19.5 20H15V15.5C15 15.1022 14.842 14.7206 14.5607 14.4393C14.2794 14.158 13.8978 14 13.5 14H10.5C10.1022 14 9.72064 14.158 9.43934 14.4393C9.15804 14.7206 9 15.1022 9 15.5V20H4.5V11.3328L4.51031 11.3234L12 4.25L19.4906 11.3216L19.5009 11.3309L19.5 20Z" fill="#064E3B"/>
</svg>
