<svg width="66" height="62" viewBox="0 0 66 62" fill="none" xmlns="http://www.w3.org/2000/svg">
<path d="M19.5698 5.61667C19.1708 5.85728 18.8473 6.26834 18.9552 6.42875C18.9983 6.4889 18.9875 6.50895 18.912 6.46885C18.718 6.35857 16.9928 9.21589 17.1006 9.48658C17.1329 9.56679 17.1221 9.59687 17.0574 9.56679C17.0035 9.53671 16.9065 9.60689 16.8418 9.71717C16.7448 9.88761 16.6154 9.91769 15.8929 9.91769C13.7257 9.91769 11.3643 10.6796 10.0273 11.8025C9.70378 12.0732 9.63909 12.1735 9.74691 12.2537C9.85474 12.3239 9.84395 12.3339 9.71456 12.2938C9.60674 12.2637 9.42344 12.3439 9.2617 12.5043C8.90588 12.8652 8.2158 13.8478 8.2158 13.9981C8.2158 14.1485 8.14032 14.1686 6.23182 14.4794C4.24784 14.8002 3.73028 15.0107 3.44993 15.5922C3.25585 16.0033 3.25585 16.0634 3.41758 16.655C3.51463 17.0059 3.6548 17.6274 3.74106 18.0485C3.94593 19.1413 4.16158 19.7429 4.61444 20.5449C5.29374 21.748 6.2426 22.3596 8.22658 22.901C9.33718 23.2017 9.80082 23.3822 10.1566 23.6629C10.4154 23.8634 10.4262 23.9236 10.4154 24.8961C10.4046 26.0591 10.2429 26.5102 9.40187 27.7033C8.86275 28.4652 8.43145 29.3675 8.14032 30.3902C7.9031 31.1822 7.88154 34.1097 8.08641 35.032C8.49614 36.7765 9.61752 39.293 9.85474 38.9822C9.941 38.8719 9.95178 38.8819 9.89787 39.0223C9.82239 39.2328 10.0812 39.6338 10.2106 39.5135C10.2645 39.4734 10.2645 39.4935 10.2321 39.5536C10.189 39.6138 10.3292 40.0248 10.534 40.4559C11.1379 41.7693 11.181 42.2004 11.1702 46.712C11.1702 48.9477 11.1379 50.9328 11.0947 51.1233C11.03 51.404 10.9114 51.5343 10.4693 51.7749C9.693 52.196 9.17544 52.7875 8.87353 53.5695C8.65788 54.141 8.62553 54.3716 8.66866 55.2639C8.70101 56.1361 8.74414 56.3567 8.98135 56.7377C9.13231 56.9883 9.31561 57.1788 9.38031 57.1688C9.45578 57.1487 9.49891 57.1988 9.47735 57.259C9.46657 57.3292 9.70378 57.4996 9.99491 57.64C10.5125 57.8806 10.6095 57.8906 12.6366 57.8906C14.653 57.8906 14.7716 57.8706 15.591 57.6099C17.8877 56.858 19.0199 55.4444 19.807 52.3464C19.9579 51.7749 20.0765 51.2135 20.0765 51.1032C20.0765 50.8125 20.3569 51.0431 20.4539 51.404C20.5725 51.8552 21.5645 53.4492 22.0282 53.9305C22.2762 54.1811 22.4379 54.3014 22.4056 54.2012C22.3624 54.0909 22.384 54.0408 22.4595 54.0809C22.5134 54.121 22.535 54.2312 22.5026 54.3215C22.384 54.6824 24.3464 56.1662 25.8991 56.8881C28.7888 58.2315 32.4333 58.5824 35.7543 57.8505C36.4552 57.6901 36.6169 57.6901 36.9727 57.8004C37.2746 57.9006 38.1265 57.9407 40.1428 57.9407C42.8061 57.9407 42.9355 57.9307 43.7334 57.6901C44.6606 57.4094 45.286 56.9983 45.5879 56.487C45.7712 56.1562 45.7928 56.1462 46.03 56.2965C46.1702 56.3767 46.3427 56.4168 46.4074 56.3767C46.4829 56.3366 46.4937 56.3467 46.4505 56.4168C46.3427 56.5873 47.4102 57.1688 48.3806 57.4595C49.4804 57.7904 51.1301 57.9909 52.2192 57.9107C54.1816 57.7703 55.2167 56.7276 55.2275 54.8929C55.2275 53.6899 54.8501 52.7875 54.0199 52.0657C53.6533 51.7549 53.4376 51.6246 53.3082 51.6747C53.2112 51.7048 53.168 51.7048 53.2112 51.6647C53.3082 51.5744 52.9308 51.394 52.2839 51.2336C51.6693 51.0732 51.583 50.9428 51.1948 49.6595C50.4616 47.1832 50.3107 43.995 50.8498 41.9498C51.2272 40.5361 51.8526 39.2629 52.6289 38.3907C54.6776 36.0547 55.3785 34.7513 55.7343 32.6058C55.8637 31.7937 55.8852 31.3727 55.8098 30.721L55.7127 29.8788L56.0362 29.7585C58.1496 29.0267 59.3788 28.1544 60.2198 26.7909C60.6403 26.1192 61.05 25.0064 61.05 24.5652C61.0393 24.2043 60.705 23.5526 60.36 23.2619C60.1335 23.0714 60.0796 22.921 60.0796 22.5701C60.0796 21.9585 59.7022 20.8256 59.2494 20.0637C58.872 19.4421 57.287 17.838 57.039 17.838C56.9743 17.838 56.7478 17.7177 56.5537 17.5773C56.3489 17.437 56.0685 17.3066 55.9284 17.2966C55.7882 17.2966 55.6911 17.2665 55.7235 17.2465C55.7451 17.2264 55.6911 17.1562 55.5941 17.0861C55.4324 16.9858 55.4324 16.9256 55.6049 16.4143C55.7127 16.1136 55.7666 15.7526 55.7343 15.6123C55.6372 15.2614 55.2706 14.8503 54.8825 14.6699C54.1816 14.329 53.5023 14.6999 52.4672 15.9933L51.8957 16.7251L50.7851 16.7552C49.5559 16.7953 49.6529 16.8254 48.5208 16.0233C47.5935 15.3616 46.3427 14.6699 45.9222 14.5796C45.4693 14.4694 44.9302 14.6097 44.5744 14.9105C43.5501 15.8028 41.6523 19.5825 40.9407 22.149C40.9083 22.2894 40.8113 22.6202 40.725 22.901C40.6496 23.1717 40.4555 23.9637 40.2937 24.6555C40.1428 25.3472 39.9703 25.9488 39.9164 25.9989C39.7654 26.1393 33.1665 25.8986 32.0775 25.7082C30.7512 25.4776 29.4897 25.0765 28.7457 24.6454C28.3791 24.4249 28.0125 24.2645 27.937 24.2745C27.8615 24.2945 27.7968 24.2344 27.786 24.1441C27.786 23.9436 27.1499 23.4323 27.0313 23.5326C26.9773 23.5727 26.9773 23.5526 27.0205 23.4824C27.0636 23.4123 26.9234 23.1416 26.7186 22.8809C25.7374 21.6076 25.3923 20.3043 25.2521 17.2866C25.1982 16.1837 25.1012 14.8303 25.0257 14.2789C24.9179 13.3364 24.4542 11.3915 24.2817 11.1709C24.2494 11.1107 24.1523 10.8701 24.0769 10.6195C23.7534 9.53671 22.1037 6.80973 21.2734 5.97759C20.6912 5.38608 20.1412 5.27579 19.5698 5.61667ZM21.0793 6.0578C21.0038 6.26834 20.9499 6.24829 20.9715 6.0177C20.9715 5.90741 21.0254 5.83723 21.0685 5.86731C21.1117 5.89739 21.1225 5.97759 21.0793 6.0578ZM21.047 10.5994C21.8988 12.394 22.1899 13.8377 22.3409 17.0359C22.4271 19.1112 22.5781 20.575 22.7398 20.9459C22.7722 21.0262 22.8261 21.1866 22.8477 21.2968C22.9123 21.6678 23.5054 23.1115 23.7426 23.5125C24.3464 24.5051 24.8748 25.1567 25.0257 25.1066C25.1228 25.0765 25.1551 25.0765 25.1228 25.1166C25.0042 25.2169 25.2521 25.5678 25.3815 25.4976C25.4462 25.4575 25.4678 25.4675 25.4355 25.5277C25.3492 25.658 25.7158 25.9788 25.9099 25.9387C25.9854 25.9187 26.0501 25.9588 26.0608 26.029C26.0608 26.2094 26.9773 26.821 27.8507 27.222C29.673 28.0742 31.7109 28.4853 34.7839 28.6256C36.3689 28.6958 36.7355 28.786 35.9268 28.9063C34.7407 29.0768 30.1905 30.721 29.3603 31.2624C29.1878 31.3827 29.0045 31.4729 28.9613 31.4729C28.7672 31.4729 27.7429 32.2148 27.8076 32.3051C27.8399 32.3652 27.8184 32.3752 27.7429 32.3351C27.5488 32.2249 25.7805 33.5382 24.9826 34.3804C24.8101 34.5709 24.5836 34.7914 24.4974 34.8817C23.8504 35.5033 23.3005 36.195 23.376 36.2953C23.4191 36.3655 23.4083 36.3855 23.3436 36.3554C23.2466 36.2953 22.3409 37.4783 22.3409 37.6588C22.3409 37.6889 22.2762 37.7991 22.1899 37.8793C21.8988 38.1901 20.8205 40.5462 20.4539 41.6891C20.0334 43.0125 19.6452 45.2783 19.6452 46.4613C19.6452 46.9025 19.5913 47.3336 19.5374 47.4138C19.4727 47.514 19.4296 47.5241 19.4296 47.4338C19.4296 47.2634 18.7395 47.2734 18.3621 47.4639C17.9847 47.6444 17.7691 48.0654 17.6181 48.9176C17.5534 49.2786 17.4133 50.0205 17.3162 50.5719C16.8634 53.1585 16.1625 54.542 15.0519 55.0433C14.599 55.2438 14.3187 55.2839 12.9817 55.314L11.4398 55.3641L11.4829 54.7225C11.5152 54.2713 11.5692 54.0909 11.6662 54.1109C11.7417 54.121 11.8495 54.0708 11.925 53.9906C11.9897 53.9004 12.3563 53.73 12.7337 53.6097C13.6825 53.2989 13.8227 53.0582 13.9413 51.5945C14.2001 48.1657 14.1462 41.6089 13.8443 41.3984C13.8011 41.3683 13.7688 41.1978 13.758 41.0174C13.7472 40.6164 13.3806 39.5937 13.2512 39.5937C13.2081 39.5937 13.1973 39.5436 13.2297 39.4935C13.2728 39.4333 13.2081 39.2428 13.0895 39.0624C12.8738 38.7416 12.5288 38.1601 11.9681 37.2176C11.2133 35.9544 10.8467 34.5007 10.8144 32.676C10.7928 31.6033 10.8252 31.2724 11.0192 30.6508C11.1486 30.2498 11.3104 29.8688 11.3643 29.7986C11.677 29.4377 12.1945 28.5254 12.1298 28.4351C12.0975 28.375 12.1191 28.365 12.1838 28.4051C12.3563 28.5053 13.1326 26.9413 13.0032 26.7508C12.9817 26.7107 13.0032 26.6506 13.0571 26.6205C13.2404 26.5102 13.4237 25.1166 13.359 24.2243C13.3159 23.5526 13.2297 23.2218 12.9924 22.7807C12.7337 22.2794 12.1406 21.6277 11.6554 21.2968C11.2457 21.0161 9.93021 20.5449 8.87353 20.2943C8.03249 20.0938 7.40711 19.813 7.31007 19.5925C7.27772 19.5023 7.20224 19.4621 7.13755 19.4922C7.07285 19.5323 7.06207 19.4822 7.1052 19.3819C7.15911 19.2516 7.13755 19.2316 7.02972 19.2917C6.94346 19.3418 6.91111 19.3318 6.96503 19.2616C6.99737 19.2015 6.94346 18.8907 6.83564 18.5699C6.71703 18.249 6.59842 17.7778 6.56607 17.5172L6.50138 17.046L7.06207 16.9056C9.24014 16.3442 9.63909 16.2339 9.941 16.0835C10.1243 15.9933 10.3076 15.8429 10.3399 15.7526C10.3831 15.6624 10.437 15.5622 10.4801 15.5321C10.5125 15.502 10.685 15.2614 10.8467 14.9907C11.0732 14.6298 11.1163 14.4894 11.0192 14.4293C10.9222 14.3791 10.9222 14.339 11.0085 14.2889C11.0732 14.2488 11.1271 14.2688 11.1271 14.339C11.1271 14.4192 11.2025 14.3891 11.3427 14.2789C11.4613 14.1786 11.526 14.0583 11.4937 14.0082C11.4613 13.9681 11.4721 13.938 11.526 13.948C11.5799 13.9681 11.8387 13.8177 12.0975 13.6172C13.2836 12.7249 14.2756 12.4943 16.6801 12.5444L18.4053 12.5745L19.3218 10.9002C20.3892 8.95522 20.2599 8.97527 21.047 10.5994ZM18.7072 11.7724C18.6748 11.8627 18.6209 11.9128 18.5993 11.8827C18.567 11.8526 18.5778 11.7925 18.6209 11.7323C18.718 11.5719 18.7826 11.602 18.7072 11.7724ZM22.5242 14.349C22.4918 14.4293 22.4595 14.3992 22.4595 14.2889C22.4487 14.1786 22.481 14.1185 22.5134 14.1586C22.5457 14.1886 22.5565 14.2789 22.5242 14.349ZM10.782 14.8303C10.7066 14.9406 10.6203 14.9807 10.5987 14.9205C10.5772 14.8604 10.6311 14.7701 10.7066 14.72C10.9222 14.5997 10.933 14.6097 10.782 14.8303ZM3.6548 16.8555C3.62245 16.9357 3.5901 16.9056 3.5901 16.7953C3.57932 16.685 3.61167 16.6249 3.64402 16.665C3.67636 16.6951 3.68715 16.7853 3.6548 16.8555ZM49.4157 17.066C49.3079 17.1562 49.2971 17.1462 49.3618 17.0059C49.3942 16.9056 49.4589 16.8555 49.4912 16.8855C49.5236 16.9156 49.4912 16.9958 49.4157 17.066ZM46.774 18.0586C47.173 18.3493 47.5827 18.6601 47.6797 18.7403C47.7768 18.8305 48.0356 19.031 48.2512 19.1814L48.661 19.4722L50.1921 19.3819C52.3809 19.2516 54.6237 19.2817 54.5266 19.4421C54.5051 19.4722 54.6884 19.5825 54.9364 19.6927C55.5618 19.9735 56.5753 20.8758 56.8341 21.3771C57.2223 22.139 57.2223 22.2994 56.8557 22.6102C56.6724 22.7606 56.4675 23.0513 56.392 23.2619C56.295 23.5927 56.3057 23.703 56.5322 24.1241C56.7263 24.495 56.9203 24.6655 57.3301 24.876C57.632 25.0264 57.9123 25.1668 57.9663 25.1868C58.0309 25.2069 58.0309 25.2771 57.9663 25.3673C57.9123 25.4475 57.8692 25.5878 57.8692 25.6781C57.8692 25.7783 57.8369 25.8485 57.8045 25.8285C57.7722 25.8184 57.535 25.9788 57.2977 26.1794C56.7694 26.6205 55.896 27.0416 54.8501 27.3724C53.8258 27.6832 53.3298 27.984 53.071 28.4652C52.8661 28.8362 52.8553 28.9765 52.92 30.3902C53.0063 32.1847 52.8769 33.1673 52.4564 33.9793C52.2947 34.2801 52.1653 34.5909 52.1761 34.6511C52.1761 34.7213 52.1437 34.7614 52.1006 34.7313C52.0574 34.7012 51.8849 34.8716 51.7232 35.1123C51.5614 35.3428 51.3027 35.6536 51.1625 35.804C51.0008 35.9644 50.9253 36.1148 50.9684 36.195C51.0223 36.2652 51.0115 36.2953 50.9468 36.2552C50.7743 36.1549 50.1489 36.9369 50.2244 37.1575C50.2675 37.2878 50.2568 37.2979 50.1813 37.2076C50.1058 37.1074 49.998 37.1976 49.75 37.5585C48.4777 39.4133 47.7876 41.6691 47.6258 44.5063C47.5504 45.8498 47.7013 47.895 47.9493 48.8174C48.0248 49.1181 48.1973 49.7698 48.3375 50.2711C48.6933 51.6246 49.1462 52.6271 49.5559 52.9881C49.9656 53.349 50.9684 53.6598 51.4213 53.5796C51.6585 53.5395 51.6801 53.5495 51.5075 53.6097C51.3027 53.6999 51.3027 53.6999 51.5291 53.7701C51.6693 53.8102 51.831 53.8102 51.8957 53.7701C51.9712 53.73 51.9927 53.74 51.9496 53.8102C51.9173 53.8703 51.9496 53.9505 52.0359 54.0007C52.1976 54.0909 52.3809 54.6423 52.3809 55.0333C52.3701 55.2839 52.3594 55.2839 51.4536 55.2639C49.7823 55.2238 48.4022 54.7426 47.5611 53.9104C47.1191 53.4793 45.9546 51.8251 45.9546 51.6346C45.9546 51.5544 45.9222 51.5243 45.8899 51.5544C45.8467 51.5945 45.7389 51.4742 45.6311 51.2937C45.4154 50.8927 44.6822 50.5418 43.9274 50.4516C43.5393 50.4115 43.3883 50.3613 43.453 50.2811C43.6687 50.0205 43.852 48.687 43.8412 47.4639C43.8412 46.4613 43.7765 45.96 43.5932 45.2883C43.1727 43.7644 42.364 42.1503 42.1591 42.421C42.0836 42.5112 42.0728 42.5012 42.116 42.3709C42.2022 42.1302 41.8141 41.639 40.8652 40.7667C40.0673 40.0449 39.6144 39.7441 38.5038 39.2228C37.3932 38.7115 36.5953 38.5511 35.1181 38.5511C33.9968 38.5511 33.7056 38.5912 32.9832 38.8218C31.7756 39.2128 31.0424 39.6338 30.2121 40.4158C28.2066 42.3107 27.7429 45.0778 29.026 47.4138C29.3495 48.0053 30.6973 49.2585 30.9237 49.1783C31.01 49.1482 31.0639 49.1582 31.0316 49.2084C30.9992 49.2585 31.1717 49.3888 31.4305 49.4991C32.3255 49.8801 33.0695 50.0505 33.8458 50.0505C34.5251 50.0505 34.6653 50.0205 34.9995 49.7798C35.2152 49.6295 35.3877 49.4289 35.3877 49.3287C35.3877 49.2385 35.4416 49.1081 35.5171 49.0379C35.7004 48.8675 35.4632 48.2158 35.0966 47.895C34.7515 47.6043 34.2124 47.4138 33.7272 47.4138C33.3282 47.4138 32.6166 47.123 32.1098 46.7621C31.7971 46.5415 31.6462 46.331 31.1717 45.3986C31.01 45.0878 31.1394 43.8747 31.3982 43.2631C31.6785 42.5914 32.4009 41.8395 33.0802 41.5187C34.3957 40.8971 36.4228 41.0274 37.8138 41.8295C38.9567 42.4811 40.0673 43.7444 40.5094 44.9074C41.1995 46.702 41.124 49.3187 40.3261 50.8827C40.1967 51.1433 40.0997 51.414 40.0997 51.4842C40.0997 51.5644 40.0781 51.6045 40.0457 51.5744C40.0134 51.5544 39.8948 51.6947 39.7762 51.9053C39.3557 52.6472 38.3852 53.6297 37.4256 54.2814C35.1289 55.8554 30.762 56.0559 27.6782 54.7325C26.0932 54.0508 25.1443 53.339 24.1416 52.1058C22.9986 50.6922 22.3301 48.2559 22.4918 46.1606C22.5997 44.8472 22.9555 42.9624 23.2682 42.1302C23.4191 41.7292 23.5054 41.3482 23.4623 41.2781C23.4191 41.2079 23.4299 41.1978 23.5054 41.2379C23.5809 41.2781 23.6348 41.248 23.6348 41.1778C23.6348 40.9673 24.6591 39.0523 25.112 38.4207C25.6942 37.5786 26.2549 36.967 27.3547 35.9344C28.53 34.8416 28.6163 34.7814 29.8131 34.0495C30.859 33.4179 31.6354 33.0369 32.6921 32.6359C33.0802 32.4855 33.49 32.3251 33.6086 32.275C33.7272 32.2249 34.3095 32.0444 34.9025 31.8639C37.0266 31.2423 38.148 30.8313 39.0537 30.35C40.4663 29.6081 41.5984 28.5354 42.2669 27.3123C42.5904 26.7408 43.3128 24.465 43.205 24.3647C43.1727 24.3447 43.1942 24.2745 43.2481 24.2143C43.3021 24.1542 43.3991 23.8334 43.4746 23.5025C43.5393 23.1717 43.7657 22.4197 43.9706 21.8382C44.1754 21.2467 44.3264 20.7053 44.3048 20.6352C44.2833 20.5549 44.2833 20.5349 44.3156 20.585C44.3911 20.7254 44.7793 19.7128 44.7146 19.5424C44.6714 19.4621 44.6822 19.4321 44.7253 19.4722C44.8008 19.5424 45.7389 17.838 45.7389 17.6274C45.7389 17.4269 46.0732 17.5673 46.774 18.0586ZM57.5457 18.5398C57.5134 18.5899 57.4163 18.64 57.3517 18.64C57.2762 18.64 57.287 18.5999 57.384 18.5398C57.5889 18.4195 57.632 18.4195 57.5457 18.5398ZM6.64155 18.7202C6.6739 18.7704 6.63077 18.8105 6.54451 18.8105C6.45825 18.8105 6.41512 18.7704 6.44747 18.7202C6.47981 18.6801 6.52294 18.64 6.54451 18.64C6.56607 18.64 6.6092 18.6801 6.64155 18.7202ZM45.0596 18.8606C45.0273 18.9408 44.9949 18.9107 44.9949 18.8005C44.9841 18.6902 45.0165 18.63 45.0488 18.6701C45.0812 18.7002 45.0919 18.7904 45.0596 18.8606ZM55.4431 19.6426C55.3569 19.6927 55.3785 19.7328 55.5078 19.783C55.6049 19.813 55.6588 19.8732 55.6372 19.9033C55.6049 19.9334 55.4216 19.8732 55.2383 19.7629L54.904 19.5724H55.2275C55.4108 19.5724 55.5078 19.6025 55.4431 19.6426ZM41.3936 21.5675C41.3612 21.6477 41.3289 21.6177 41.3289 21.5074C41.3181 21.3971 41.3504 21.337 41.3828 21.3771C41.4151 21.4071 41.4259 21.4974 41.3936 21.5675ZM43.6579 21.6678C43.6255 21.748 43.5932 21.7179 43.5932 21.6076C43.5824 21.4974 43.6147 21.4372 43.6471 21.4773C43.6794 21.5074 43.6902 21.5976 43.6579 21.6678ZM43.5932 22.3094C43.5393 22.4699 43.4854 22.52 43.4854 22.4298C43.4746 22.2493 43.5932 21.9184 43.6471 21.9786C43.6687 21.9886 43.6363 22.139 43.5932 22.3094ZM7.02972 22.2493C7.11598 22.2994 7.14833 22.3495 7.08363 22.3495C7.02972 22.3495 6.90033 22.2994 6.81407 22.2493C6.72781 22.1992 6.70625 22.149 6.76016 22.149C6.82485 22.149 6.94346 22.1992 7.02972 22.2493ZM10.0488 23.292C10.0488 23.312 9.95178 23.312 9.83317 23.2819C9.71456 23.2519 9.61752 23.1917 9.61752 23.1315C9.61752 23.0814 9.71456 23.0914 9.83317 23.1516C9.95178 23.2118 10.0488 23.2719 10.0488 23.292ZM60.1982 23.322C60.3384 23.4925 60.3384 23.4925 60.1335 23.3521C60.0149 23.2719 59.8963 23.1917 59.8748 23.1817C59.8532 23.1616 59.8748 23.1516 59.9394 23.1516C60.0041 23.1516 60.1228 23.2318 60.1982 23.322ZM27.4086 23.9035C27.5488 24.0439 27.6351 24.1542 27.6027 24.1542C27.5812 24.1542 27.441 24.0439 27.3008 23.9035C27.1607 23.7632 27.0744 23.6529 27.1067 23.6529C27.1283 23.6529 27.2685 23.7632 27.4086 23.9035ZM57.233 24.5452C57.1899 24.5953 57.2223 24.6655 57.2762 24.6855C57.3409 24.7156 57.3301 24.7256 57.2546 24.7156C57.0929 24.6855 57.0066 24.4549 57.1684 24.4549C57.233 24.4549 57.2654 24.495 57.233 24.5452ZM57.9231 24.5552C57.8369 24.6053 57.7183 24.6555 57.6536 24.6555C57.5996 24.6555 57.6212 24.6053 57.7075 24.5552C57.7937 24.5051 57.9231 24.4549 57.977 24.4549C58.0417 24.4549 58.0094 24.5051 57.9231 24.5552ZM42.8492 25.1768C42.7629 25.257 42.7521 25.2169 42.7953 25.0465C42.8384 24.9161 42.8815 24.866 42.9139 24.9462C42.9355 25.0164 42.9031 25.1267 42.8492 25.1768ZM25.8991 25.4976C25.8991 25.5177 25.8236 25.5678 25.7266 25.5979C25.6403 25.6279 25.5972 25.6179 25.6295 25.5578C25.6942 25.4575 25.8991 25.4174 25.8991 25.4976ZM10.5125 26.3598C10.4801 26.4801 10.4262 26.5503 10.3939 26.5202C10.3399 26.4601 10.4478 26.1593 10.5233 26.1593C10.5448 26.1593 10.5448 26.2495 10.5125 26.3598ZM26.6 26.2596C26.6323 26.3097 26.6107 26.3598 26.5568 26.3598C26.4921 26.3598 26.4382 26.3097 26.4382 26.2596C26.4382 26.1994 26.4598 26.1593 26.4814 26.1593C26.5137 26.1593 26.5676 26.1994 26.6 26.2596ZM27.8076 26.8912C27.8831 26.8912 27.9154 26.9313 27.8831 26.9814C27.8507 27.0215 27.9154 27.0616 28.0233 27.0716C28.1311 27.0716 28.1634 27.1017 28.0987 27.1218C28.0233 27.1519 27.8076 27.0716 27.6135 26.9513C27.4086 26.8411 27.344 26.7709 27.4626 26.811C27.5812 26.8511 27.7321 26.8912 27.8076 26.8912ZM41.7817 27.8737C41.6847 27.9639 41.6523 27.9439 41.6739 27.7835C41.6847 27.6431 41.7278 27.603 41.7925 27.6632C41.868 27.7333 41.8572 27.8035 41.7817 27.8737ZM9.41265 27.994C9.30483 28.0842 9.29405 28.0742 9.35874 27.9339C9.39109 27.8336 9.45578 27.7835 9.48813 27.8135C9.52048 27.8436 9.48813 27.9238 9.41265 27.994ZM9.52048 28.2948C9.41265 28.385 9.40187 28.375 9.46657 28.2346C9.49891 28.1344 9.56361 28.0842 9.59596 28.1143C9.6283 28.1444 9.59596 28.2246 9.52048 28.2948ZM8.61475 29.6884C8.5824 29.7686 8.55006 29.7385 8.55006 29.6282C8.53927 29.5179 8.57162 29.4578 8.60397 29.4979C8.63631 29.5279 8.6471 29.6182 8.61475 29.6884ZM11.2349 29.6081C11.2349 29.6382 11.1918 29.6884 11.1271 29.7184C11.0732 29.7485 11.0192 29.7285 11.0192 29.6783C11.0192 29.6182 11.0732 29.568 11.1271 29.568C11.1918 29.568 11.2349 29.5881 11.2349 29.6081ZM27.3008 32.7763C27.3008 32.8264 27.2469 32.8765 27.1822 32.8765C27.1283 32.8765 27.1067 32.8264 27.1391 32.7763C27.1714 32.7161 27.2253 32.676 27.2577 32.676C27.2793 32.676 27.3008 32.7161 27.3008 32.7763ZM54.807 35.012C54.6992 35.1022 54.6884 35.0922 54.7531 34.9518C54.7854 34.8516 54.8501 34.8015 54.8825 34.8315C54.9148 34.8616 54.8825 34.9418 54.807 35.012ZM53.9983 36.5058C53.9012 36.6261 53.8258 36.6763 53.8258 36.6061C53.8258 36.4156 53.8689 36.3354 53.9659 36.3655C54.0199 36.3755 54.0306 36.2853 53.9875 36.1649C53.9336 35.9644 53.9444 35.9544 54.0414 36.1148C54.1277 36.2452 54.1169 36.3354 53.9983 36.5058ZM24.5297 38.9421C24.4974 39.0323 24.4435 39.0824 24.4219 39.0523C24.3895 39.0223 24.4003 38.9621 24.4435 38.902C24.5405 38.7416 24.6052 38.7716 24.5297 38.9421ZM32.3147 39.4734C32.2823 39.5035 32.1961 39.4734 32.1206 39.4032C32.0236 39.303 32.0343 39.293 32.1853 39.3531C32.2931 39.3832 32.347 39.4433 32.3147 39.4734ZM51.3566 39.6238C51.2488 39.714 51.238 39.704 51.3027 39.5637C51.335 39.4634 51.3997 39.4133 51.4321 39.4433C51.4644 39.4734 51.4321 39.5536 51.3566 39.6238ZM11.6662 39.6338C11.6662 39.6639 11.6231 39.714 11.5584 39.7441C11.5045 39.7742 11.4505 39.7541 11.4505 39.704C11.4505 39.6439 11.5045 39.5937 11.5584 39.5937C11.6231 39.5937 11.6662 39.6138 11.6662 39.6338ZM24.0445 39.9847C23.969 40.075 23.9043 40.1552 23.8936 40.1752C23.8828 40.1853 23.8828 40.0649 23.8936 39.9045C23.9043 39.684 23.9367 39.6338 24.0445 39.714C24.1523 39.7942 24.1523 39.8544 24.0445 39.9847ZM13.359 40.3156C13.3267 40.3958 13.2944 40.3657 13.2944 40.2554C13.2836 40.1451 13.3159 40.085 13.3483 40.1251C13.3806 40.1552 13.3914 40.2454 13.359 40.3156ZM50.4509 41.7192C50.4185 41.7994 50.3862 41.7693 50.3862 41.659C50.3754 41.5487 50.4077 41.4886 50.4401 41.5287C50.4724 41.5588 50.4832 41.649 50.4509 41.7192ZM20.5402 42.05C20.5078 42.1403 20.4539 42.1904 20.4324 42.1603C20.4 42.1302 20.4108 42.0701 20.4539 42.0099C20.551 41.8495 20.6157 41.8796 20.5402 42.05ZM50.5048 42.3508C50.5371 42.4811 50.5155 42.5714 50.4724 42.5413C50.3754 42.4912 50.3322 42.1002 50.4185 42.1002C50.4401 42.1002 50.4832 42.2104 50.5048 42.3508ZM30.9345 44.1253C30.9022 44.1955 30.8806 44.1454 30.8806 44.005C30.8806 43.8647 30.9022 43.8146 30.9345 43.8747C30.9561 43.9449 30.9561 44.0652 30.9345 44.1253ZM49.6206 46.0503C49.6206 46.0804 49.5775 46.1305 49.5128 46.1606C49.4589 46.1906 49.4049 46.1706 49.4049 46.1205C49.4049 46.0603 49.4589 46.0102 49.5128 46.0102C49.5775 46.0102 49.6206 46.0302 49.6206 46.0503ZM29.5005 47.6744C29.5328 47.7546 29.522 47.7948 29.4573 47.7647C29.3926 47.7346 29.3495 47.6644 29.3495 47.6043C29.3495 47.4639 29.425 47.494 29.5005 47.6744ZM34.8594 48.1456C34.7515 48.2359 34.7407 48.2259 34.8054 48.0855C34.8378 47.9852 34.9025 47.9351 34.9348 47.9652C34.9672 47.9953 34.9348 48.0755 34.8594 48.1456ZM32.7676 49.4791C32.7352 49.5091 32.6382 49.5192 32.5627 49.4891C32.4764 49.459 32.5088 49.4289 32.6274 49.4289C32.746 49.4189 32.8107 49.449 32.7676 49.4791ZM40.5741 50.8526C40.4663 50.9428 40.4555 50.9328 40.5202 50.7924C40.5525 50.6922 40.6172 50.642 40.6496 50.6721C40.6819 50.7022 40.6496 50.7824 40.5741 50.8526ZM53.8366 52.0958C53.9767 52.2562 53.9659 52.2662 53.8042 52.1359C53.6964 52.0657 53.6101 51.9855 53.6101 51.9654C53.6101 51.8852 53.6964 51.9354 53.8366 52.0958ZM13.2944 53.2588C13.1865 53.349 13.1757 53.339 13.2404 53.1986C13.2728 53.0983 13.3375 53.0482 13.3698 53.0783C13.4022 53.1084 13.3698 53.1886 13.2944 53.2588ZM43.1834 53.369C44.2401 53.7701 44.0245 54.923 42.8492 55.2238C42.6335 55.2839 41.9435 55.3341 41.3181 55.3341H40.1859L40.5633 55.0032C41.1132 54.522 41.5553 54.0307 41.8464 53.5996C42.0513 53.2888 42.1483 53.2287 42.461 53.2287C42.6659 53.2287 42.9894 53.2888 43.1834 53.369ZM37.8138 54.3315C37.7814 54.3816 37.6844 54.4318 37.6197 54.4318C37.5442 54.4318 37.555 54.3917 37.652 54.3315C37.8569 54.2112 37.9 54.2112 37.8138 54.3315ZM23.0417 54.532C23.0741 54.5922 23.031 54.6022 22.9447 54.5721C22.7506 54.5019 22.7183 54.4318 22.8692 54.4318C22.9339 54.4318 23.0094 54.4719 23.0417 54.532ZM18.5454 55.1436C18.5131 55.2238 18.47 55.1737 18.4268 55.0433C18.3837 54.8729 18.3945 54.8328 18.4807 54.913C18.5347 54.9631 18.567 55.0734 18.5454 55.1436ZM23.9043 55.4444C24.0445 55.6449 23.9043 55.5947 23.6348 55.3541C23.3868 55.1336 23.3868 55.1135 23.6024 55.2238C23.7318 55.2839 23.872 55.3842 23.9043 55.4444ZM43.2589 55.3341C43.1727 55.3842 43.0217 55.4243 42.9355 55.4243C42.8276 55.4243 42.8492 55.3942 42.9894 55.3341C43.2805 55.2138 43.453 55.2138 43.2589 55.3341ZM14.1138 55.4945C14.0815 55.5246 13.9844 55.5346 13.909 55.5045C13.8227 55.4744 13.855 55.4444 13.9737 55.4444C14.0923 55.4343 14.157 55.4644 14.1138 55.4945ZM35.3554 55.4945C35.323 55.5246 35.226 55.5346 35.1505 55.5045C35.0642 55.4744 35.0966 55.4444 35.2152 55.4444C35.3338 55.4343 35.3985 55.4644 35.3554 55.4945ZM9.64987 56.8078C9.61752 56.878 9.55283 56.9081 9.49891 56.878C9.34796 56.7978 9.38031 56.6675 9.55283 56.6675C9.63909 56.6675 9.68222 56.7276 9.64987 56.8078ZM50.1274 57.3994C50.095 57.4294 49.998 57.4395 49.9225 57.4094C49.8362 57.3793 49.8686 57.3492 49.9872 57.3492C50.1058 57.3392 50.1705 57.3693 50.1274 57.3994ZM40.38 57.5096C40.1212 57.5297 39.7115 57.5297 39.4635 57.5096C39.2047 57.4896 39.4096 57.4695 39.9164 57.4695C40.4231 57.4695 40.628 57.4896 40.38 57.5096ZM52.4995 57.4996C52.4672 57.5297 52.3701 57.5397 52.2947 57.5096C52.2084 57.4796 52.2407 57.4495 52.3594 57.4495C52.478 57.4395 52.5427 57.4695 52.4995 57.4996ZM38.0078 57.7102C37.8677 57.7302 37.652 57.7302 37.5226 57.7102C37.3825 57.6901 37.4903 57.6701 37.7598 57.6701C38.0294 57.6701 38.1372 57.6901 38.0078 57.7102Z" fill="#65A30D"/>
<path d="M12.4085 17.0849C12.0011 17.1928 11.55 17.5883 11.55 17.84C11.55 18.0846 11.9575 18.401 12.4231 18.5232C12.9323 18.6527 13.2088 18.6599 13.0633 18.5376C12.9906 18.4729 13.0051 18.4729 13.1506 18.5376C13.5144 18.703 14.4602 18.401 14.7366 18.0198C14.9112 17.7753 14.8967 17.725 14.6057 17.4445C14.14 16.9914 13.267 16.8548 12.4085 17.0849Z" fill="#65A30D"/>
<path d="M53.3824 22.0607C52.7915 22.3915 52.6097 23.7436 53.0263 24.6929C53.2157 25.1388 53.3067 25.2251 53.5415 25.2251C53.8824 25.2251 54.1703 24.8511 54.337 24.1895C54.4961 23.5997 54.4885 23.384 54.3067 22.8086C54.1854 22.4347 53.7309 21.8593 53.6097 21.9312C53.5945 21.9312 53.496 21.9888 53.3824 22.0607ZM54.2309 22.9237C54.2309 22.9956 54.2158 23.0676 54.2006 23.0676C54.1779 23.0676 54.14 22.9956 54.1173 22.9237C54.0945 22.8374 54.1097 22.7799 54.1476 22.7799C54.193 22.7799 54.2309 22.8374 54.2309 22.9237ZM54.1248 24.4771C53.9961 24.7073 53.9885 24.7073 54.087 24.4052C54.14 24.2326 54.2006 24.1176 54.2233 24.1607C54.2461 24.1895 54.2006 24.3333 54.1248 24.4771ZM53.2536 24.7504C53.3521 24.9806 53.3445 24.995 53.2309 24.808C53.1551 24.7073 53.0945 24.5922 53.0945 24.5635C53.0945 24.4484 53.1551 24.5203 53.2536 24.7504ZM53.6476 25.0381C53.5945 25.0669 53.5036 25.0669 53.4582 25.0381C53.4051 24.995 53.443 24.9662 53.5491 24.9662C53.6551 24.9662 53.693 24.995 53.6476 25.0381Z" fill="#65A30D"/>
<path d="M55.1264 40.2238C54.9266 40.3268 54.7553 40.5556 54.6221 40.9102C54.4033 41.4365 54.4033 41.4365 54.565 42.6149C54.8124 44.3883 54.8409 45.2464 54.7077 46.8481C54.6031 48.0494 54.6031 48.3583 54.7077 48.5871C54.7743 48.7359 54.879 48.8388 54.9266 48.7931C54.9836 48.7587 54.9932 48.7816 54.9551 48.8617C54.8505 49.0676 55.2881 49.4338 55.6401 49.4452C56.6485 49.4566 57.2003 48.1638 57.2003 45.8184C57.2003 45.1777 57.1718 44.5942 57.1337 44.5256C57.1052 44.4684 57.1242 44.4112 57.1813 44.4112C57.2384 44.4112 57.3145 44.5027 57.343 44.6057C57.3811 44.7201 57.4382 44.8345 57.4762 44.8688C57.5428 44.926 57.8568 45.5667 58.0946 46.1273C58.6084 47.3172 58.6464 49.5482 58.1898 50.7838C57.8758 51.6075 57.7712 51.7334 57.1623 52.008C56.6485 52.2368 56.3536 52.6143 56.268 53.1749C56.1919 53.6555 56.268 54.0216 56.4868 54.319C57.0196 55.0284 57.5333 55.1085 58.38 54.5936C59.9403 53.644 60.8251 51.7677 61.0344 48.9304C61.158 47.2371 60.5396 44.8116 59.6073 43.3128C58.8652 42.123 57.4192 40.6357 57.1813 40.8073C57.1242 40.853 57.0957 40.8187 57.1052 40.7386C57.1433 40.5441 56.1824 40.0751 55.7543 40.0751C55.5735 40.0751 55.2881 40.1437 55.1264 40.2238ZM59.6168 43.7934C59.6263 43.9535 59.6168 44.0565 59.5883 44.0222C59.5502 43.9879 59.5122 43.8162 59.5027 43.6561C59.4836 43.4959 59.5027 43.3815 59.5312 43.4273C59.5597 43.4616 59.5978 43.6217 59.6168 43.7934ZM59.7785 52.5915C59.75 52.6944 59.7024 52.7516 59.6834 52.7173C59.6549 52.683 59.6644 52.6143 59.7024 52.5457C59.7881 52.3626 59.8451 52.397 59.7785 52.5915Z" fill="#65A30D"/>
</svg>
