<svg width="30" height="30" viewBox="0 0 30 30" fill="none" xmlns="http://www.w3.org/2000/svg">
<g clip-path="url(#clip0_4_453)">
<path d="M8.4375 4.67344V25.3266C8.44056 25.4914 8.48702 25.6525 8.5722 25.7936C8.65737 25.9347 8.77825 26.0509 8.92265 26.1304C9.06705 26.2099 9.22985 26.2499 9.39465 26.2464C9.55945 26.243 9.72042 26.1961 9.86133 26.1105L26.7457 15.784C26.8806 15.7024 26.9921 15.5873 27.0695 15.45C27.1469 15.3126 27.1876 15.1576 27.1876 15C27.1876 14.8423 27.1469 14.6874 27.0695 14.55C26.9921 14.4127 26.8806 14.2976 26.7457 14.216L9.86133 3.88945C9.72042 3.80391 9.55945 3.75704 9.39465 3.75356C9.22985 3.75007 9.06705 3.7901 8.92265 3.86961C8.77825 3.94912 8.65737 4.06529 8.5722 4.20641C8.48702 4.34754 8.44056 4.50863 8.4375 4.67344Z" stroke="black" stroke-width="1.875" stroke-linecap="round" stroke-linejoin="round"/>
</g>
<defs>
<clipPath id="clip0_4_453">
<rect width="30" height="30" fill="white"/>
</clipPath>
</defs>
</svg>
