<svg width="16" height="16" viewBox="0 0 16 16" fill="none" xmlns="http://www.w3.org/2000/svg">
<g clip-path="url(#clip0_4_577)">
<path d="M12 7.5C12.5822 7.49956 13.1566 7.63492 13.6773 7.8953C14.1981 8.15569 14.651 8.53394 15 9" stroke="#374151" stroke-linecap="round" stroke-linejoin="round"/>
<path d="M1 9C1.349 8.53394 1.80187 8.15569 2.32265 7.8953C2.84343 7.63492 3.41775 7.49956 4 7.5" stroke="#374151" stroke-linecap="round" stroke-linejoin="round"/>
<path d="M8 11.5C9.38071 11.5 10.5 10.3807 10.5 9C10.5 7.61929 9.38071 6.5 8 6.5C6.61929 6.5 5.5 7.61929 5.5 9C5.5 10.3807 6.61929 11.5 8 11.5Z" stroke="#374151" stroke-linecap="round" stroke-linejoin="round"/>
<path d="M4.5 13.5C4.85893 12.8909 5.3706 12.386 5.98444 12.0353C6.59827 11.6845 7.29302 11.5 8 11.5C8.70698 11.5 9.40173 11.6845 10.0156 12.0353C10.6294 12.386 11.1411 12.8909 11.5 13.5" stroke="#374151" stroke-linecap="round" stroke-linejoin="round"/>
<path d="M10.0625 5C10.156 4.63785 10.3492 4.30918 10.6201 4.05131C10.891 3.79345 11.2288 3.61672 11.5952 3.5412C11.9615 3.46567 12.3416 3.49439 12.6925 3.62407C13.0433 3.75376 13.3507 3.97922 13.5798 4.27486C13.8089 4.57049 13.9506 4.92445 13.9886 5.29653C14.0267 5.66862 13.9596 6.04392 13.7951 6.37981C13.6305 6.7157 13.3751 6.99872 13.0578 7.19673C12.7405 7.39475 12.374 7.49981 12 7.5" stroke="#374151" stroke-linecap="round" stroke-linejoin="round"/>
<path d="M3.99997 7.5C3.62594 7.49981 3.25947 7.39475 2.94216 7.19673C2.62485 6.99872 2.36942 6.7157 2.20489 6.37981C2.04035 6.04392 1.9733 5.66862 2.01135 5.29653C2.0494 4.92445 2.19103 4.57049 2.42015 4.27486C2.64926 3.97922 2.95669 3.75376 3.30751 3.62407C3.65833 3.49439 4.03849 3.46567 4.40481 3.5412C4.77113 3.61672 5.10894 3.79345 5.37986 4.05131C5.65078 4.30918 5.84396 4.63785 5.93747 5" stroke="#374151" stroke-linecap="round" stroke-linejoin="round"/>
</g>
<defs>
<clipPath id="clip0_4_577">
<rect width="16" height="16" fill="white"/>
</clipPath>
</defs>
</svg>
