<svg width="16" height="16" viewBox="0 0 16 16" fill="none" xmlns="http://www.w3.org/2000/svg">
<g clip-path="url(#clip0_4_551)">
<path d="M8 7.5V11.5" stroke="#374151" stroke-linecap="round" stroke-linejoin="round"/>
<path d="M7.99981 11.5L13.8298 13.4694C13.9258 13.5045 14.0303 13.5094 14.1292 13.4833C14.228 13.4573 14.3165 13.4015 14.3828 13.3236C14.449 13.2457 14.4897 13.1493 14.4994 13.0476C14.5092 12.9458 14.4875 12.8434 14.4373 12.7544L8.43168 2.25437C8.38844 2.17622 8.32506 2.11108 8.24812 2.06571C8.17118 2.02035 8.0835 1.99643 7.99418 1.99643C7.90487 1.99643 7.81718 2.02035 7.74024 2.06571C7.6633 2.11108 7.59992 2.17622 7.55668 2.25437L1.56606 12.7544C1.51639 12.8432 1.495 12.945 1.50474 13.0463C1.51448 13.1476 1.5549 13.2435 1.62058 13.3212C1.68627 13.3989 1.77411 13.4547 1.87235 13.4812C1.9706 13.5077 2.07459 13.5036 2.17043 13.4694L7.99981 11.5Z" stroke="#374151" stroke-linecap="round" stroke-linejoin="round"/>
</g>
<defs>
<clipPath id="clip0_4_551">
<rect width="16" height="16" fill="white"/>
</clipPath>
</defs>
</svg>
