<svg width="196" height="52" viewBox="0 0 196 52" fill="none" xmlns="http://www.w3.org/2000/svg">
<rect width="196" height="52" fill="white"/>
<path d="M124.666 12.8193C124.666 7.07723 121.304 2.45809 117.149 2.45809C111.522 2.1276 105.783 2 99.9181 2H98.0897C92.239 2 86.4898 2.1276 80.8625 2.45936C76.7183 2.45936 73.3561 7.10403 73.3561 12.8461C73.1022 17.3874 72.9945 21.93 73.0006 26.4725C72.9905 31.0151 73.1056 35.562 73.346 40.1131C73.346 45.8551 76.7081 50.5125 80.8524 50.5125C86.7641 50.857 92.8281 51.0102 98.9937 50.9974C105.17 51.0229 111.217 50.8613 117.135 50.5125C121.29 50.5125 124.652 45.8551 124.652 40.1131C124.895 35.5577 125.007 31.0151 124.997 26.4598C125.02 21.9172 124.91 17.3704 124.666 12.8193ZM94.0267 38.9902V13.9166L108.755 26.447L94.0267 38.9902Z" fill="#064E3B"/>
<path d="M46.315 46.745C49.2606 46.7368 52.083 45.6413 54.1658 43.6977C56.2487 41.7542 57.4227 39.1205 57.4315 36.3719V15.628C57.4227 12.8794 56.2487 10.2457 54.1658 8.30216C52.083 6.3586 49.2606 5.26309 46.315 5.25488H24.0843C21.1387 5.26309 18.3163 6.3586 16.2334 8.30216C14.1506 10.2457 12.9765 12.8794 12.9677 15.628V36.3719C12.9765 39.1205 14.1506 41.7542 16.2334 43.6977C18.3163 45.6413 21.1387 46.7368 24.0843 46.745H46.315ZM46.315 50.8936H24.0843C15.5248 50.8936 8.52185 44.359 8.52185 36.3719V15.628C8.52185 7.64089 15.5248 1.10632 24.0843 1.10632H46.315C54.8745 1.10632 61.8774 7.64089 61.8774 15.628V36.3719C61.8774 44.359 54.8745 50.8936 46.315 50.8936Z" fill="#064E3B"/>
<path d="M48.8107 35.8783C48.1646 35.8783 47.533 36.059 46.9958 36.3977C46.4586 36.7364 46.0399 37.2177 45.7926 37.7809C45.5454 38.3441 45.4807 38.9638 45.6067 39.5617C45.7328 40.1595 46.0439 40.7087 46.5008 41.1398C46.9576 41.5708 47.5397 41.8643 48.1734 41.9833C48.8071 42.1022 49.4639 42.0411 50.0608 41.8079C50.6577 41.5746 51.1679 41.1795 51.5268 40.6727C51.8858 40.1659 52.0774 39.57 52.0774 38.9604C52.0783 38.5554 51.9944 38.1542 51.8306 37.7799C51.6668 37.4055 51.4262 37.0654 51.1226 36.7791C50.8191 36.4927 50.4586 36.2657 50.0619 36.1111C49.6651 35.9565 49.2399 35.8774 48.8107 35.8783ZM34.6553 33.8243C36.3783 33.8243 38.0626 33.3422 39.4952 32.4391C40.9279 31.5359 42.0445 30.2522 42.7038 28.7503C43.3632 27.2485 43.5357 25.5958 43.1996 24.0014C42.8634 22.4071 42.0337 20.9425 40.8154 19.793C39.597 18.6435 38.0448 17.8607 36.3549 17.5436C34.665 17.2264 32.9134 17.3892 31.3215 18.0113C29.7297 18.6334 28.3691 19.6869 27.4119 21.0385C26.4547 22.3902 25.9437 23.9793 25.9437 25.605C25.9462 27.7841 26.8648 29.8734 28.498 31.4143C30.1312 32.9552 32.3456 33.8219 34.6553 33.8243ZM34.6553 37.9334C32.071 37.9334 29.5446 37.2103 27.3958 35.8557C25.247 34.501 23.5722 32.5756 22.5832 30.3228C21.5942 28.0701 21.3354 25.5913 21.8396 23.1998C22.3438 20.8083 23.5883 18.6116 25.4157 16.8874C27.2431 15.1633 29.5714 13.9891 32.1061 13.5134C34.6408 13.0377 37.2681 13.2819 39.6558 14.215C42.0434 15.1481 44.0842 16.7282 45.52 18.7556C46.9558 20.783 47.7222 23.1666 47.7222 25.605C47.7222 28.8747 46.3455 32.0104 43.895 34.3225C41.4445 36.6345 38.1209 37.9334 34.6553 37.9334Z" fill="#064E3B"/>
<path fill-rule="evenodd" clip-rule="evenodd" d="M190.17 26.151C190.17 12.2618 177.566 1 162.021 1C146.477 1 133.872 12.2618 133.872 26.151C133.872 38.7041 144.164 49.1092 157.623 50.9978V33.4235H150.474V26.151H157.623V20.6099C157.623 14.3076 161.826 10.8235 168.255 10.8235C171.336 10.8235 174.558 11.3153 174.558 11.3153V17.5054H171.006C167.512 17.5054 166.418 19.4433 166.418 21.4352V26.151H174.225L172.978 33.4235H166.42V51C179.878 49.1126 190.17 38.7074 190.17 26.151Z" fill="#064E3B"/>
</svg>
