<svg width="66" height="63" viewBox="0 0 66 63" fill="none" xmlns="http://www.w3.org/2000/svg">
<path d="M19.5698 6.11655C19.1708 6.35716 18.8473 6.76822 18.9552 6.92863C18.9983 6.98878 18.9875 7.00883 18.912 6.96873C18.718 6.85845 16.9928 9.71577 17.1006 9.98646C17.1329 10.0667 17.1221 10.0967 17.0574 10.0667C17.0035 10.0366 16.9065 10.1068 16.8418 10.2171C16.7448 10.3875 16.6154 10.4176 15.8929 10.4176C13.7257 10.4176 11.3643 11.1795 10.0273 12.3024C9.70378 12.5731 9.63909 12.6733 9.74691 12.7536C9.85474 12.8237 9.84395 12.8338 9.71456 12.7937C9.60674 12.7636 9.42344 12.8438 9.2617 13.0042C8.90588 13.3651 8.2158 14.3476 8.2158 14.498C8.2158 14.6484 8.14032 14.6685 6.23182 14.9793C4.24784 15.3001 3.73028 15.5106 3.44993 16.0921C3.25585 16.5032 3.25585 16.5633 3.41758 17.1548C3.51463 17.5057 3.6548 18.1273 3.74106 18.5484C3.94593 19.6412 4.16158 20.2427 4.61444 21.0448C5.29374 22.2479 6.2426 22.8595 8.22658 23.4008C9.33718 23.7016 9.80082 23.8821 10.1566 24.1628C10.4154 24.3633 10.4262 24.4235 10.4154 25.396C10.4046 26.5589 10.2429 27.0101 9.40187 28.2031C8.86275 28.9651 8.43145 29.8674 8.14032 30.89C7.9031 31.6821 7.88154 34.6096 8.08641 35.5319C8.49614 37.2764 9.61752 39.7928 9.85474 39.482C9.941 39.3718 9.95178 39.3818 9.89787 39.5221C9.82239 39.7327 10.0812 40.1337 10.2106 40.0134C10.2645 39.9733 10.2645 39.9934 10.2321 40.0535C10.189 40.1137 10.3292 40.5247 10.534 40.9558C11.1379 42.2692 11.181 42.7003 11.1702 47.2119C11.1702 49.4476 11.1379 51.4327 11.0947 51.6232C11.03 51.9039 10.9114 52.0342 10.4693 52.2748C9.693 52.6959 9.17544 53.2874 8.87353 54.0694C8.65788 54.6409 8.62553 54.8715 8.66866 55.7638C8.70101 56.636 8.74414 56.8566 8.98135 57.2375C9.13231 57.4882 9.31561 57.6787 9.38031 57.6686C9.45578 57.6486 9.49891 57.6987 9.47735 57.7589C9.46657 57.8291 9.70378 57.9995 9.99491 58.1399C10.5125 58.3805 10.6095 58.3905 12.6366 58.3905C14.653 58.3905 14.7716 58.3704 15.591 58.1098C17.8877 57.3579 19.0199 55.9442 19.807 52.8463C19.9579 52.2748 20.0765 51.7134 20.0765 51.6031C20.0765 51.3124 20.3569 51.543 20.4539 51.9039C20.5725 52.355 21.5645 53.9491 22.0282 54.4304C22.2762 54.681 22.4379 54.8013 22.4056 54.701C22.3624 54.5908 22.384 54.5406 22.4595 54.5807C22.5134 54.6208 22.535 54.7311 22.5026 54.8214C22.384 55.1823 24.3464 56.6661 25.8991 57.3879C28.7888 58.7314 32.4333 59.0823 35.7543 58.3504C36.4552 58.19 36.6169 58.19 36.9727 58.3003C37.2746 58.4005 38.1265 58.4406 40.1428 58.4406C42.8061 58.4406 42.9355 58.4306 43.7334 58.19C44.6606 57.9093 45.286 57.4982 45.5879 56.9869C45.7712 56.6561 45.7928 56.646 46.03 56.7964C46.1702 56.8766 46.3427 56.9167 46.4074 56.8766C46.4829 56.8365 46.4937 56.8465 46.4505 56.9167C46.3427 57.0872 47.4102 57.6686 48.3806 57.9594C49.4804 58.2902 51.1301 58.4908 52.2192 58.4106C54.1816 58.2702 55.2167 57.2275 55.2275 55.3928C55.2275 54.1897 54.8501 53.2874 54.0199 52.5656C53.6533 52.2548 53.4376 52.1244 53.3082 52.1746C53.2112 52.2046 53.168 52.2046 53.2112 52.1645C53.3082 52.0743 52.9308 51.8939 52.2839 51.7334C51.6693 51.573 51.583 51.4427 51.1948 50.1594C50.4616 47.6831 50.3107 44.4949 50.8498 42.4496C51.2272 41.036 51.8526 39.7628 52.6289 38.8905C54.6776 36.5545 55.3785 35.2512 55.7343 33.1057C55.8637 32.2936 55.8852 31.8725 55.8098 31.2209L55.7127 30.3787L56.0362 30.2584C58.1496 29.5265 59.3788 28.6543 60.2198 27.2908C60.6403 26.6191 61.05 25.5062 61.05 25.0651C61.0393 24.7042 60.705 24.0525 60.36 23.7618C60.1335 23.5713 60.0796 23.4209 60.0796 23.07C60.0796 22.4584 59.7022 21.3255 59.2494 20.5636C58.872 19.942 57.287 18.3379 57.039 18.3379C56.9743 18.3379 56.7478 18.2176 56.5537 18.0772C56.3489 17.9368 56.0685 17.8065 55.9284 17.7965C55.7882 17.7965 55.6911 17.7664 55.7235 17.7463C55.7451 17.7263 55.6911 17.6561 55.5941 17.5859C55.4324 17.4857 55.4324 17.4255 55.6049 16.9142C55.7127 16.6134 55.7666 16.2525 55.7343 16.1122C55.6372 15.7613 55.2706 15.3502 54.8825 15.1697C54.1816 14.8289 53.5023 15.1998 52.4672 16.4931L51.8957 17.225L50.7851 17.2551C49.5559 17.2952 49.6529 17.3253 48.5208 16.5232C47.5935 15.8615 46.3427 15.1697 45.9222 15.0795C45.4693 14.9692 44.9302 15.1096 44.5744 15.4104C43.5501 16.3026 41.6523 20.0823 40.9407 22.6489C40.9083 22.7893 40.8113 23.1201 40.725 23.4008C40.6496 23.6715 40.4555 24.4636 40.2937 25.1553C40.1428 25.8471 39.9703 26.4486 39.9164 26.4988C39.7654 26.6391 33.1665 26.3985 32.0775 26.208C30.7512 25.9774 29.4897 25.5764 28.7457 25.1453C28.3791 24.9247 28.0125 24.7643 27.937 24.7744C27.8615 24.7944 27.7968 24.7343 27.786 24.644C27.786 24.4435 27.1499 23.9322 27.0313 24.0325C26.9773 24.0726 26.9773 24.0525 27.0205 23.9823C27.0636 23.9121 26.9234 23.6415 26.7186 23.3808C25.7374 22.1075 25.3923 20.8042 25.2521 17.7864C25.1982 16.6836 25.1012 15.3302 25.0257 14.7787C24.9179 13.8363 24.4542 11.8913 24.2817 11.6708C24.2494 11.6106 24.1523 11.37 24.0769 11.1194C23.7534 10.0366 22.1037 7.3096 21.2734 6.47747C20.6912 5.88596 20.1412 5.77567 19.5698 6.11655ZM21.0793 6.55768C21.0038 6.76822 20.9499 6.74817 20.9715 6.51757C20.9715 6.40729 21.0254 6.33711 21.0685 6.36719C21.1117 6.39727 21.1225 6.47747 21.0793 6.55768ZM21.047 11.0993C21.8988 12.8939 22.1899 14.3376 22.3409 17.5358C22.4271 19.6111 22.5781 21.0749 22.7398 21.4458C22.7722 21.526 22.8261 21.6864 22.8477 21.7967C22.9123 22.1677 23.5054 23.6114 23.7426 24.0124C24.3464 25.0049 24.8748 25.6566 25.0257 25.6065C25.1228 25.5764 25.1551 25.5764 25.1228 25.6165C25.0042 25.7168 25.2521 26.0677 25.3815 25.9975C25.4462 25.9574 25.4678 25.9674 25.4355 26.0276C25.3492 26.1579 25.7158 26.4787 25.9099 26.4386C25.9854 26.4186 26.0501 26.4587 26.0608 26.5289C26.0608 26.7093 26.9773 27.3209 27.8507 27.7219C29.673 28.5741 31.7109 28.9851 34.7839 29.1255C36.3689 29.1957 36.7355 29.2859 35.9268 29.4062C34.7407 29.5767 30.1905 31.2209 29.3603 31.7623C29.1878 31.8826 29.0045 31.9728 28.9613 31.9728C28.7672 31.9728 27.7429 32.7147 27.8076 32.8049C27.8399 32.8651 27.8184 32.8751 27.7429 32.835C27.5488 32.7247 25.7805 34.0381 24.9826 34.8803C24.8101 35.0707 24.5836 35.2913 24.4974 35.3815C23.8504 36.0031 23.3005 36.6949 23.376 36.7952C23.4191 36.8653 23.4083 36.8854 23.3436 36.8553C23.2466 36.7952 22.3409 37.9782 22.3409 38.1587C22.3409 38.1887 22.2762 38.299 22.1899 38.3792C21.8988 38.69 20.8205 41.0461 20.4539 42.189C20.0334 43.5124 19.6452 45.7782 19.6452 46.9612C19.6452 47.4023 19.5913 47.8334 19.5374 47.9137C19.4727 48.0139 19.4296 48.0239 19.4296 47.9337C19.4296 47.7633 18.7395 47.7733 18.3621 47.9638C17.9847 48.1442 17.7691 48.5653 17.6181 49.4175C17.5534 49.7784 17.4133 50.5203 17.3162 51.0717C16.8634 53.6584 16.1625 55.0419 15.0519 55.5432C14.599 55.7437 14.3187 55.7838 12.9817 55.8139L11.4398 55.864L11.4829 55.2224C11.5152 54.7712 11.5692 54.5908 11.6662 54.6108C11.7417 54.6208 11.8495 54.5707 11.925 54.4905C11.9897 54.4003 12.3563 54.2298 12.7337 54.1095C13.6825 53.7987 13.8227 53.5581 13.9413 52.0944C14.2001 48.6656 14.1462 42.1088 13.8443 41.8982C13.8011 41.8682 13.7688 41.6977 13.758 41.5173C13.7472 41.1162 13.3806 40.0936 13.2512 40.0936C13.2081 40.0936 13.1973 40.0435 13.2297 39.9934C13.2728 39.9332 13.2081 39.7427 13.0895 39.5623C12.8738 39.2414 12.5288 38.6599 11.9681 37.7175C11.2133 36.4543 10.8467 35.0006 10.8144 33.1759C10.7928 32.1031 10.8252 31.7723 11.0192 31.1507C11.1486 30.7497 11.3104 30.3687 11.3643 30.2985C11.677 29.9376 12.1945 29.0253 12.1298 28.935C12.0975 28.8749 12.1191 28.8648 12.1838 28.9049C12.3563 29.0052 13.1326 27.4412 13.0032 27.2507C12.9817 27.2106 13.0032 27.1504 13.0571 27.1204C13.2404 27.0101 13.4237 25.6165 13.359 24.7242C13.3159 24.0525 13.2297 23.7217 12.9924 23.2805C12.7337 22.7792 12.1406 22.1276 11.6554 21.7967C11.2457 21.516 9.93021 21.0448 8.87353 20.7942C8.03249 20.5936 7.40711 20.3129 7.31007 20.0924C7.27772 20.0021 7.20224 19.962 7.13755 19.9921C7.07285 20.0322 7.06207 19.9821 7.1052 19.8818C7.15911 19.7515 7.13755 19.7314 7.02972 19.7916C6.94346 19.8417 6.91111 19.8317 6.96503 19.7615C6.99737 19.7014 6.94346 19.3906 6.83564 19.0697C6.71703 18.7489 6.59842 18.2777 6.56607 18.017L6.50138 17.5458L7.06207 17.4055C9.24014 16.844 9.63909 16.7338 9.941 16.5834C10.1243 16.4931 10.3076 16.3428 10.3399 16.2525C10.3831 16.1623 10.437 16.062 10.4801 16.032C10.5125 16.0019 10.685 15.7613 10.8467 15.4906C11.0732 15.1296 11.1163 14.9893 11.0192 14.9291C10.9222 14.879 10.9222 14.8389 11.0085 14.7888C11.0732 14.7487 11.1271 14.7687 11.1271 14.8389C11.1271 14.9191 11.2025 14.889 11.3427 14.7787C11.4613 14.6785 11.526 14.5582 11.4937 14.508C11.4613 14.4679 11.4721 14.4379 11.526 14.4479C11.5799 14.4679 11.8387 14.3176 12.0975 14.117C13.2836 13.2248 14.2756 12.9942 16.6801 13.0443L18.4053 13.0744L19.3218 11.4001C20.3892 9.4551 20.2599 9.47515 21.047 11.0993ZM18.7072 12.2723C18.6748 12.3626 18.6209 12.4127 18.5993 12.3826C18.567 12.3525 18.5778 12.2924 18.6209 12.2322C18.718 12.0718 18.7826 12.1019 18.7072 12.2723ZM22.5242 14.8489C22.4918 14.9291 22.4595 14.8991 22.4595 14.7888C22.4487 14.6785 22.481 14.6183 22.5134 14.6584C22.5457 14.6885 22.5565 14.7787 22.5242 14.8489ZM10.782 15.3302C10.7066 15.4404 10.6203 15.4805 10.5987 15.4204C10.5772 15.3602 10.6311 15.27 10.7066 15.2199C10.9222 15.0996 10.933 15.1096 10.782 15.3302ZM3.6548 17.3553C3.62245 17.4356 3.5901 17.4055 3.5901 17.2952C3.57932 17.1849 3.61167 17.1248 3.64402 17.1649C3.67636 17.1949 3.68715 17.2852 3.6548 17.3553ZM49.4157 17.5659C49.3079 17.6561 49.2971 17.6461 49.3618 17.5057C49.3942 17.4055 49.4589 17.3553 49.4912 17.3854C49.5236 17.4155 49.4912 17.4957 49.4157 17.5659ZM46.774 18.5584C47.173 18.8492 47.5827 19.16 47.6797 19.2402C47.7768 19.3304 48.0356 19.5309 48.2512 19.6813L48.661 19.972L50.1921 19.8818C52.3809 19.7515 54.6237 19.7816 54.5266 19.942C54.5051 19.972 54.6884 20.0823 54.9364 20.1926C55.5618 20.4733 56.5753 21.3756 56.8341 21.8769C57.2223 22.6389 57.2223 22.7993 56.8557 23.1101C56.6724 23.2605 56.4675 23.5512 56.392 23.7618C56.295 24.0926 56.3057 24.2029 56.5322 24.624C56.7263 24.9949 56.9203 25.1654 57.3301 25.3759C57.632 25.5263 57.9123 25.6666 57.9663 25.6867C58.0309 25.7067 58.0309 25.7769 57.9663 25.8672C57.9123 25.9474 57.8692 26.0877 57.8692 26.178C57.8692 26.2782 57.8369 26.3484 57.8045 26.3283C57.7722 26.3183 57.535 26.4787 57.2977 26.6792C56.7694 27.1204 55.896 27.5414 54.8501 27.8723C53.8258 28.1831 53.3298 28.4839 53.071 28.9651C52.8661 29.336 52.8553 29.4764 52.92 30.89C53.0063 32.6846 52.8769 33.6671 52.4564 34.4792C52.2947 34.78 52.1653 35.0908 52.1761 35.1509C52.1761 35.2211 52.1437 35.2612 52.1006 35.2312C52.0574 35.2011 51.8849 35.3715 51.7232 35.6121C51.5614 35.8427 51.3027 36.1535 51.1625 36.3039C51.0008 36.4643 50.9253 36.6147 50.9684 36.6949C51.0223 36.7651 51.0115 36.7952 50.9468 36.7551C50.7743 36.6548 50.1489 37.4368 50.2244 37.6574C50.2675 37.7877 50.2568 37.7977 50.1813 37.7075C50.1058 37.6072 49.998 37.6975 49.75 38.0584C48.4777 39.9132 47.7876 42.1689 47.6258 45.0062C47.5504 46.3496 47.7013 48.3949 47.9493 49.3172C48.0248 49.618 48.1973 50.2697 48.3375 50.771C48.6933 52.1244 49.1462 53.127 49.5559 53.4879C49.9656 53.8489 50.9684 54.1597 51.4213 54.0795C51.6585 54.0393 51.6801 54.0494 51.5075 54.1095C51.3027 54.1998 51.3027 54.1998 51.5291 54.2699C51.6693 54.31 51.831 54.31 51.8957 54.2699C51.9712 54.2298 51.9927 54.2399 51.9496 54.31C51.9173 54.3702 51.9496 54.4504 52.0359 54.5005C52.1976 54.5908 52.3809 55.1422 52.3809 55.5332C52.3701 55.7838 52.3594 55.7838 51.4536 55.7638C49.7823 55.7237 48.4022 55.2424 47.5611 54.4103C47.1191 53.9792 45.9546 52.325 45.9546 52.1345C45.9546 52.0543 45.9222 52.0242 45.8899 52.0543C45.8467 52.0944 45.7389 51.9741 45.6311 51.7936C45.4154 51.3926 44.6822 51.0417 43.9274 50.9514C43.5393 50.9113 43.3883 50.8612 43.453 50.781C43.6687 50.5203 43.852 49.1869 43.8412 47.9638C43.8412 46.9612 43.7765 46.4599 43.5932 45.7882C43.1727 44.2643 42.364 42.6502 42.1591 42.9209C42.0836 43.0111 42.0728 43.0011 42.116 42.8707C42.2022 42.6301 41.8141 42.1389 40.8652 41.2666C40.0673 40.5448 39.6144 40.244 38.5038 39.7227C37.3932 39.2114 36.5953 39.0509 35.1181 39.0509C33.9968 39.0509 33.7056 39.091 32.9832 39.3216C31.7756 39.7126 31.0424 40.1337 30.2121 40.9157C28.2066 42.8106 27.7429 45.5777 29.026 47.9137C29.3495 48.5052 30.6973 49.7584 30.9237 49.6782C31.01 49.6481 31.0639 49.6581 31.0316 49.7083C30.9992 49.7584 31.1717 49.8887 31.4305 49.999C32.3255 50.38 33.0695 50.5504 33.8458 50.5504C34.5251 50.5504 34.6653 50.5203 34.9995 50.2797C35.2152 50.1293 35.3877 49.9288 35.3877 49.8286C35.3877 49.7383 35.4416 49.608 35.5171 49.5378C35.7004 49.3674 35.4632 48.7157 35.0966 48.3949C34.7515 48.1041 34.2124 47.9137 33.7272 47.9137C33.3282 47.9137 32.6166 47.6229 32.1098 47.262C31.7971 47.0414 31.6462 46.8309 31.1717 45.8985C31.01 45.5877 31.1394 44.3746 31.3982 43.763C31.6785 43.0913 32.4009 42.3394 33.0802 42.0185C34.3957 41.397 36.4228 41.5273 37.8138 42.3293C38.9567 42.981 40.0673 44.2442 40.5094 45.4072C41.1995 47.2018 41.124 49.8185 40.3261 51.3825C40.1967 51.6432 40.0997 51.9139 40.0997 51.9841C40.0997 52.0643 40.0781 52.1044 40.0457 52.0743C40.0134 52.0543 39.8948 52.1946 39.7762 52.4052C39.3557 53.1471 38.3852 54.1296 37.4256 54.7813C35.1289 56.3553 30.762 56.5558 27.6782 55.2324C26.0932 54.5507 25.1443 53.8388 24.1416 52.6057C22.9986 51.1921 22.3301 48.7558 22.4918 46.6604C22.5997 45.3471 22.9555 43.4622 23.2682 42.6301C23.4191 42.2291 23.5054 41.8481 23.4623 41.7779C23.4191 41.7077 23.4299 41.6977 23.5054 41.7378C23.5809 41.7779 23.6348 41.7479 23.6348 41.6777C23.6348 41.4671 24.6591 39.5522 25.112 38.9206C25.6942 38.0784 26.2549 37.4669 27.3547 36.4342C28.53 35.3414 28.6163 35.2813 29.8131 34.5494C30.859 33.9178 31.6354 33.5368 32.6921 33.1358C33.0802 32.9854 33.49 32.825 33.6086 32.7749C33.7272 32.7247 34.3095 32.5443 34.9025 32.3638C37.0266 31.7422 38.148 31.3312 39.0537 30.8499C40.4663 30.108 41.5984 29.0353 42.2669 27.8121C42.5904 27.2407 43.3128 24.9648 43.205 24.8646C43.1727 24.8445 43.1942 24.7744 43.2481 24.7142C43.3021 24.654 43.3991 24.3332 43.4746 24.0024C43.5393 23.6715 43.7657 22.9196 43.9706 22.3381C44.1754 21.7466 44.3264 21.2052 44.3048 21.135C44.2833 21.0548 44.2833 21.0348 44.3156 21.0849C44.3911 21.2253 44.7793 20.2127 44.7146 20.0422C44.6714 19.962 44.6822 19.9319 44.7253 19.972C44.8008 20.0422 45.7389 18.3379 45.7389 18.1273C45.7389 17.9268 46.0732 18.0672 46.774 18.5584ZM57.5457 19.0397C57.5134 19.0898 57.4163 19.1399 57.3517 19.1399C57.2762 19.1399 57.287 19.0998 57.384 19.0397C57.5889 18.9194 57.632 18.9194 57.5457 19.0397ZM6.64155 19.2201C6.6739 19.2703 6.63077 19.3104 6.54451 19.3104C6.45825 19.3104 6.41512 19.2703 6.44747 19.2201C6.47981 19.18 6.52294 19.1399 6.54451 19.1399C6.56607 19.1399 6.6092 19.18 6.64155 19.2201ZM45.0596 19.3605C45.0273 19.4407 44.9949 19.4106 44.9949 19.3003C44.9841 19.19 45.0165 19.1299 45.0488 19.17C45.0812 19.2001 45.0919 19.2903 45.0596 19.3605ZM55.4431 20.1425C55.3569 20.1926 55.3785 20.2327 55.5078 20.2828C55.6049 20.3129 55.6588 20.3731 55.6372 20.4032C55.6049 20.4332 55.4216 20.3731 55.2383 20.2628L54.904 20.0723H55.2275C55.4108 20.0723 55.5078 20.1024 55.4431 20.1425ZM41.3936 22.0674C41.3612 22.1476 41.3289 22.1175 41.3289 22.0073C41.3181 21.897 41.3504 21.8368 41.3828 21.8769C41.4151 21.907 41.4259 21.9972 41.3936 22.0674ZM43.6579 22.1677C43.6255 22.2479 43.5932 22.2178 43.5932 22.1075C43.5824 21.9972 43.6147 21.9371 43.6471 21.9772C43.6794 22.0073 43.6902 22.0975 43.6579 22.1677ZM43.5932 22.8093C43.5393 22.9697 43.4854 23.0199 43.4854 22.9296C43.4746 22.7492 43.5932 22.4183 43.6471 22.4785C43.6687 22.4885 43.6363 22.6389 43.5932 22.8093ZM7.02972 22.7492C7.11598 22.7993 7.14833 22.8494 7.08363 22.8494C7.02972 22.8494 6.90033 22.7993 6.81407 22.7492C6.72781 22.699 6.70625 22.6489 6.76016 22.6489C6.82485 22.6489 6.94346 22.699 7.02972 22.7492ZM10.0488 23.7918C10.0488 23.8119 9.95178 23.8119 9.83317 23.7818C9.71456 23.7517 9.61752 23.6916 9.61752 23.6314C9.61752 23.5813 9.71456 23.5913 9.83317 23.6515C9.95178 23.7116 10.0488 23.7718 10.0488 23.7918ZM60.1982 23.8219C60.3384 23.9924 60.3384 23.9924 60.1335 23.852C60.0149 23.7718 59.8963 23.6916 59.8748 23.6816C59.8532 23.6615 59.8748 23.6515 59.9394 23.6515C60.0041 23.6515 60.1228 23.7317 60.1982 23.8219ZM27.4086 24.4034C27.5488 24.5438 27.6351 24.654 27.6027 24.654C27.5812 24.654 27.441 24.5438 27.3008 24.4034C27.1607 24.263 27.0744 24.1528 27.1067 24.1528C27.1283 24.1528 27.2685 24.263 27.4086 24.4034ZM57.233 25.0451C57.1899 25.0952 57.2223 25.1654 57.2762 25.1854C57.3409 25.2155 57.3301 25.2255 57.2546 25.2155C57.0929 25.1854 57.0066 24.9548 57.1684 24.9548C57.233 24.9548 57.2654 24.9949 57.233 25.0451ZM57.9231 25.0551C57.8369 25.1052 57.7183 25.1553 57.6536 25.1553C57.5996 25.1553 57.6212 25.1052 57.7075 25.0551C57.7937 25.0049 57.9231 24.9548 57.977 24.9548C58.0417 24.9548 58.0094 25.0049 57.9231 25.0551ZM42.8492 25.6767C42.7629 25.7569 42.7521 25.7168 42.7953 25.5463C42.8384 25.416 42.8815 25.3659 42.9139 25.4461C42.9355 25.5163 42.9031 25.6265 42.8492 25.6767ZM25.8991 25.9975C25.8991 26.0175 25.8236 26.0677 25.7266 26.0977C25.6403 26.1278 25.5972 26.1178 25.6295 26.0576C25.6942 25.9574 25.8991 25.9173 25.8991 25.9975ZM10.5125 26.8597C10.4801 26.98 10.4262 27.0502 10.3939 27.0201C10.3399 26.96 10.4478 26.6592 10.5233 26.6592C10.5448 26.6592 10.5448 26.7494 10.5125 26.8597ZM26.6 26.7594C26.6323 26.8096 26.6107 26.8597 26.5568 26.8597C26.4921 26.8597 26.4382 26.8096 26.4382 26.7594C26.4382 26.6993 26.4598 26.6592 26.4814 26.6592C26.5137 26.6592 26.5676 26.6993 26.6 26.7594ZM27.8076 27.3911C27.8831 27.3911 27.9154 27.4312 27.8831 27.4813C27.8507 27.5214 27.9154 27.5615 28.0233 27.5715C28.1311 27.5715 28.1634 27.6016 28.0987 27.6217C28.0233 27.6517 27.8076 27.5715 27.6135 27.4512C27.4086 27.3409 27.344 27.2708 27.4626 27.3109C27.5812 27.351 27.7321 27.3911 27.8076 27.3911ZM41.7817 28.3736C41.6847 28.4638 41.6523 28.4438 41.6739 28.2833C41.6847 28.143 41.7278 28.1029 41.7925 28.163C41.868 28.2332 41.8572 28.3034 41.7817 28.3736ZM9.41265 28.4939C9.30483 28.5841 9.29405 28.5741 9.35874 28.4337C9.39109 28.3335 9.45578 28.2833 9.48813 28.3134C9.52048 28.3435 9.48813 28.4237 9.41265 28.4939ZM9.52048 28.7947C9.41265 28.8849 9.40187 28.8749 9.46657 28.7345C9.49891 28.6342 9.56361 28.5841 9.59596 28.6142C9.6283 28.6443 9.59596 28.7245 9.52048 28.7947ZM8.61475 30.1882C8.5824 30.2684 8.55006 30.2384 8.55006 30.1281C8.53927 30.0178 8.57162 29.9576 8.60397 29.9977C8.63631 30.0278 8.6471 30.1181 8.61475 30.1882ZM11.2349 30.108C11.2349 30.1381 11.1918 30.1882 11.1271 30.2183C11.0732 30.2484 11.0192 30.2283 11.0192 30.1782C11.0192 30.1181 11.0732 30.0679 11.1271 30.0679C11.1918 30.0679 11.2349 30.088 11.2349 30.108ZM27.3008 33.2761C27.3008 33.3263 27.2469 33.3764 27.1822 33.3764C27.1283 33.3764 27.1067 33.3263 27.1391 33.2761C27.1714 33.216 27.2253 33.1759 27.2577 33.1759C27.2793 33.1759 27.3008 33.216 27.3008 33.2761ZM54.807 35.5119C54.6992 35.6021 54.6884 35.5921 54.7531 35.4517C54.7854 35.3515 54.8501 35.3013 54.8825 35.3314C54.9148 35.3615 54.8825 35.4417 54.807 35.5119ZM53.9983 37.0057C53.9012 37.126 53.8258 37.1761 53.8258 37.106C53.8258 36.9155 53.8689 36.8353 53.9659 36.8653C54.0199 36.8754 54.0306 36.7851 53.9875 36.6648C53.9336 36.4643 53.9444 36.4543 54.0414 36.6147C54.1277 36.745 54.1169 36.8353 53.9983 37.0057ZM24.5297 39.4419C24.4974 39.5322 24.4435 39.5823 24.4219 39.5522C24.3895 39.5221 24.4003 39.462 24.4435 39.4018C24.5405 39.2414 24.6052 39.2715 24.5297 39.4419ZM32.3147 39.9733C32.2823 40.0034 32.1961 39.9733 32.1206 39.9031C32.0236 39.8029 32.0343 39.7928 32.1853 39.853C32.2931 39.8831 32.347 39.9432 32.3147 39.9733ZM51.3566 40.1237C51.2488 40.2139 51.238 40.2039 51.3027 40.0635C51.335 39.9633 51.3997 39.9132 51.4321 39.9432C51.4644 39.9733 51.4321 40.0535 51.3566 40.1237ZM11.6662 40.1337C11.6662 40.1638 11.6231 40.2139 11.5584 40.244C11.5045 40.2741 11.4505 40.254 11.4505 40.2039C11.4505 40.1437 11.5045 40.0936 11.5584 40.0936C11.6231 40.0936 11.6662 40.1137 11.6662 40.1337ZM24.0445 40.4846C23.969 40.5748 23.9043 40.6551 23.8936 40.6751C23.8828 40.6851 23.8828 40.5648 23.8936 40.4044C23.9043 40.1838 23.9367 40.1337 24.0445 40.2139C24.1523 40.2941 24.1523 40.3543 24.0445 40.4846ZM13.359 40.8155C13.3267 40.8957 13.2944 40.8656 13.2944 40.7553C13.2836 40.645 13.3159 40.5849 13.3483 40.625C13.3806 40.6551 13.3914 40.7453 13.359 40.8155ZM50.4509 42.2191C50.4185 42.2993 50.3862 42.2692 50.3862 42.1589C50.3754 42.0486 50.4077 41.9885 50.4401 42.0286C50.4724 42.0586 50.4832 42.1489 50.4509 42.2191ZM20.5402 42.5499C20.5078 42.6401 20.4539 42.6903 20.4324 42.6602C20.4 42.6301 20.4108 42.57 20.4539 42.5098C20.551 42.3494 20.6157 42.3795 20.5402 42.5499ZM50.5048 42.8507C50.5371 42.981 50.5155 43.0712 50.4724 43.0412C50.3754 42.991 50.3322 42.6 50.4185 42.6C50.4401 42.6 50.4832 42.7103 50.5048 42.8507ZM30.9345 44.6252C30.9022 44.6954 30.8806 44.6453 30.8806 44.5049C30.8806 44.3646 30.9022 44.3144 30.9345 44.3746C30.9561 44.4448 30.9561 44.5651 30.9345 44.6252ZM49.6206 46.5502C49.6206 46.5802 49.5775 46.6304 49.5128 46.6604C49.4589 46.6905 49.4049 46.6705 49.4049 46.6203C49.4049 46.5602 49.4589 46.5101 49.5128 46.5101C49.5775 46.5101 49.6206 46.5301 49.6206 46.5502ZM29.5005 48.1743C29.5328 48.2545 29.522 48.2946 29.4573 48.2646C29.3926 48.2345 29.3495 48.1643 29.3495 48.1041C29.3495 47.9638 29.425 47.9939 29.5005 48.1743ZM34.8594 48.6455C34.7515 48.7358 34.7407 48.7257 34.8054 48.5854C34.8378 48.4851 34.9025 48.435 34.9348 48.4651C34.9672 48.4951 34.9348 48.5753 34.8594 48.6455ZM32.7676 49.9789C32.7352 50.009 32.6382 50.019 32.5627 49.989C32.4764 49.9589 32.5088 49.9288 32.6274 49.9288C32.746 49.9188 32.8107 49.9489 32.7676 49.9789ZM40.5741 51.3525C40.4663 51.4427 40.4555 51.4327 40.5202 51.2923C40.5525 51.1921 40.6172 51.1419 40.6496 51.172C40.6819 51.2021 40.6496 51.2823 40.5741 51.3525ZM53.8366 52.5956C53.9767 52.7561 53.9659 52.7661 53.8042 52.6358C53.6964 52.5656 53.6101 52.4854 53.6101 52.4653C53.6101 52.3851 53.6964 52.4352 53.8366 52.5956ZM13.2944 53.7586C13.1865 53.8489 13.1757 53.8388 13.2404 53.6985C13.2728 53.5982 13.3375 53.5481 13.3698 53.5782C13.4022 53.6082 13.3698 53.6885 13.2944 53.7586ZM43.1834 53.8689C44.2401 54.2699 44.0245 55.4229 42.8492 55.7237C42.6335 55.7838 41.9435 55.8339 41.3181 55.8339H40.1859L40.5633 55.5031C41.1132 55.0219 41.5553 54.5306 41.8464 54.0995C42.0513 53.7887 42.1483 53.7286 42.461 53.7286C42.6659 53.7286 42.9894 53.7887 43.1834 53.8689ZM37.8138 54.8314C37.7814 54.8815 37.6844 54.9316 37.6197 54.9316C37.5442 54.9316 37.555 54.8915 37.652 54.8314C37.8569 54.7111 37.9 54.7111 37.8138 54.8314ZM23.0417 55.0319C23.0741 55.092 23.031 55.1021 22.9447 55.072C22.7506 55.0018 22.7183 54.9316 22.8692 54.9316C22.9339 54.9316 23.0094 54.9717 23.0417 55.0319ZM18.5454 55.6435C18.5131 55.7237 18.47 55.6735 18.4268 55.5432C18.3837 55.3728 18.3945 55.3327 18.4807 55.4129C18.5347 55.463 18.567 55.5733 18.5454 55.6435ZM23.9043 55.9442C24.0445 56.1447 23.9043 56.0946 23.6348 55.854C23.3868 55.6334 23.3868 55.6134 23.6024 55.7237C23.7318 55.7838 23.872 55.8841 23.9043 55.9442ZM43.2589 55.8339C43.1727 55.8841 43.0217 55.9242 42.9355 55.9242C42.8276 55.9242 42.8492 55.8941 42.9894 55.8339C43.2805 55.7136 43.453 55.7136 43.2589 55.8339ZM14.1138 55.9944C14.0815 56.0244 13.9844 56.0345 13.909 56.0044C13.8227 55.9743 13.855 55.9442 13.9737 55.9442C14.0923 55.9342 14.157 55.9643 14.1138 55.9944ZM35.3554 55.9944C35.323 56.0244 35.226 56.0345 35.1505 56.0044C35.0642 55.9743 35.0966 55.9442 35.2152 55.9442C35.3338 55.9342 35.3985 55.9643 35.3554 55.9944ZM9.64987 57.3077C9.61752 57.3779 9.55283 57.408 9.49891 57.3779C9.34796 57.2977 9.38031 57.1674 9.55283 57.1674C9.63909 57.1674 9.68222 57.2275 9.64987 57.3077ZM50.1274 57.8992C50.095 57.9293 49.998 57.9393 49.9225 57.9093C49.8362 57.8792 49.8686 57.8491 49.9872 57.8491C50.1058 57.8391 50.1705 57.8692 50.1274 57.8992ZM40.38 58.0095C40.1212 58.0296 39.7115 58.0296 39.4635 58.0095C39.2047 57.9895 39.4096 57.9694 39.9164 57.9694C40.4231 57.9694 40.628 57.9895 40.38 58.0095ZM52.4995 57.9995C52.4672 58.0296 52.3701 58.0396 52.2947 58.0095C52.2084 57.9794 52.2407 57.9494 52.3594 57.9494C52.478 57.9393 52.5427 57.9694 52.4995 57.9995ZM38.0078 58.21C37.8677 58.2301 37.652 58.2301 37.5226 58.21C37.3825 58.19 37.4903 58.1699 37.7598 58.1699C38.0294 58.1699 38.1372 58.19 38.0078 58.21Z" fill="#65A30D"/>
<path d="M12.4085 17.5849C12.0011 17.6928 11.55 18.0883 11.55 18.34C11.55 18.5846 11.9575 18.901 12.4231 19.0232C12.9323 19.1527 13.2088 19.1599 13.0633 19.0376C12.9906 18.9729 13.0051 18.9729 13.1506 19.0376C13.5144 19.203 14.4602 18.901 14.7366 18.5198C14.9112 18.2753 14.8967 18.225 14.6057 17.9445C14.14 17.4914 13.267 17.3548 12.4085 17.5849Z" fill="#65A30D"/>
<path d="M53.3824 22.5606C52.7915 22.8914 52.6097 24.2435 53.0263 25.1928C53.2157 25.6387 53.3067 25.725 53.5415 25.725C53.8824 25.725 54.1703 25.351 54.337 24.6894C54.4961 24.0996 54.4885 23.8839 54.3067 23.3085C54.1854 22.9346 53.7309 22.3592 53.6097 22.4311C53.5945 22.4311 53.496 22.4887 53.3824 22.5606ZM54.2309 23.4236C54.2309 23.4955 54.2158 23.5674 54.2006 23.5674C54.1779 23.5674 54.14 23.4955 54.1173 23.4236C54.0945 23.3373 54.1097 23.2798 54.1476 23.2798C54.193 23.2798 54.2309 23.3373 54.2309 23.4236ZM54.1248 24.977C53.9961 25.2072 53.9885 25.2072 54.087 24.9051C54.14 24.7325 54.2006 24.6174 54.2233 24.6606C54.2461 24.6894 54.2006 24.8332 54.1248 24.977ZM53.2536 25.2503C53.3521 25.4805 53.3445 25.4948 53.2309 25.3079C53.1551 25.2072 53.0945 25.0921 53.0945 25.0633C53.0945 24.9483 53.1551 25.0202 53.2536 25.2503ZM53.6476 25.538C53.5945 25.5668 53.5036 25.5668 53.4582 25.538C53.4051 25.4948 53.443 25.4661 53.5491 25.4661C53.6551 25.4661 53.693 25.4948 53.6476 25.538Z" fill="#65A30D"/>
<path d="M55.1264 40.7237C54.9266 40.8266 54.7553 41.0554 54.6221 41.4101C54.4033 41.9364 54.4033 41.9364 54.565 43.1148C54.8124 44.8882 54.8409 45.7462 54.7077 47.348C54.6031 48.5493 54.6031 48.8582 54.7077 49.087C54.7743 49.2357 54.879 49.3387 54.9266 49.2929C54.9836 49.2586 54.9932 49.2815 54.9551 49.3616C54.8505 49.5675 55.2881 49.9336 55.6401 49.9451C56.6485 49.9565 57.2003 48.6637 57.2003 46.3183C57.2003 45.6776 57.1718 45.0941 57.1337 45.0255C57.1052 44.9683 57.1242 44.9111 57.1813 44.9111C57.2384 44.9111 57.3145 45.0026 57.343 45.1055C57.3811 45.22 57.4382 45.3344 57.4762 45.3687C57.5428 45.4259 57.8568 46.0666 58.0946 46.6272C58.6084 47.8171 58.6464 50.048 58.1898 51.2837C57.8758 52.1074 57.7712 52.2333 57.1623 52.5078C56.6485 52.7367 56.3536 53.1142 56.268 53.6748C56.1919 54.1553 56.268 54.5215 56.4868 54.8189C57.0196 55.5283 57.5333 55.6083 58.38 55.0935C59.9403 54.1439 60.8251 52.2676 61.0344 49.4302C61.158 47.737 60.5396 45.3115 59.6073 43.8127C58.8652 42.6229 57.4192 41.1355 57.1813 41.3071C57.1242 41.3529 57.0957 41.3186 57.1052 41.2385C57.1433 41.044 56.1824 40.5749 55.7543 40.5749C55.5735 40.5749 55.2881 40.6436 55.1264 40.7237ZM59.6168 44.2932C59.6263 44.4534 59.6168 44.5564 59.5883 44.5221C59.5502 44.4877 59.5122 44.3161 59.5027 44.1559C59.4836 43.9958 59.5027 43.8814 59.5312 43.9271C59.5597 43.9615 59.5978 44.1216 59.6168 44.2932ZM59.7785 53.0913C59.75 53.1943 59.7024 53.2515 59.6834 53.2172C59.6549 53.1829 59.6644 53.1142 59.7024 53.0456C59.7881 52.8625 59.8451 52.8968 59.7785 53.0913Z" fill="#65A30D"/>
</svg>
