<svg width="66" height="62" viewBox="0 0 66 62" fill="none" xmlns="http://www.w3.org/2000/svg">
<path d="M19.5698 5.14157C19.1708 5.38219 18.8473 5.79324 18.9552 5.95365C18.9983 6.01381 18.9875 6.03386 18.912 5.99376C18.718 5.88347 16.9928 8.7408 17.1006 9.01149C17.1329 9.09169 17.1221 9.12177 17.0574 9.09169C17.0035 9.06161 16.9065 9.13179 16.8418 9.24208C16.7448 9.41251 16.6154 9.44259 15.8929 9.44259C13.7257 9.44259 11.3643 10.2045 10.0273 11.3274C9.70378 11.5981 9.63909 11.6984 9.74691 11.7786C9.85474 11.8488 9.84395 11.8588 9.71456 11.8187C9.60674 11.7886 9.42344 11.8688 9.2617 12.0292C8.90588 12.3901 8.2158 13.3727 8.2158 13.523C8.2158 13.6734 8.14032 13.6935 6.23182 14.0043C4.24784 14.3251 3.73028 14.5356 3.44993 15.1171C3.25585 15.5282 3.25585 15.5883 3.41758 16.1799C3.51463 16.5308 3.6548 17.1523 3.74106 17.5734C3.94593 18.6662 4.16158 19.2678 4.61444 20.0698C5.29374 21.2729 6.2426 21.8845 8.22658 22.4259C9.33718 22.7266 9.80082 22.9071 10.1566 23.1878C10.4154 23.3883 10.4262 23.4485 10.4154 24.421C10.4046 25.584 10.2429 26.0351 9.40187 27.2282C8.86275 27.9901 8.43145 28.8924 8.14032 29.9151C7.9031 30.7071 7.88154 33.6346 8.08641 34.5569C8.49614 36.3014 9.61752 38.8179 9.85474 38.5071C9.941 38.3968 9.95178 38.4068 9.89787 38.5472C9.82239 38.7577 10.0812 39.1587 10.2106 39.0384C10.2645 38.9983 10.2645 39.0184 10.2321 39.0785C10.189 39.1387 10.3292 39.5497 10.534 39.9808C11.1379 41.2942 11.181 41.7253 11.1702 46.2369C11.1702 48.4726 11.1379 50.4577 11.0947 50.6482C11.03 50.9289 10.9114 51.0592 10.4693 51.2999C9.693 51.7209 9.17544 52.3124 8.87353 53.0945C8.65788 53.6659 8.62553 53.8965 8.66866 54.7888C8.70101 55.661 8.74414 55.8816 8.98135 56.2626C9.13231 56.5132 9.31561 56.7037 9.38031 56.6937C9.45578 56.6736 9.49891 56.7238 9.47735 56.7839C9.46657 56.8541 9.70378 57.0245 9.99491 57.1649C10.5125 57.4055 10.6095 57.4155 12.6366 57.4155C14.653 57.4155 14.7716 57.3955 15.591 57.1348C17.8877 56.3829 19.0199 54.9693 19.807 51.8713C19.9579 51.2999 20.0765 50.7384 20.0765 50.6281C20.0765 50.3374 20.3569 50.568 20.4539 50.9289C20.5725 51.3801 21.5645 52.9741 22.0282 53.4554C22.2762 53.706 22.4379 53.8263 22.4056 53.7261C22.3624 53.6158 22.384 53.5657 22.4595 53.6058C22.5134 53.6459 22.535 53.7561 22.5026 53.8464C22.384 54.2073 24.3464 55.6911 25.8991 56.413C28.7888 57.7564 32.4333 58.1073 35.7543 57.3754C36.4552 57.215 36.6169 57.215 36.9727 57.3253C37.2746 57.4255 38.1265 57.4657 40.1428 57.4657C42.8061 57.4657 42.9355 57.4556 43.7334 57.215C44.6606 56.9343 45.286 56.5232 45.5879 56.0119C45.7712 55.6811 45.7928 55.6711 46.03 55.8214C46.1702 55.9016 46.3427 55.9417 46.4074 55.9016C46.4829 55.8615 46.4937 55.8716 46.4505 55.9417C46.3427 56.1122 47.4102 56.6937 48.3806 56.9844C49.4804 57.3153 51.1301 57.5158 52.2192 57.4356C54.1816 57.2952 55.2167 56.2525 55.2275 54.4178C55.2275 53.2148 54.8501 52.3124 54.0199 51.5906C53.6533 51.2798 53.4376 51.1495 53.3082 51.1996C53.2112 51.2297 53.168 51.2297 53.2112 51.1896C53.3082 51.0993 52.9308 50.9189 52.2839 50.7585C51.6693 50.5981 51.583 50.4677 51.1948 49.1844C50.4616 46.7081 50.3107 43.5199 50.8498 41.4747C51.2272 40.0611 51.8526 38.7878 52.6289 37.9156C54.6776 35.5796 55.3785 34.2762 55.7343 32.1307C55.8637 31.3187 55.8852 30.8976 55.8098 30.2459L55.7127 29.4037L56.0362 29.2834C58.1496 28.5516 59.3788 27.6793 60.2198 26.3158C60.6403 25.6441 61.05 24.5313 61.05 24.0901C61.0393 23.7292 60.705 23.0775 60.36 22.7868C60.1335 22.5963 60.0796 22.4459 60.0796 22.095C60.0796 21.4834 59.7022 20.3505 59.2494 19.5886C58.872 18.967 57.287 17.3629 57.039 17.3629C56.9743 17.3629 56.7478 17.2426 56.5537 17.1022C56.3489 16.9619 56.0685 16.8315 55.9284 16.8215C55.7882 16.8215 55.6911 16.7914 55.7235 16.7714C55.7451 16.7513 55.6911 16.6811 55.5941 16.611C55.4324 16.5107 55.4324 16.4506 55.6049 15.9392C55.7127 15.6385 55.7666 15.2775 55.7343 15.1372C55.6372 14.7863 55.2706 14.3752 54.8825 14.1948C54.1816 13.8539 53.5023 14.2248 52.4672 15.5182L51.8957 16.25L50.7851 16.2801C49.5559 16.3202 49.6529 16.3503 48.5208 15.5482C47.5935 14.8865 46.3427 14.1948 45.9222 14.1045C45.4693 13.9943 44.9302 14.1346 44.5744 14.4354C43.5501 15.3277 41.6523 19.1074 40.9407 21.6739C40.9083 21.8143 40.8113 22.1451 40.725 22.4259C40.6496 22.6966 40.4555 23.4886 40.2937 24.1804C40.1428 24.8721 39.9703 25.4737 39.9164 25.5238C39.7654 25.6642 33.1665 25.4235 32.0775 25.2331C30.7512 25.0025 29.4897 24.6014 28.7457 24.1703C28.3791 23.9498 28.0125 23.7894 27.937 23.7994C27.8615 23.8194 27.7968 23.7593 27.786 23.669C27.786 23.4685 27.1499 22.9572 27.0313 23.0575C26.9773 23.0976 26.9773 23.0775 27.0205 23.0074C27.0636 22.9372 26.9234 22.6665 26.7186 22.4058C25.7374 21.1325 25.3923 19.8292 25.2521 16.8115C25.1982 15.7086 25.1012 14.3552 25.0257 13.8038C24.9179 12.8614 24.4542 10.9164 24.2817 10.6958C24.2494 10.6357 24.1523 10.395 24.0769 10.1444C23.7534 9.06161 22.1037 6.33463 21.2734 5.50249C20.6912 4.91098 20.1412 4.8007 19.5698 5.14157ZM21.0793 5.5827C21.0038 5.79324 20.9499 5.77319 20.9715 5.5426C20.9715 5.43232 21.0254 5.36214 21.0685 5.39221C21.1117 5.42229 21.1225 5.50249 21.0793 5.5827ZM21.047 10.1243C21.8988 11.9189 22.1899 13.3626 22.3409 16.5608C22.4271 18.6362 22.5781 20.0999 22.7398 20.4709C22.7722 20.5511 22.8261 20.7115 22.8477 20.8218C22.9123 21.1927 23.5054 22.6364 23.7426 23.0374C24.3464 24.03 24.8748 24.6816 25.0257 24.6315C25.1228 24.6014 25.1551 24.6014 25.1228 24.6415C25.0042 24.7418 25.2521 25.0927 25.3815 25.0225C25.4462 24.9824 25.4678 24.9924 25.4355 25.0526C25.3492 25.1829 25.7158 25.5037 25.9099 25.4636C25.9854 25.4436 26.0501 25.4837 26.0608 25.5539C26.0608 25.7343 26.9773 26.3459 27.8507 26.7469C29.673 27.5991 31.7109 28.0102 34.7839 28.1505C36.3689 28.2207 36.7355 28.3109 35.9268 28.4313C34.7407 28.6017 30.1905 30.2459 29.3603 30.7873C29.1878 30.9076 29.0045 30.9978 28.9613 30.9978C28.7672 30.9978 27.7429 31.7397 27.8076 31.83C27.8399 31.8901 27.8184 31.9001 27.7429 31.86C27.5488 31.7498 25.7805 33.0631 24.9826 33.9053C24.8101 34.0958 24.5836 34.3163 24.4974 34.4066C23.8504 35.0282 23.3005 35.7199 23.376 35.8202C23.4191 35.8904 23.4083 35.9104 23.3436 35.8803C23.2466 35.8202 22.3409 37.0032 22.3409 37.1837C22.3409 37.2138 22.2762 37.324 22.1899 37.4042C21.8988 37.715 20.8205 40.0711 20.4539 41.214C20.0334 42.5374 19.6452 44.8032 19.6452 45.9862C19.6452 46.4274 19.5913 46.8585 19.5374 46.9387C19.4727 47.0389 19.4296 47.049 19.4296 46.9587C19.4296 46.7883 18.7395 46.7983 18.3621 46.9888C17.9847 47.1693 17.7691 47.5903 17.6181 48.4425C17.5534 48.8035 17.4133 49.5454 17.3162 50.0968C16.8634 52.6834 16.1625 54.0669 15.0519 54.5682C14.599 54.7687 14.3187 54.8088 12.9817 54.8389L11.4398 54.889L11.4829 54.2474C11.5152 53.7962 11.5692 53.6158 11.6662 53.6358C11.7417 53.6459 11.8495 53.5957 11.925 53.5155C11.9897 53.4253 12.3563 53.2549 12.7337 53.1346C13.6825 52.8238 13.8227 52.5831 13.9413 51.1194C14.2001 47.6906 14.1462 41.1338 13.8443 40.9233C13.8011 40.8932 13.7688 40.7227 13.758 40.5423C13.7472 40.1413 13.3806 39.1186 13.2512 39.1186C13.2081 39.1186 13.1973 39.0685 13.2297 39.0184C13.2728 38.9582 13.2081 38.7677 13.0895 38.5873C12.8738 38.2665 12.5288 37.685 11.9681 36.7425C11.2133 35.4793 10.8467 34.0256 10.8144 32.2009C10.7928 31.1282 10.8252 30.7973 11.0192 30.1757C11.1486 29.7747 11.3104 29.3937 11.3643 29.3235C11.677 28.9626 12.1945 28.0503 12.1298 27.96C12.0975 27.8999 12.1191 27.8899 12.1838 27.93C12.3563 28.0302 13.1326 26.4662 13.0032 26.2757C12.9817 26.2356 13.0032 26.1755 13.0571 26.1454C13.2404 26.0351 13.4237 24.6415 13.359 23.7493C13.3159 23.0775 13.2297 22.7467 12.9924 22.3056C12.7337 21.8043 12.1406 21.1526 11.6554 20.8218C11.2457 20.541 9.93021 20.0698 8.87353 19.8192C8.03249 19.6187 7.40711 19.3379 7.31007 19.1174C7.27772 19.0272 7.20224 18.987 7.13755 19.0171C7.07285 19.0572 7.06207 19.0071 7.1052 18.9068C7.15911 18.7765 7.13755 18.7565 7.02972 18.8166C6.94346 18.8667 6.91111 18.8567 6.96503 18.7865C6.99737 18.7264 6.94346 18.4156 6.83564 18.0948C6.71703 17.7739 6.59842 17.3027 6.56607 17.0421L6.50138 16.5709L7.06207 16.4305C9.24014 15.8691 9.63909 15.7588 9.941 15.6084C10.1243 15.5182 10.3076 15.3678 10.3399 15.2775C10.3831 15.1873 10.437 15.0871 10.4801 15.057C10.5125 15.0269 10.685 14.7863 10.8467 14.5156C11.0732 14.1547 11.1163 14.0143 11.0192 13.9542C10.9222 13.904 10.9222 13.8639 11.0085 13.8138C11.0732 13.7737 11.1271 13.7937 11.1271 13.8639C11.1271 13.9441 11.2025 13.9141 11.3427 13.8038C11.4613 13.7035 11.526 13.5832 11.4937 13.5331C11.4613 13.493 11.4721 13.4629 11.526 13.4729C11.5799 13.493 11.8387 13.3426 12.0975 13.1421C13.2836 12.2498 14.2756 12.0192 16.6801 12.0693L18.4053 12.0994L19.3218 10.4251C20.3892 8.48013 20.2599 8.50018 21.047 10.1243ZM18.7072 11.2973C18.6748 11.3876 18.6209 11.4377 18.5993 11.4076C18.567 11.3776 18.5778 11.3174 18.6209 11.2572C18.718 11.0968 18.7826 11.1269 18.7072 11.2973ZM22.5242 13.8739C22.4918 13.9542 22.4595 13.9241 22.4595 13.8138C22.4487 13.7035 22.481 13.6434 22.5134 13.6835C22.5457 13.7135 22.5565 13.8038 22.5242 13.8739ZM10.782 14.3552C10.7066 14.4655 10.6203 14.5056 10.5987 14.4454C10.5772 14.3853 10.6311 14.295 10.7066 14.2449C10.9222 14.1246 10.933 14.1346 10.782 14.3552ZM3.6548 16.3804C3.62245 16.4606 3.5901 16.4305 3.5901 16.3202C3.57932 16.2099 3.61167 16.1498 3.64402 16.1899C3.67636 16.22 3.68715 16.3102 3.6548 16.3804ZM49.4157 16.5909C49.3079 16.6811 49.2971 16.6711 49.3618 16.5308C49.3942 16.4305 49.4589 16.3804 49.4912 16.4104C49.5236 16.4405 49.4912 16.5207 49.4157 16.5909ZM46.774 17.5835C47.173 17.8742 47.5827 18.185 47.6797 18.2652C47.7768 18.3554 48.0356 18.5559 48.2512 18.7063L48.661 18.9971L50.1921 18.9068C52.3809 18.7765 54.6237 18.8066 54.5266 18.967C54.5051 18.9971 54.6884 19.1074 54.9364 19.2176C55.5618 19.4984 56.5753 20.4007 56.8341 20.902C57.2223 21.6639 57.2223 21.8243 56.8557 22.1351C56.6724 22.2855 56.4675 22.5762 56.392 22.7868C56.295 23.1176 56.3057 23.2279 56.5322 23.649C56.7263 24.0199 56.9203 24.1904 57.3301 24.4009C57.632 24.5513 57.9123 24.6917 57.9663 24.7117C58.0309 24.7318 58.0309 24.802 57.9663 24.8922C57.9123 24.9724 57.8692 25.1127 57.8692 25.203C57.8692 25.3032 57.8369 25.3734 57.8045 25.3534C57.7722 25.3433 57.535 25.5037 57.2977 25.7043C56.7694 26.1454 55.896 26.5665 54.8501 26.8973C53.8258 27.2081 53.3298 27.5089 53.071 27.9901C52.8661 28.3611 52.8553 28.5014 52.92 29.9151C53.0063 31.7097 52.8769 32.6922 52.4564 33.5043C52.2947 33.805 52.1653 34.1158 52.1761 34.176C52.1761 34.2462 52.1437 34.2863 52.1006 34.2562C52.0574 34.2261 51.8849 34.3965 51.7232 34.6372C51.5614 34.8677 51.3027 35.1785 51.1625 35.3289C51.0008 35.4893 50.9253 35.6397 50.9684 35.7199C51.0223 35.7901 51.0115 35.8202 50.9468 35.7801C50.7743 35.6798 50.1489 36.4618 50.2244 36.6824C50.2675 36.8127 50.2568 36.8228 50.1813 36.7325C50.1058 36.6323 49.998 36.7225 49.75 37.0834C48.4777 38.9382 47.7876 41.194 47.6258 44.0312C47.5504 45.3747 47.7013 47.4199 47.9493 48.3423C48.0248 48.643 48.1973 49.2947 48.3375 49.796C48.6933 51.1495 49.1462 52.152 49.5559 52.513C49.9656 52.8739 50.9684 53.1847 51.4213 53.1045C51.6585 53.0644 51.6801 53.0744 51.5075 53.1346C51.3027 53.2248 51.3027 53.2248 51.5291 53.295C51.6693 53.3351 51.831 53.3351 51.8957 53.295C51.9712 53.2549 51.9927 53.2649 51.9496 53.3351C51.9173 53.3952 51.9496 53.4754 52.0359 53.5256C52.1976 53.6158 52.3809 54.1672 52.3809 54.5582C52.3701 54.8088 52.3594 54.8088 51.4536 54.7888C49.7823 54.7487 48.4022 54.2675 47.5611 53.4353C47.1191 53.0042 45.9546 51.35 45.9546 51.1595C45.9546 51.0793 45.9222 51.0492 45.8899 51.0793C45.8467 51.1194 45.7389 50.9991 45.6311 50.8186C45.4154 50.4176 44.6822 50.0667 43.9274 49.9765C43.5393 49.9364 43.3883 49.8862 43.453 49.806C43.6687 49.5454 43.852 48.2119 43.8412 46.9888C43.8412 45.9862 43.7765 45.485 43.5932 44.8132C43.1727 43.2893 42.364 41.6752 42.1591 41.9459C42.0836 42.0361 42.0728 42.0261 42.116 41.8958C42.2022 41.6551 41.8141 41.1639 40.8652 40.2916C40.0673 39.5698 39.6144 39.269 38.5038 38.7477C37.3932 38.2364 36.5953 38.076 35.1181 38.076C33.9968 38.076 33.7056 38.1161 32.9832 38.3467C31.7756 38.7377 31.0424 39.1587 30.2121 39.9407C28.2066 41.8356 27.7429 44.6027 29.026 46.9387C29.3495 47.5302 30.6973 48.7834 30.9237 48.7032C31.01 48.6731 31.0639 48.6831 31.0316 48.7333C30.9992 48.7834 31.1717 48.9137 31.4305 49.024C32.3255 49.405 33.0695 49.5754 33.8458 49.5754C34.5251 49.5754 34.6653 49.5454 34.9995 49.3047C35.2152 49.1544 35.3877 48.9538 35.3877 48.8536C35.3877 48.7634 35.4416 48.633 35.5171 48.5628C35.7004 48.3924 35.4632 47.7407 35.0966 47.4199C34.7515 47.1292 34.2124 46.9387 33.7272 46.9387C33.3282 46.9387 32.6166 46.6479 32.1098 46.287C31.7971 46.0664 31.6462 45.8559 31.1717 44.9235C31.01 44.6127 31.1394 43.3996 31.3982 42.788C31.6785 42.1163 32.4009 41.3644 33.0802 41.0436C34.3957 40.422 36.4228 40.5523 37.8138 41.3544C38.9567 42.006 40.0673 43.2693 40.5094 44.4323C41.1995 46.2269 41.124 48.8436 40.3261 50.4076C40.1967 50.6682 40.0997 50.9389 40.0997 51.0091C40.0997 51.0893 40.0781 51.1294 40.0457 51.0993C40.0134 51.0793 39.8948 51.2196 39.7762 51.4302C39.3557 52.1721 38.3852 53.1546 37.4256 53.8063C35.1289 55.3803 30.762 55.5808 27.6782 54.2574C26.0932 53.5757 25.1443 52.8639 24.1416 51.6307C22.9986 50.2171 22.3301 47.7808 22.4918 45.6855C22.5997 44.3721 22.9555 42.4873 23.2682 41.6551C23.4191 41.2541 23.5054 40.8731 23.4623 40.803C23.4191 40.7328 23.4299 40.7227 23.5054 40.7628C23.5809 40.803 23.6348 40.7729 23.6348 40.7027C23.6348 40.4922 24.6591 38.5772 25.112 37.9456C25.6942 37.1035 26.2549 36.4919 27.3547 35.4593C28.53 34.3665 28.6163 34.3063 29.8131 33.5744C30.859 32.9428 31.6354 32.5618 32.6921 32.1608C33.0802 32.0104 33.49 31.85 33.6086 31.7999C33.7272 31.7498 34.3095 31.5693 34.9025 31.3888C37.0266 30.7672 38.148 30.3562 39.0537 29.875C40.4663 29.133 41.5984 28.0603 42.2669 26.8372C42.5904 26.2657 43.3128 23.9899 43.205 23.8896C43.1727 23.8696 43.1942 23.7994 43.2481 23.7392C43.3021 23.6791 43.3991 23.3583 43.4746 23.0274C43.5393 22.6966 43.7657 21.9446 43.9706 21.3631C44.1754 20.7716 44.3264 20.2302 44.3048 20.1601C44.2833 20.0798 44.2833 20.0598 44.3156 20.1099C44.3911 20.2503 44.7793 19.2377 44.7146 19.0673C44.6714 18.987 44.6822 18.957 44.7253 18.9971C44.8008 19.0673 45.7389 17.3629 45.7389 17.1523C45.7389 16.9518 46.0732 17.0922 46.774 17.5835ZM57.5457 18.0647C57.5134 18.1148 57.4163 18.1649 57.3517 18.1649C57.2762 18.1649 57.287 18.1248 57.384 18.0647C57.5889 17.9444 57.632 17.9444 57.5457 18.0647ZM6.64155 18.2451C6.6739 18.2953 6.63077 18.3354 6.54451 18.3354C6.45825 18.3354 6.41512 18.2953 6.44747 18.2451C6.47981 18.205 6.52294 18.1649 6.54451 18.1649C6.56607 18.1649 6.6092 18.205 6.64155 18.2451ZM45.0596 18.3855C45.0273 18.4657 44.9949 18.4356 44.9949 18.3254C44.9841 18.2151 45.0165 18.1549 45.0488 18.195C45.0812 18.2251 45.0919 18.3153 45.0596 18.3855ZM55.4431 19.1675C55.3569 19.2176 55.3785 19.2577 55.5078 19.3079C55.6049 19.3379 55.6588 19.3981 55.6372 19.4282C55.6049 19.4583 55.4216 19.3981 55.2383 19.2878L54.904 19.0973H55.2275C55.4108 19.0973 55.5078 19.1274 55.4431 19.1675ZM41.3936 21.0924C41.3612 21.1726 41.3289 21.1426 41.3289 21.0323C41.3181 20.922 41.3504 20.8619 41.3828 20.902C41.4151 20.932 41.4259 21.0223 41.3936 21.0924ZM43.6579 21.1927C43.6255 21.2729 43.5932 21.2428 43.5932 21.1325C43.5824 21.0223 43.6147 20.9621 43.6471 21.0022C43.6794 21.0323 43.6902 21.1225 43.6579 21.1927ZM43.5932 21.8343C43.5393 21.9948 43.4854 22.0449 43.4854 21.9547C43.4746 21.7742 43.5932 21.4433 43.6471 21.5035C43.6687 21.5135 43.6363 21.6639 43.5932 21.8343ZM7.02972 21.7742C7.11598 21.8243 7.14833 21.8745 7.08363 21.8745C7.02972 21.8745 6.90033 21.8243 6.81407 21.7742C6.72781 21.7241 6.70625 21.6739 6.76016 21.6739C6.82485 21.6739 6.94346 21.7241 7.02972 21.7742ZM10.0488 22.8169C10.0488 22.8369 9.95178 22.8369 9.83317 22.8068C9.71456 22.7768 9.61752 22.7166 9.61752 22.6565C9.61752 22.6063 9.71456 22.6164 9.83317 22.6765C9.95178 22.7367 10.0488 22.7968 10.0488 22.8169ZM60.1982 22.8469C60.3384 23.0174 60.3384 23.0174 60.1335 22.877C60.0149 22.7968 59.8963 22.7166 59.8748 22.7066C59.8532 22.6865 59.8748 22.6765 59.9394 22.6765C60.0041 22.6765 60.1228 22.7567 60.1982 22.8469ZM27.4086 23.4284C27.5488 23.5688 27.6351 23.6791 27.6027 23.6791C27.5812 23.6791 27.441 23.5688 27.3008 23.4284C27.1607 23.2881 27.0744 23.1778 27.1067 23.1778C27.1283 23.1778 27.2685 23.2881 27.4086 23.4284ZM57.233 24.0701C57.1899 24.1202 57.2223 24.1904 57.2762 24.2104C57.3409 24.2405 57.3301 24.2505 57.2546 24.2405C57.0929 24.2104 57.0066 23.9798 57.1684 23.9798C57.233 23.9798 57.2654 24.0199 57.233 24.0701ZM57.9231 24.0801C57.8369 24.1302 57.7183 24.1804 57.6536 24.1804C57.5996 24.1804 57.6212 24.1302 57.7075 24.0801C57.7937 24.03 57.9231 23.9798 57.977 23.9798C58.0417 23.9798 58.0094 24.03 57.9231 24.0801ZM42.8492 24.7017C42.7629 24.7819 42.7521 24.7418 42.7953 24.5714C42.8384 24.441 42.8815 24.3909 42.9139 24.4711C42.9355 24.5413 42.9031 24.6516 42.8492 24.7017ZM25.8991 25.0225C25.8991 25.0426 25.8236 25.0927 25.7266 25.1228C25.6403 25.1529 25.5972 25.1428 25.6295 25.0827C25.6942 24.9824 25.8991 24.9423 25.8991 25.0225ZM10.5125 25.8847C10.4801 26.005 10.4262 26.0752 10.3939 26.0451C10.3399 25.985 10.4478 25.6842 10.5233 25.6842C10.5448 25.6842 10.5448 25.7744 10.5125 25.8847ZM26.6 25.7845C26.6323 25.8346 26.6107 25.8847 26.5568 25.8847C26.4921 25.8847 26.4382 25.8346 26.4382 25.7845C26.4382 25.7243 26.4598 25.6842 26.4814 25.6842C26.5137 25.6842 26.5676 25.7243 26.6 25.7845ZM27.8076 26.4161C27.8831 26.4161 27.9154 26.4562 27.8831 26.5063C27.8507 26.5464 27.9154 26.5865 28.0233 26.5965C28.1311 26.5965 28.1634 26.6266 28.0987 26.6467C28.0233 26.6768 27.8076 26.5965 27.6135 26.4762C27.4086 26.366 27.344 26.2958 27.4626 26.3359C27.5812 26.376 27.7321 26.4161 27.8076 26.4161ZM41.7817 27.3986C41.6847 27.4888 41.6523 27.4688 41.6739 27.3084C41.6847 27.168 41.7278 27.1279 41.7925 27.1881C41.868 27.2582 41.8572 27.3284 41.7817 27.3986ZM9.41265 27.5189C9.30483 27.6091 9.29405 27.5991 9.35874 27.4588C9.39109 27.3585 9.45578 27.3084 9.48813 27.3385C9.52048 27.3685 9.48813 27.4487 9.41265 27.5189ZM9.52048 27.8197C9.41265 27.9099 9.40187 27.8999 9.46657 27.7595C9.49891 27.6593 9.56361 27.6091 9.59596 27.6392C9.6283 27.6693 9.59596 27.7495 9.52048 27.8197ZM8.61475 29.2133C8.5824 29.2935 8.55006 29.2634 8.55006 29.1531C8.53927 29.0428 8.57162 28.9827 8.60397 29.0228C8.63631 29.0528 8.6471 29.1431 8.61475 29.2133ZM11.2349 29.133C11.2349 29.1631 11.1918 29.2133 11.1271 29.2433C11.0732 29.2734 11.0192 29.2534 11.0192 29.2032C11.0192 29.1431 11.0732 29.0929 11.1271 29.0929C11.1918 29.0929 11.2349 29.113 11.2349 29.133ZM27.3008 32.3012C27.3008 32.3513 27.2469 32.4014 27.1822 32.4014C27.1283 32.4014 27.1067 32.3513 27.1391 32.3012C27.1714 32.241 27.2253 32.2009 27.2577 32.2009C27.2793 32.2009 27.3008 32.241 27.3008 32.3012ZM54.807 34.5369C54.6992 34.6271 54.6884 34.6171 54.7531 34.4767C54.7854 34.3765 54.8501 34.3264 54.8825 34.3564C54.9148 34.3865 54.8825 34.4667 54.807 34.5369ZM53.9983 36.0307C53.9012 36.151 53.8258 36.2012 53.8258 36.131C53.8258 35.9405 53.8689 35.8603 53.9659 35.8904C54.0199 35.9004 54.0306 35.8102 53.9875 35.6899C53.9336 35.4893 53.9444 35.4793 54.0414 35.6397C54.1277 35.7701 54.1169 35.8603 53.9983 36.0307ZM24.5297 38.467C24.4974 38.5572 24.4435 38.6073 24.4219 38.5772C24.3895 38.5472 24.4003 38.487 24.4435 38.4269C24.5405 38.2665 24.6052 38.2965 24.5297 38.467ZM32.3147 38.9983C32.2823 39.0284 32.1961 38.9983 32.1206 38.9281C32.0236 38.8279 32.0343 38.8179 32.1853 38.878C32.2931 38.9081 32.347 38.9683 32.3147 38.9983ZM51.3566 39.1487C51.2488 39.2389 51.238 39.2289 51.3027 39.0886C51.335 38.9883 51.3997 38.9382 51.4321 38.9683C51.4644 38.9983 51.4321 39.0785 51.3566 39.1487ZM11.6662 39.1587C11.6662 39.1888 11.6231 39.2389 11.5584 39.269C11.5045 39.2991 11.4505 39.279 11.4505 39.2289C11.4505 39.1688 11.5045 39.1186 11.5584 39.1186C11.6231 39.1186 11.6662 39.1387 11.6662 39.1587ZM24.0445 39.5096C23.969 39.5999 23.9043 39.6801 23.8936 39.7001C23.8828 39.7102 23.8828 39.5898 23.8936 39.4294C23.9043 39.2089 23.9367 39.1587 24.0445 39.2389C24.1523 39.3192 24.1523 39.3793 24.0445 39.5096ZM13.359 39.8405C13.3267 39.9207 13.2944 39.8906 13.2944 39.7803C13.2836 39.67 13.3159 39.6099 13.3483 39.65C13.3806 39.6801 13.3914 39.7703 13.359 39.8405ZM50.4509 41.2441C50.4185 41.3243 50.3862 41.2942 50.3862 41.1839C50.3754 41.0736 50.4077 41.0135 50.4401 41.0536C50.4724 41.0837 50.4832 41.1739 50.4509 41.2441ZM20.5402 41.5749C20.5078 41.6652 20.4539 41.7153 20.4324 41.6852C20.4 41.6551 20.4108 41.595 20.4539 41.5348C20.551 41.3744 20.6157 41.4045 20.5402 41.5749ZM50.5048 41.8757C50.5371 42.006 50.5155 42.0963 50.4724 42.0662C50.3754 42.0161 50.3322 41.6251 50.4185 41.6251C50.4401 41.6251 50.4832 41.7353 50.5048 41.8757ZM30.9345 43.6502C30.9022 43.7204 30.8806 43.6703 30.8806 43.5299C30.8806 43.3896 30.9022 43.3395 30.9345 43.3996C30.9561 43.4698 30.9561 43.5901 30.9345 43.6502ZM49.6206 45.5752C49.6206 45.6053 49.5775 45.6554 49.5128 45.6855C49.4589 45.7155 49.4049 45.6955 49.4049 45.6454C49.4049 45.5852 49.4589 45.5351 49.5128 45.5351C49.5775 45.5351 49.6206 45.5551 49.6206 45.5752ZM29.5005 47.1993C29.5328 47.2795 29.522 47.3197 29.4573 47.2896C29.3926 47.2595 29.3495 47.1893 29.3495 47.1292C29.3495 46.9888 29.425 47.0189 29.5005 47.1993ZM34.8594 47.6706C34.7515 47.7608 34.7407 47.7508 34.8054 47.6104C34.8378 47.5101 34.9025 47.46 34.9348 47.4901C34.9672 47.5202 34.9348 47.6004 34.8594 47.6706ZM32.7676 49.004C32.7352 49.034 32.6382 49.0441 32.5627 49.014C32.4764 48.9839 32.5088 48.9538 32.6274 48.9538C32.746 48.9438 32.8107 48.9739 32.7676 49.004ZM40.5741 50.3775C40.4663 50.4677 40.4555 50.4577 40.5202 50.3173C40.5525 50.2171 40.6172 50.1669 40.6496 50.197C40.6819 50.2271 40.6496 50.3073 40.5741 50.3775ZM53.8366 51.6207C53.9767 51.7811 53.9659 51.7911 53.8042 51.6608C53.6964 51.5906 53.6101 51.5104 53.6101 51.4903C53.6101 51.4101 53.6964 51.4603 53.8366 51.6207ZM13.2944 52.7837C13.1865 52.8739 13.1757 52.8639 13.2404 52.7235C13.2728 52.6232 13.3375 52.5731 13.3698 52.6032C13.4022 52.6333 13.3698 52.7135 13.2944 52.7837ZM43.1834 52.8939C44.2401 53.295 44.0245 54.4479 42.8492 54.7487C42.6335 54.8088 41.9435 54.859 41.3181 54.859H40.1859L40.5633 54.5281C41.1132 54.0469 41.5553 53.5556 41.8464 53.1245C42.0513 52.8137 42.1483 52.7536 42.461 52.7536C42.6659 52.7536 42.9894 52.8137 43.1834 52.8939ZM37.8138 53.8564C37.7814 53.9065 37.6844 53.9567 37.6197 53.9567C37.5442 53.9567 37.555 53.9166 37.652 53.8564C37.8569 53.7361 37.9 53.7361 37.8138 53.8564ZM23.0417 54.0569C23.0741 54.1171 23.031 54.1271 22.9447 54.097C22.7506 54.0268 22.7183 53.9567 22.8692 53.9567C22.9339 53.9567 23.0094 53.9968 23.0417 54.0569ZM18.5454 54.6685C18.5131 54.7487 18.47 54.6986 18.4268 54.5682C18.3837 54.3978 18.3945 54.3577 18.4807 54.4379C18.5347 54.488 18.567 54.5983 18.5454 54.6685ZM23.9043 54.9693C24.0445 55.1698 23.9043 55.1196 23.6348 54.879C23.3868 54.6585 23.3868 54.6384 23.6024 54.7487C23.7318 54.8088 23.872 54.9091 23.9043 54.9693ZM43.2589 54.859C43.1727 54.9091 43.0217 54.9492 42.9355 54.9492C42.8276 54.9492 42.8492 54.9191 42.9894 54.859C43.2805 54.7387 43.453 54.7387 43.2589 54.859ZM14.1138 55.0194C14.0815 55.0495 13.9844 55.0595 13.909 55.0294C13.8227 54.9993 13.855 54.9693 13.9737 54.9693C14.0923 54.9592 14.157 54.9893 14.1138 55.0194ZM35.3554 55.0194C35.323 55.0495 35.226 55.0595 35.1505 55.0294C35.0642 54.9993 35.0966 54.9693 35.2152 54.9693C35.3338 54.9592 35.3985 54.9893 35.3554 55.0194ZM9.64987 56.3327C9.61752 56.4029 9.55283 56.433 9.49891 56.4029C9.34796 56.3227 9.38031 56.1924 9.55283 56.1924C9.63909 56.1924 9.68222 56.2525 9.64987 56.3327ZM50.1274 56.9243C50.095 56.9543 49.998 56.9644 49.9225 56.9343C49.8362 56.9042 49.8686 56.8741 49.9872 56.8741C50.1058 56.8641 50.1705 56.8942 50.1274 56.9243ZM40.38 57.0345C40.1212 57.0546 39.7115 57.0546 39.4635 57.0345C39.2047 57.0145 39.4096 56.9944 39.9164 56.9944C40.4231 56.9944 40.628 57.0145 40.38 57.0345ZM52.4995 57.0245C52.4672 57.0546 52.3701 57.0646 52.2947 57.0345C52.2084 57.0045 52.2407 56.9744 52.3594 56.9744C52.478 56.9644 52.5427 56.9944 52.4995 57.0245ZM38.0078 57.2351C37.8677 57.2551 37.652 57.2551 37.5226 57.2351C37.3825 57.215 37.4903 57.195 37.7598 57.195C38.0294 57.195 38.1372 57.215 38.0078 57.2351Z" fill="#65A30D"/>
<path d="M12.4085 16.6099C12.0011 16.7178 11.55 17.1133 11.55 17.365C11.55 17.6095 11.9575 17.926 12.4231 18.0482C12.9323 18.1777 13.2088 18.1849 13.0633 18.0626C12.9906 17.9979 13.0051 17.9979 13.1506 18.0626C13.5144 18.228 14.4602 17.926 14.7366 17.5448C14.9112 17.3003 14.8967 17.25 14.6057 16.9695C14.14 16.5164 13.267 16.3798 12.4085 16.6099Z" fill="#65A30D"/>
<path d="M53.3824 21.5856C52.7915 21.9164 52.6097 23.2685 53.0263 24.2178C53.2157 24.6637 53.3067 24.75 53.5415 24.75C53.8824 24.75 54.1703 24.376 54.337 23.7144C54.4961 23.1246 54.4885 22.9089 54.3067 22.3335C54.1854 21.9596 53.7309 21.3842 53.6097 21.4561C53.5945 21.4561 53.496 21.5137 53.3824 21.5856ZM54.2309 22.4486C54.2309 22.5205 54.2158 22.5925 54.2006 22.5925C54.1779 22.5925 54.14 22.5205 54.1173 22.4486C54.0945 22.3623 54.1097 22.3048 54.1476 22.3048C54.193 22.3048 54.2309 22.3623 54.2309 22.4486ZM54.1248 24.0021C53.9961 24.2322 53.9885 24.2322 54.087 23.9301C54.14 23.7575 54.2006 23.6425 54.2233 23.6856C54.2461 23.7144 54.2006 23.8582 54.1248 24.0021ZM53.2536 24.2753C53.3521 24.5055 53.3445 24.5199 53.2309 24.3329C53.1551 24.2322 53.0945 24.1171 53.0945 24.0884C53.0945 23.9733 53.1551 24.0452 53.2536 24.2753ZM53.6476 24.563C53.5945 24.5918 53.5036 24.5918 53.4582 24.563C53.4051 24.5199 53.443 24.4911 53.5491 24.4911C53.6551 24.4911 53.693 24.5199 53.6476 24.563Z" fill="#65A30D"/>
<path d="M55.1264 39.7487C54.9266 39.8517 54.7553 40.0805 54.6221 40.4352C54.4033 40.9615 54.4033 40.9615 54.565 42.1399C54.8124 43.9132 54.8409 44.7713 54.7077 46.373C54.6031 47.5743 54.6031 47.8833 54.7077 48.1121C54.7743 48.2608 54.879 48.3638 54.9266 48.318C54.9836 48.2837 54.9932 48.3066 54.9551 48.3867C54.8505 48.5926 55.2881 48.9587 55.6401 48.9701C56.6485 48.9816 57.2003 47.6888 57.2003 45.3434C57.2003 44.7027 57.1718 44.1192 57.1337 44.0505C57.1052 43.9933 57.1242 43.9361 57.1813 43.9361C57.2384 43.9361 57.3145 44.0276 57.343 44.1306C57.3811 44.245 57.4382 44.3594 57.4762 44.3938C57.5428 44.451 57.8568 45.0917 58.0946 45.6523C58.6084 46.8421 58.6464 49.0731 58.1898 50.3087C57.8758 51.1325 57.7712 51.2583 57.1623 51.5329C56.6485 51.7617 56.3536 52.1393 56.268 52.6999C56.1919 53.1804 56.268 53.5465 56.4868 53.844C57.0196 54.5533 57.5333 54.6334 58.38 54.1186C59.9403 53.169 60.8251 51.2927 61.0344 48.4553C61.158 46.762 60.5396 44.3366 59.6073 42.8378C58.8652 41.6479 57.4192 40.1606 57.1813 40.3322C57.1242 40.378 57.0957 40.3437 57.1052 40.2636C57.1433 40.0691 56.1824 39.6 55.7543 39.6C55.5735 39.6 55.2881 39.6686 55.1264 39.7487ZM59.6168 43.3183C59.6263 43.4785 59.6168 43.5815 59.5883 43.5471C59.5502 43.5128 59.5122 43.3412 59.5027 43.181C59.4836 43.0208 59.5027 42.9064 59.5312 42.9522C59.5597 42.9865 59.5978 43.1467 59.6168 43.3183ZM59.7785 52.1164C59.75 52.2194 59.7024 52.2766 59.6834 52.2423C59.6549 52.2079 59.6644 52.1393 59.7024 52.0706C59.7881 51.8876 59.8451 51.9219 59.7785 52.1164Z" fill="#65A30D"/>
</svg>
