<svg width="29" height="38" viewBox="0 0 29 38" fill="none" xmlns="http://www.w3.org/2000/svg">
<g clip-path="url(#clip0_224_189)">
<path d="M29 10.4285C29 9.29185 28.5635 8.20176 27.7866 7.39803C27.0096 6.5943 25.9559 6.14277 24.8571 6.14277H23.8214V5.10147C23.8214 4.5249 23.3929 4.03004 22.8356 4.00124C22.6955 3.99426 22.5556 4.01677 22.4242 4.06739C22.2928 4.11802 22.1727 4.19571 22.0712 4.29577C21.9697 4.39582 21.8889 4.51615 21.8337 4.64946C21.7785 4.78278 21.75 4.9263 21.75 5.07133V6.14277H7.25V5.10147C7.25 4.5249 6.82147 4.03004 6.26413 4.00124C6.12409 3.99426 5.98414 4.01677 5.85276 4.06739C5.72138 4.11802 5.6013 4.19571 5.4998 4.29577C5.3983 4.39582 5.31749 4.51615 5.26228 4.64946C5.20706 4.78278 5.17858 4.9263 5.17857 5.07133V6.14277H4.14286C3.0441 6.14277 1.99035 6.5943 1.21341 7.39803C0.436478 8.20176 0 9.29185 0 10.4285V11.2321C0 11.3031 0.0272799 11.3712 0.0758385 11.4215C0.124397 11.4717 0.190256 11.4999 0.258929 11.4999H28.7411C28.8097 11.4999 28.8756 11.4717 28.9242 11.4215C28.9727 11.3712 29 11.3031 29 11.2321V10.4285ZM0 29.7143C0 30.8509 0.436478 31.941 1.21341 32.7447C1.99035 33.5485 3.0441 34 4.14286 34H24.8571C25.9559 34 27.0096 33.5485 27.7866 32.7447C28.5635 31.941 29 30.8509 29 29.7143V13.9106C29 13.8396 28.9727 13.7715 28.9242 13.7212C28.8756 13.671 28.8097 13.6428 28.7411 13.6428H0.258929C0.190256 13.6428 0.124397 13.671 0.0758385 13.7212C0.0272799 13.7715 0 13.8396 0 13.9106V29.7143Z" fill="#65A30D"/>
</g>
<defs>
<clipPath id="clip0_224_189">
<rect width="29" height="38" fill="white"/>
</clipPath>
</defs>
</svg>
