<svg width="29" height="38" viewBox="0 0 29 38" fill="none" xmlns="http://www.w3.org/2000/svg">
<path d="M24.4688 7.125H21.75V5.9375C21.7493 4.99297 21.4626 4.0874 20.9529 3.41952C20.4432 2.75163 19.7521 2.37598 19.0312 2.375H9.96875C9.24792 2.37598 8.55683 2.75163 8.04713 3.41952C7.53743 4.0874 7.25075 4.99297 7.25 5.9375V7.125H4.53125C3.57016 7.12638 2.64874 7.62726 1.96915 8.51776C1.28955 9.40826 0.907299 10.6156 0.90625 11.875V30.875C0.90625 32.1348 1.28817 33.343 1.96799 34.2338C2.64781 35.1246 3.56984 35.625 4.53125 35.625H24.4688C25.4302 35.625 26.3522 35.1246 27.032 34.2338C27.7118 33.343 28.0938 32.1348 28.0938 30.875V11.875C28.0927 10.6156 27.7104 9.40826 27.0309 8.51776C26.3513 7.62726 25.4298 7.12638 24.4688 7.125ZM19.0312 22.5625H15.4062V27.3125C15.4062 27.6274 15.3108 27.9295 15.1408 28.1522C14.9709 28.3749 14.7404 28.5 14.5 28.5C14.2596 28.5 14.0291 28.3749 13.8592 28.1522C13.6892 27.9295 13.5938 27.6274 13.5938 27.3125V22.5625H9.96875C9.7284 22.5625 9.49789 22.4374 9.32793 22.2147C9.15798 21.992 9.0625 21.6899 9.0625 21.375C9.0625 21.0601 9.15798 20.758 9.32793 20.5353C9.49789 20.3126 9.7284 20.1875 9.96875 20.1875H13.5938V15.4375C13.5938 15.1226 13.6892 14.8205 13.8592 14.5978C14.0291 14.3751 14.2596 14.25 14.5 14.25C14.7404 14.25 14.9709 14.3751 15.1408 14.5978C15.3108 14.8205 15.4062 15.1226 15.4062 15.4375V20.1875H19.0312C19.2716 20.1875 19.5021 20.3126 19.6721 20.5353C19.842 20.758 19.9375 21.0601 19.9375 21.375C19.9375 21.6899 19.842 21.992 19.6721 22.2147C19.5021 22.4374 19.2716 22.5625 19.0312 22.5625ZM19.9375 7.125H9.0625V5.9375C9.0625 5.62256 9.15798 5.32051 9.32793 5.09781C9.49789 4.87511 9.7284 4.75 9.96875 4.75H19.0312C19.2716 4.75 19.5021 4.87511 19.6721 5.09781C19.842 5.32051 19.9375 5.62256 19.9375 5.9375V7.125Z" fill="#65A30D"/>
</svg>
