<svg width="88" height="88" viewBox="0 0 88 88" fill="none" xmlns="http://www.w3.org/2000/svg">
<path d="M44 86C20.804 86 2 67.196 2 44C2 20.804 20.804 2 44 2C67.196 2 86 20.804 86 44C86 67.196 67.196 86 44 86Z" stroke="white" stroke-opacity="0.5" stroke-width="4"/>
<path d="M58 44C58.0008 44.3395 57.9138 44.6735 57.7473 44.9694C57.5808 45.2654 57.3406 45.5132 57.05 45.6888L39.04 56.7063C38.7364 56.8922 38.3886 56.9937 38.0326 57.0003C37.6766 57.0069 37.3253 56.9183 37.015 56.7438C36.7076 56.5719 36.4516 56.3213 36.2732 56.0177C36.0948 55.7141 36.0005 55.3684 36 55.0163V32.9838C36.0005 32.6316 36.0948 32.286 36.2732 31.9824C36.4516 31.6787 36.7076 31.4281 37.015 31.2563C37.3253 31.0817 37.6766 30.9931 38.0326 30.9997C38.3886 31.0063 38.7364 31.1078 39.04 31.2938L57.05 42.3113C57.3406 42.4869 57.5808 42.7347 57.7473 43.0306C57.9138 43.3265 58.0008 43.6605 58 44Z" fill="white"/>
</svg>
