<svg width="18" height="24" viewBox="0 0 18 24" fill="none" xmlns="http://www.w3.org/2000/svg">
<path d="M17.3864 1.6H13.9091V0.6C13.9091 0.44087 13.8444 0.288258 13.7294 0.175736C13.6143 0.0632141 13.4582 0 13.2955 0H4.70455C4.5418 0 4.38572 0.0632141 4.27064 0.175736C4.15556 0.288258 4.09091 0.44087 4.09091 0.6V1.6H0.613636C0.45089 1.6 0.294809 1.66321 0.17973 1.77574C0.0646507 1.88826 0 2.04087 0 2.2V23.4C0 23.5591 0.0646507 23.7117 0.17973 23.8243C0.294809 23.9368 0.45089 24 0.613636 24H17.3864C17.5491 24 17.7052 23.9368 17.8203 23.8243C17.9353 23.7117 18 23.5591 18 23.4V2.2C18 2.04087 17.9353 1.88826 17.8203 1.77574C17.7052 1.66321 17.5491 1.6 17.3864 1.6ZM13.0843 4.8H4.91574V3.2H13.0843V4.8Z" fill="#65A30D"/>
</svg>
